<ttFont>
<head>
    <!-- Most of this table will be recalculated by the compiler -->
    <tableVersion value="1.0"/>
    <fontRevision value="1.437"/>
    <checkSumAdjustment value="0x44ca1f31"/>
    <magicNumber value="0x5f0f3cf5"/>
    <flags value="00000000 00001101"/>
    <unitsPerEm value="1000"/>
    <created value="Fri Jul 30 13:54:25 2021"/>
    <modified value="Mon Jun 15 12:00:00 2026"/>
    <xMin value="-284"/>
    <yMin value="-400"/>
    <xMax value="847"/>
    <yMax value="1120"/>
    <macStyle value="00000000 00000000"/>
    <lowestRecPPEM value="6"/>
    <fontDirectionHint value="2"/>
    <indexToLocFormat value="0"/>
    <glyphDataFormat value="0"/>
  </head>
    <TTGlyph name=".notdef" xMin="54" yMin="0" xMax="482" yMax="730">
      <contour>
        <pt x="54" y="0" on="1"/>
        <pt x="54" y="730" on="1"/>
        <pt x="482" y="730" on="1"/>
        <pt x="482" y="0" on="1"/>
      </contour>
      <contour>
        <pt x="105" y="109" on="1"/>
        <pt x="411" y="680" on="1"/>
        <pt x="105" y="680" on="1"/>
      </contour>
      <contour>
        <pt x="125" y="50" on="1"/>
        <pt x="431" y="50" on="1"/>
        <pt x="431" y="621" on="1"/>
      </contour>
    </TTGlyph>
    <TTGlyph name="A" xMin="58" yMin="0" xMax="632" yMax="740">
      <contour>
        <pt x="58" y="0" on="1"/>
        <pt x="296" y="740" on="1"/>
        <pt x="395" y="740" on="1"/>
        <pt x="632" y="0" on="1"/>
        <pt x="538" y="0" on="1"/>
        <pt x="488" y="162" on="1"/>
        <pt x="202" y="162" on="1"/>
        <pt x="152" y="0" on="1"/>
      </contour>
      <contour>
        <pt x="228" y="251" on="1"/>
        <pt x="462" y="251" on="1"/>
        <pt x="345" y="635" on="1"/>
      </contour>
    </TTGlyph>
    <TTGlyph name="AE" xMin="58" yMin="0" xMax="632" yMax="739">
      <contour>
        <pt x="58" y="0" on="1"/>
        <pt x="351" y="739" on="1"/>
        <pt x="632" y="739" on="1"/>
        <pt x="632" y="649" on="1"/>
        <pt x="415" y="649" on="1"/>
        <pt x="415" y="425" on="1"/>
        <pt x="575" y="425" on="1"/>
        <pt x="575" y="335" on="1"/>
        <pt x="415" y="335" on="1"/>
        <pt x="415" y="90" on="1"/>
        <pt x="632" y="90" on="1"/>
        <pt x="632" y="0" on="1"/>
        <pt x="358" y="0" on="1"/>
        <pt x="358" y="160" on="1"/>
        <pt x="187" y="160" on="1"/>
        <pt x="124" y="0" on="1"/>
      </contour>
      <contour>
        <pt x="221" y="250" on="1"/>
        <pt x="358" y="250" on="1"/>
        <pt x="358" y="604" on="1"/>
      </contour>
    </TTGlyph>
    <TTGlyph name="AEacute" xMin="58" yMin="0" xMax="632" yMax="950">
      <component glyphName="AE" x="0" y="0" flags="0x204"/>
      <component glyphName="acutecomb.case" x="200" y="0" flags="0x4"/>
    </TTGlyph>
    <TTGlyph name="Aacute" xMin="58" yMin="0" xMax="632" yMax="944">
      <contour>
        <pt x="58" y="0" on="1"/>
        <pt x="296" y="731" on="1"/>
        <pt x="395" y="731" on="1"/>
        <pt x="632" y="0" on="1"/>
        <pt x="538" y="0" on="1"/>
        <pt x="488" y="160" on="1"/>
        <pt x="202" y="160" on="1"/>
        <pt x="152" y="0" on="1"/>
      </contour>
      <contour>
        <pt x="228" y="248" on="1"/>
        <pt x="462" y="248" on="1"/>
        <pt x="345" y="627" on="1"/>
      </contour>
      <contour>
        <pt x="290" y="813" on="1"/>
        <pt x="293" y="816" on="0"/>
        <pt x="320" y="849" on="0"/>
        <pt x="356" y="891" on="0"/>
        <pt x="386" y="926" on="0"/>
        <pt x="391" y="931" on="1"/>
        <pt x="405" y="944" on="0"/>
        <pt x="419" y="944" on="1"/>
        <pt x="433" y="944" on="0"/>
        <pt x="453" y="921" on="0"/>
        <pt x="453" y="905" on="1"/>
        <pt x="453" y="884" on="0"/>
        <pt x="438" y="870" on="1"/>
        <pt x="431" y="862" on="0"/>
        <pt x="395" y="836" on="0"/>
        <pt x="365" y="815" on="0"/>
        <pt x="362" y="813" on="1"/>
      </contour>
    </TTGlyph>
    <TTGlyph name="Abreve" xMin="58" yMin="0" xMax="632" yMax="941">
      <contour>
        <pt x="58" y="0" on="1"/>
        <pt x="296" y="731" on="1"/>
        <pt x="395" y="731" on="1"/>
        <pt x="632" y="0" on="1"/>
        <pt x="538" y="0" on="1"/>
        <pt x="488" y="160" on="1"/>
        <pt x="202" y="160" on="1"/>
        <pt x="152" y="0" on="1"/>
      </contour>
      <contour>
        <pt x="228" y="248" on="1"/>
        <pt x="462" y="248" on="1"/>
        <pt x="345" y="627" on="1"/>
      </contour>
      <contour>
        <pt x="345" y="810" on="1"/>
        <pt x="293" y="810" on="0"/>
        <pt x="217" y="885" on="0"/>
        <pt x="206" y="941" on="1"/>
        <pt x="271" y="941" on="1"/>
        <pt x="280" y="916" on="0"/>
        <pt x="319" y="883" on="0"/>
        <pt x="345" y="883" on="1"/>
        <pt x="370" y="883" on="0"/>
        <pt x="409" y="916" on="0"/>
        <pt x="419" y="941" on="1"/>
        <pt x="484" y="941" on="1"/>
        <pt x="474" y="885" on="0"/>
        <pt x="396" y="810" on="0"/>
      </contour>
    </TTGlyph>
    <TTGlyph name="Acircumflex" xMin="58" yMin="0" xMax="632" yMax="947">
      <contour>
        <pt x="58" y="0" on="1"/>
        <pt x="296" y="731" on="1"/>
        <pt x="395" y="731" on="1"/>
        <pt x="632" y="0" on="1"/>
        <pt x="538" y="0" on="1"/>
        <pt x="488" y="160" on="1"/>
        <pt x="202" y="160" on="1"/>
        <pt x="152" y="0" on="1"/>
      </contour>
      <contour>
        <pt x="228" y="248" on="1"/>
        <pt x="462" y="248" on="1"/>
        <pt x="345" y="627" on="1"/>
      </contour>
      <contour>
        <pt x="192" y="816" on="1"/>
        <pt x="298" y="927" on="1"/>
        <pt x="316" y="947" on="0"/>
        <pt x="345" y="947" on="1"/>
        <pt x="373" y="947" on="0"/>
        <pt x="391" y="927" on="1"/>
        <pt x="497" y="816" on="1"/>
        <pt x="408" y="816" on="1"/>
        <pt x="344" y="883" on="1"/>
        <pt x="281" y="816" on="1"/>
      </contour>
    </TTGlyph>
    <TTGlyph name="Adieresis" xMin="58" yMin="0" xMax="632" yMax="926">
      <contour>
        <pt x="58" y="0" on="1"/>
        <pt x="296" y="731" on="1"/>
        <pt x="395" y="731" on="1"/>
        <pt x="632" y="0" on="1"/>
        <pt x="538" y="0" on="1"/>
        <pt x="488" y="160" on="1"/>
        <pt x="202" y="160" on="1"/>
        <pt x="152" y="0" on="1"/>
      </contour>
      <contour>
        <pt x="228" y="248" on="1"/>
        <pt x="462" y="248" on="1"/>
        <pt x="345" y="627" on="1"/>
      </contour>
      <contour>
        <pt x="244" y="809" on="1"/>
        <pt x="224" y="809" on="0"/>
        <pt x="193" y="844" on="0"/>
        <pt x="193" y="868" on="1"/>
        <pt x="193" y="892" on="0"/>
        <pt x="224" y="926" on="0"/>
        <pt x="244" y="926" on="1"/>
        <pt x="267" y="926" on="0"/>
        <pt x="296" y="892" on="0"/>
        <pt x="296" y="868" on="1"/>
        <pt x="296" y="844" on="0"/>
        <pt x="267" y="809" on="0"/>
      </contour>
      <contour>
        <pt x="445" y="809" on="1"/>
        <pt x="423" y="809" on="0"/>
        <pt x="394" y="844" on="0"/>
        <pt x="394" y="868" on="1"/>
        <pt x="394" y="892" on="0"/>
        <pt x="423" y="926" on="0"/>
        <pt x="445" y="926" on="1"/>
        <pt x="466" y="926" on="0"/>
        <pt x="496" y="892" on="0"/>
        <pt x="496" y="868" on="1"/>
        <pt x="496" y="844" on="0"/>
        <pt x="466" y="809" on="0"/>
      </contour>
    </TTGlyph>
    <TTGlyph name="Agrave" xMin="58" yMin="0" xMax="632" yMax="944">
      <contour>
        <pt x="58" y="0" on="1"/>
        <pt x="296" y="731" on="1"/>
        <pt x="395" y="731" on="1"/>
        <pt x="632" y="0" on="1"/>
        <pt x="538" y="0" on="1"/>
        <pt x="488" y="160" on="1"/>
        <pt x="202" y="160" on="1"/>
        <pt x="152" y="0" on="1"/>
      </contour>
      <contour>
        <pt x="228" y="248" on="1"/>
        <pt x="462" y="248" on="1"/>
        <pt x="345" y="627" on="1"/>
      </contour>
      <contour>
        <pt x="321" y="813" on="1"/>
        <pt x="318" y="815" on="0"/>
        <pt x="288" y="836" on="0"/>
        <pt x="253" y="862" on="0"/>
        <pt x="244" y="870" on="1"/>
        <pt x="229" y="885" on="0"/>
        <pt x="229" y="905" on="1"/>
        <pt x="229" y="921" on="0"/>
        <pt x="250" y="944" on="0"/>
        <pt x="264" y="944" on="1"/>
        <pt x="271" y="944" on="0"/>
        <pt x="286" y="939" on="0"/>
        <pt x="293" y="930" on="1"/>
        <pt x="393" y="813" on="1"/>
      </contour>
    </TTGlyph>
    <TTGlyph name="Alpha" xMin="82" yMin="0" xMax="656" yMax="740">
      <component glyphName="A" x="24" y="0" flags="0x4"/>
    </TTGlyph>
    <TTGlyph name="Alphatonos" xMin="54" yMin="0" xMax="632" yMax="740">
      <component glyphName="A" x="0" y="0" flags="0x204"/>
      <component glyphName="tonos.case" x="-48" y="0" flags="0x4"/>
    </TTGlyph>
    <TTGlyph name="Amacron" xMin="58" yMin="0" xMax="632" yMax="906">
      <contour>
        <pt x="58" y="0" on="1"/>
        <pt x="296" y="731" on="1"/>
        <pt x="395" y="731" on="1"/>
        <pt x="632" y="0" on="1"/>
        <pt x="538" y="0" on="1"/>
        <pt x="488" y="160" on="1"/>
        <pt x="202" y="160" on="1"/>
        <pt x="152" y="0" on="1"/>
      </contour>
      <contour>
        <pt x="228" y="248" on="1"/>
        <pt x="462" y="248" on="1"/>
        <pt x="345" y="627" on="1"/>
      </contour>
      <contour>
        <pt x="214" y="833" on="1"/>
        <pt x="214" y="906" on="1"/>
        <pt x="476" y="906" on="1"/>
        <pt x="476" y="833" on="1"/>
      </contour>
    </TTGlyph>
    <TTGlyph name="Aogonek" xMin="58" yMin="-191" xMax="632" yMax="740">
      <contour>
        <pt x="58" y="0" on="1"/>
        <pt x="296" y="740" on="1"/>
        <pt x="395" y="740" on="1"/>
        <pt x="632" y="0" on="1"/>
        <pt x="538" y="0" on="1"/>
        <pt x="488" y="162" on="1"/>
        <pt x="202" y="162" on="1"/>
        <pt x="152" y="0" on="1"/>
      </contour>
      <contour>
        <pt x="228" y="251" on="1"/>
        <pt x="462" y="251" on="1"/>
        <pt x="345" y="635" on="1"/>
      </contour>
      <contour>
        <pt x="571" y="-191" on="1"/>
        <pt x="529" y="-191" on="0"/>
        <pt x="482" y="-136" on="0"/>
        <pt x="482" y="-100" on="1"/>
        <pt x="482" y="-61" on="0"/>
        <pt x="518" y="-11" on="0"/>
        <pt x="537" y="0" on="1"/>
        <pt x="631" y="0" on="1"/>
        <pt x="591" y="-16" on="0"/>
        <pt x="548" y="-53" on="0"/>
        <pt x="548" y="-82" on="1"/>
        <pt x="548" y="-105" on="0"/>
        <pt x="575" y="-128" on="0"/>
        <pt x="595" y="-128" on="1"/>
        <pt x="603" y="-128" on="0"/>
        <pt x="621" y="-122" on="0"/>
        <pt x="631" y="-118" on="1"/>
        <pt x="631" y="-178" on="1"/>
        <pt x="599" y="-191" on="0"/>
      </contour>
    </TTGlyph>
    <TTGlyph name="Aring" xMin="58" yMin="0" xMax="632" yMax="916">
      <contour>
        <pt x="58" y="0" on="1"/>
        <pt x="296" y="731" on="1"/>
        <pt x="395" y="731" on="1"/>
        <pt x="632" y="0" on="1"/>
        <pt x="538" y="0" on="1"/>
        <pt x="488" y="160" on="1"/>
        <pt x="202" y="160" on="1"/>
        <pt x="152" y="0" on="1"/>
      </contour>
      <contour>
        <pt x="228" y="248" on="1"/>
        <pt x="462" y="248" on="1"/>
        <pt x="345" y="627" on="1"/>
      </contour>
      <contour>
        <pt x="347" y="678" on="1"/>
        <pt x="317" y="678" on="0"/>
        <pt x="270" y="710" on="0"/>
        <pt x="242" y="765" on="0"/>
        <pt x="242" y="797" on="1"/>
        <pt x="242" y="829" on="0"/>
        <pt x="270" y="883" on="0"/>
        <pt x="317" y="916" on="0"/>
        <pt x="347" y="916" on="1"/>
        <pt x="390" y="916" on="0"/>
        <pt x="448" y="845" on="0"/>
        <pt x="448" y="797" on="1"/>
        <pt x="448" y="749" on="0"/>
        <pt x="390" y="678" on="0"/>
      </contour>
      <contour>
        <pt x="345" y="741" on="1"/>
        <pt x="365" y="741" on="0"/>
        <pt x="394" y="774" on="0"/>
        <pt x="394" y="797" on="1"/>
        <pt x="394" y="820" on="0"/>
        <pt x="365" y="852" on="0"/>
        <pt x="345" y="852" on="1"/>
        <pt x="325" y="852" on="0"/>
        <pt x="296" y="820" on="0"/>
        <pt x="296" y="797" on="1"/>
        <pt x="296" y="774" on="0"/>
        <pt x="325" y="741" on="0"/>
      </contour>
    </TTGlyph>
    <TTGlyph name="Atilde" xMin="58" yMin="0" xMax="632" yMax="932">
      <contour>
        <pt x="58" y="0" on="1"/>
        <pt x="296" y="731" on="1"/>
        <pt x="395" y="731" on="1"/>
        <pt x="632" y="0" on="1"/>
        <pt x="538" y="0" on="1"/>
        <pt x="488" y="160" on="1"/>
        <pt x="202" y="160" on="1"/>
        <pt x="152" y="0" on="1"/>
      </contour>
      <contour>
        <pt x="228" y="248" on="1"/>
        <pt x="462" y="248" on="1"/>
        <pt x="345" y="627" on="1"/>
      </contour>
      <contour>
        <pt x="408" y="816" on="1"/>
        <pt x="393" y="816" on="0"/>
        <pt x="363" y="828" on="0"/>
        <pt x="344" y="839" on="1"/>
        <pt x="330" y="848" on="0"/>
        <pt x="304" y="863" on="0"/>
        <pt x="290" y="863" on="1"/>
        <pt x="255" y="863" on="0"/>
        <pt x="251" y="819" on="1"/>
        <pt x="189" y="819" on="1"/>
        <pt x="197" y="876" on="0"/>
        <pt x="251" y="932" on="0"/>
        <pt x="289" y="932" on="1"/>
        <pt x="316" y="932" on="0"/>
        <pt x="354" y="909" on="0"/>
        <pt x="387" y="885" on="0"/>
        <pt x="406" y="885" on="1"/>
        <pt x="421" y="885" on="0"/>
        <pt x="437" y="898" on="0"/>
        <pt x="443" y="910" on="1"/>
        <pt x="449" y="922" on="0"/>
        <pt x="464" y="931" on="0"/>
        <pt x="471" y="931" on="1"/>
        <pt x="484" y="931" on="0"/>
        <pt x="500" y="910" on="0"/>
        <pt x="500" y="897" on="1"/>
        <pt x="500" y="881" on="0"/>
        <pt x="476" y="844" on="0"/>
        <pt x="434" y="816" on="0"/>
      </contour>
    </TTGlyph>
    <TTGlyph name="B" xMin="62" yMin="0" xMax="603" yMax="739">
      <contour>
        <pt x="62" y="0" on="1"/>
        <pt x="62" y="739" on="1"/>
        <pt x="350" y="739" on="1"/>
        <pt x="428" y="739" on="0"/>
        <pt x="526" y="686" on="0"/>
        <pt x="572" y="603" on="0"/>
        <pt x="572" y="556" on="1"/>
        <pt x="572" y="511" on="0"/>
        <pt x="533" y="425" on="0"/>
        <pt x="497" y="393" on="1"/>
        <pt x="550" y="364" on="0"/>
        <pt x="603" y="265" on="0"/>
        <pt x="603" y="213" on="1"/>
        <pt x="603" y="159" on="0"/>
        <pt x="550" y="62" on="0"/>
        <pt x="445" y="0" on="0"/>
        <pt x="367" y="0" on="1"/>
      </contour>
      <contour>
        <pt x="163" y="422" on="1"/>
        <pt x="361" y="422" on="1"/>
        <pt x="415" y="422" on="0"/>
        <pt x="470" y="493" on="0"/>
        <pt x="470" y="535" on="1"/>
        <pt x="470" y="564" on="0"/>
        <pt x="445" y="617" on="0"/>
        <pt x="397" y="652" on="0"/>
        <pt x="361" y="652" on="1"/>
        <pt x="163" y="652" on="1"/>
      </contour>
      <contour>
        <pt x="163" y="87" on="1"/>
        <pt x="378" y="87" on="1"/>
        <pt x="418" y="87" on="0"/>
        <pt x="471" y="124" on="0"/>
        <pt x="499" y="183" on="0"/>
        <pt x="499" y="216" on="1"/>
        <pt x="499" y="248" on="0"/>
        <pt x="472" y="305" on="0"/>
        <pt x="418" y="341" on="0"/>
        <pt x="377" y="341" on="1"/>
        <pt x="163" y="341" on="1"/>
      </contour>
    </TTGlyph>
    <TTGlyph name="Beta" xMin="71" yMin="0" xMax="612" yMax="739">
      <component glyphName="B" x="9" y="0" flags="0x4"/>
    </TTGlyph>
    <TTGlyph name="C" xMin="58" yMin="-13" xMax="632" yMax="752">
      <contour>
        <pt x="364" y="-13" on="1"/>
        <pt x="268" y="-13" on="0"/>
        <pt x="131" y="85" on="0"/>
        <pt x="58" y="258" on="0"/>
        <pt x="58" y="370" on="1"/>
        <pt x="58" y="486" on="0"/>
        <pt x="136" y="657" on="0"/>
        <pt x="278" y="752" on="0"/>
        <pt x="372" y="752" on="1"/>
        <pt x="457" y="752" on="0"/>
        <pt x="593" y="666" on="0"/>
        <pt x="627" y="585" on="1"/>
        <pt x="545" y="552" on="1"/>
        <pt x="523" y="601" on="0"/>
        <pt x="433" y="665" on="0"/>
        <pt x="367" y="665" on="1"/>
        <pt x="308" y="665" on="0"/>
        <pt x="211" y="598" on="0"/>
        <pt x="156" y="467" on="0"/>
        <pt x="156" y="370" on="1"/>
        <pt x="156" y="277" on="0"/>
        <pt x="210" y="145" on="0"/>
        <pt x="308" y="74" on="0"/>
        <pt x="371" y="74" on="1"/>
        <pt x="436" y="74" on="0"/>
        <pt x="526" y="136" on="0"/>
        <pt x="549" y="187" on="1"/>
        <pt x="632" y="154" on="1"/>
        <pt x="595" y="72" on="0"/>
        <pt x="454" y="-13" on="0"/>
      </contour>
    </TTGlyph>
    <TTGlyph name="Cacute" xMin="58" yMin="-13" xMax="632" yMax="944">
      <contour>
        <pt x="364" y="-13" on="1"/>
        <pt x="268" y="-13" on="0"/>
        <pt x="131" y="84" on="0"/>
        <pt x="58" y="255" on="0"/>
        <pt x="58" y="366" on="1"/>
        <pt x="58" y="480" on="0"/>
        <pt x="136" y="649" on="0"/>
        <pt x="278" y="743" on="0"/>
        <pt x="372" y="743" on="1"/>
        <pt x="457" y="743" on="0"/>
        <pt x="593" y="658" on="0"/>
        <pt x="627" y="578" on="1"/>
        <pt x="545" y="545" on="1"/>
        <pt x="523" y="594" on="0"/>
        <pt x="433" y="657" on="0"/>
        <pt x="367" y="657" on="1"/>
        <pt x="308" y="657" on="0"/>
        <pt x="211" y="591" on="0"/>
        <pt x="156" y="461" on="0"/>
        <pt x="156" y="366" on="1"/>
        <pt x="156" y="274" on="0"/>
        <pt x="210" y="143" on="0"/>
        <pt x="308" y="73" on="0"/>
        <pt x="371" y="73" on="1"/>
        <pt x="436" y="73" on="0"/>
        <pt x="526" y="134" on="0"/>
        <pt x="549" y="185" on="1"/>
        <pt x="632" y="152" on="1"/>
        <pt x="595" y="71" on="0"/>
        <pt x="454" y="-13" on="0"/>
      </contour>
      <contour>
        <pt x="305" y="813" on="1"/>
        <pt x="309" y="816" on="0"/>
        <pt x="338" y="849" on="0"/>
        <pt x="375" y="891" on="0"/>
        <pt x="408" y="926" on="0"/>
        <pt x="413" y="931" on="1"/>
        <pt x="427" y="944" on="0"/>
        <pt x="443" y="944" on="1"/>
        <pt x="458" y="944" on="0"/>
        <pt x="480" y="921" on="0"/>
        <pt x="480" y="905" on="1"/>
        <pt x="480" y="884" on="0"/>
        <pt x="463" y="870" on="1"/>
        <pt x="455" y="862" on="0"/>
        <pt x="418" y="836" on="0"/>
        <pt x="386" y="815" on="0"/>
        <pt x="382" y="813" on="1"/>
      </contour>
    </TTGlyph>
    <TTGlyph name="Ccaron" xMin="58" yMin="-13" xMax="632" yMax="941">
      <contour>
        <pt x="364" y="-13" on="1"/>
        <pt x="268" y="-13" on="0"/>
        <pt x="131" y="84" on="0"/>
        <pt x="58" y="255" on="0"/>
        <pt x="58" y="366" on="1"/>
        <pt x="58" y="480" on="0"/>
        <pt x="136" y="649" on="0"/>
        <pt x="278" y="743" on="0"/>
        <pt x="372" y="743" on="1"/>
        <pt x="457" y="743" on="0"/>
        <pt x="593" y="658" on="0"/>
        <pt x="627" y="578" on="1"/>
        <pt x="545" y="545" on="1"/>
        <pt x="523" y="594" on="0"/>
        <pt x="433" y="657" on="0"/>
        <pt x="367" y="657" on="1"/>
        <pt x="308" y="657" on="0"/>
        <pt x="211" y="591" on="0"/>
        <pt x="156" y="461" on="0"/>
        <pt x="156" y="366" on="1"/>
        <pt x="156" y="274" on="0"/>
        <pt x="210" y="143" on="0"/>
        <pt x="308" y="73" on="0"/>
        <pt x="371" y="73" on="1"/>
        <pt x="436" y="73" on="0"/>
        <pt x="526" y="134" on="0"/>
        <pt x="549" y="185" on="1"/>
        <pt x="632" y="152" on="1"/>
        <pt x="595" y="71" on="0"/>
        <pt x="454" y="-13" on="0"/>
      </contour>
      <contour>
        <pt x="364" y="810" on="1"/>
        <pt x="334" y="810" on="0"/>
        <pt x="314" y="831" on="1"/>
        <pt x="201" y="941" on="1"/>
        <pt x="296" y="941" on="1"/>
        <pt x="363" y="874" on="1"/>
        <pt x="432" y="941" on="1"/>
        <pt x="527" y="941" on="1"/>
        <pt x="413" y="831" on="1"/>
        <pt x="393" y="810" on="0"/>
      </contour>
    </TTGlyph>
    <TTGlyph name="Ccedilla" xMin="58" yMin="-200" xMax="632" yMax="752">
      <contour>
        <pt x="364" y="-13" on="1"/>
        <pt x="268" y="-13" on="0"/>
        <pt x="131" y="85" on="0"/>
        <pt x="58" y="258" on="0"/>
        <pt x="58" y="370" on="1"/>
        <pt x="58" y="486" on="0"/>
        <pt x="136" y="657" on="0"/>
        <pt x="278" y="752" on="0"/>
        <pt x="372" y="752" on="1"/>
        <pt x="457" y="752" on="0"/>
        <pt x="593" y="666" on="0"/>
        <pt x="627" y="585" on="1"/>
        <pt x="545" y="552" on="1"/>
        <pt x="523" y="601" on="0"/>
        <pt x="433" y="665" on="0"/>
        <pt x="367" y="665" on="1"/>
        <pt x="308" y="665" on="0"/>
        <pt x="211" y="598" on="0"/>
        <pt x="156" y="467" on="0"/>
        <pt x="156" y="370" on="1"/>
        <pt x="156" y="277" on="0"/>
        <pt x="210" y="145" on="0"/>
        <pt x="308" y="74" on="0"/>
        <pt x="371" y="74" on="1"/>
        <pt x="436" y="74" on="0"/>
        <pt x="526" y="136" on="0"/>
        <pt x="549" y="187" on="1"/>
        <pt x="632" y="154" on="1"/>
        <pt x="595" y="72" on="0"/>
        <pt x="454" y="-13" on="0"/>
      </contour>
      <contour>
        <pt x="358" y="-200" on="1"/>
        <pt x="339" y="-200" on="0"/>
        <pt x="296" y="-189" on="0"/>
        <pt x="269" y="-178" on="1"/>
        <pt x="283" y="-140" on="1"/>
        <pt x="300" y="-147" on="0"/>
        <pt x="330" y="-155" on="0"/>
        <pt x="342" y="-155" on="1"/>
        <pt x="369" y="-155" on="0"/>
        <pt x="393" y="-131" on="0"/>
        <pt x="393" y="-117" on="1"/>
        <pt x="393" y="-106" on="0"/>
        <pt x="376" y="-90" on="0"/>
        <pt x="357" y="-90" on="1"/>
        <pt x="350" y="-90" on="0"/>
        <pt x="335" y="-93" on="0"/>
        <pt x="326" y="-95" on="1"/>
        <pt x="313" y="-99" on="0"/>
        <pt x="298" y="-84" on="0"/>
        <pt x="298" y="-74" on="1"/>
        <pt x="298" y="-68" on="0"/>
        <pt x="300" y="-63" on="1"/>
        <pt x="352" y="27" on="1"/>
        <pt x="387" y="4" on="1"/>
        <pt x="356" y="-50" on="1"/>
        <pt x="364" y="-48" on="0"/>
        <pt x="379" y="-46" on="0"/>
        <pt x="387" y="-46" on="1"/>
        <pt x="422" y="-46" on="0"/>
        <pt x="456" y="-86" on="0"/>
        <pt x="456" y="-112" on="1"/>
        <pt x="456" y="-144" on="0"/>
        <pt x="408" y="-200" on="0"/>
      </contour>
    </TTGlyph>
    <TTGlyph name="Ccircumflex" xMin="58" yMin="-13" xMax="632" yMax="950">
      <component glyphName="C" x="0" y="0" flags="0x204"/>
      <component glyphName="uni0302.case" x="110" y="0" flags="0x4"/>
    </TTGlyph>
    <TTGlyph name="Cdotaccent" xMin="58" yMin="-13" xMax="632" yMax="951">
      <contour>
        <pt x="364" y="-13" on="1"/>
        <pt x="268" y="-13" on="0"/>
        <pt x="131" y="84" on="0"/>
        <pt x="58" y="255" on="0"/>
        <pt x="58" y="366" on="1"/>
        <pt x="58" y="480" on="0"/>
        <pt x="136" y="649" on="0"/>
        <pt x="278" y="743" on="0"/>
        <pt x="372" y="743" on="1"/>
        <pt x="457" y="743" on="0"/>
        <pt x="593" y="658" on="0"/>
        <pt x="627" y="578" on="1"/>
        <pt x="545" y="545" on="1"/>
        <pt x="523" y="594" on="0"/>
        <pt x="433" y="657" on="0"/>
        <pt x="367" y="657" on="1"/>
        <pt x="308" y="657" on="0"/>
        <pt x="211" y="591" on="0"/>
        <pt x="156" y="461" on="0"/>
        <pt x="156" y="366" on="1"/>
        <pt x="156" y="274" on="0"/>
        <pt x="210" y="143" on="0"/>
        <pt x="308" y="73" on="0"/>
        <pt x="371" y="73" on="1"/>
        <pt x="436" y="73" on="0"/>
        <pt x="526" y="134" on="0"/>
        <pt x="549" y="185" on="1"/>
        <pt x="632" y="152" on="1"/>
        <pt x="595" y="71" on="0"/>
        <pt x="454" y="-13" on="0"/>
      </contour>
      <contour>
        <pt x="364" y="833" on="1"/>
        <pt x="342" y="833" on="0"/>
        <pt x="310" y="868" on="0"/>
        <pt x="310" y="892" on="1"/>
        <pt x="310" y="917" on="0"/>
        <pt x="342" y="951" on="0"/>
        <pt x="364" y="951" on="1"/>
        <pt x="388" y="951" on="0"/>
        <pt x="419" y="917" on="0"/>
        <pt x="419" y="892" on="1"/>
        <pt x="419" y="868" on="0"/>
        <pt x="388" y="833" on="0"/>
      </contour>
    </TTGlyph>
    <TTGlyph name="Chi" xMin="82" yMin="0" xMax="656" yMax="739">
      <component glyphName="X" x="24" y="0" flags="0x4"/>
    </TTGlyph>
    <TTGlyph name="D" xMin="58" yMin="0" xMax="632" yMax="739">
      <contour>
        <pt x="58" y="0" on="1"/>
        <pt x="58" y="739" on="1"/>
        <pt x="249" y="739" on="1"/>
        <pt x="333" y="739" on="0"/>
        <pt x="472" y="702" on="0"/>
        <pt x="575" y="618" on="0"/>
        <pt x="632" y="476" on="0"/>
        <pt x="632" y="370" on="1"/>
        <pt x="632" y="264" on="0"/>
        <pt x="575" y="121" on="0"/>
        <pt x="472" y="36" on="0"/>
        <pt x="333" y="0" on="0"/>
        <pt x="249" y="0" on="1"/>
      </contour>
      <contour>
        <pt x="157" y="87" on="1"/>
        <pt x="247" y="87" on="1"/>
        <pt x="301" y="87" on="0"/>
        <pt x="403" y="106" on="0"/>
        <pt x="484" y="163" on="0"/>
        <pt x="531" y="276" on="0"/>
        <pt x="531" y="370" on="1"/>
        <pt x="531" y="465" on="0"/>
        <pt x="484" y="576" on="0"/>
        <pt x="403" y="633" on="0"/>
        <pt x="301" y="652" on="0"/>
        <pt x="247" y="652" on="1"/>
        <pt x="157" y="652" on="1"/>
      </contour>
    </TTGlyph>
    <TTGlyph name="Dcaron" xMin="58" yMin="0" xMax="632" yMax="941">
      <contour>
        <pt x="58" y="0" on="1"/>
        <pt x="58" y="730" on="1"/>
        <pt x="249" y="730" on="1"/>
        <pt x="333" y="730" on="0"/>
        <pt x="472" y="694" on="0"/>
        <pt x="575" y="611" on="0"/>
        <pt x="632" y="470" on="0"/>
        <pt x="632" y="366" on="1"/>
        <pt x="632" y="261" on="0"/>
        <pt x="575" y="120" on="0"/>
        <pt x="472" y="36" on="0"/>
        <pt x="333" y="0" on="0"/>
        <pt x="249" y="0" on="1"/>
      </contour>
      <contour>
        <pt x="157" y="86" on="1"/>
        <pt x="247" y="86" on="1"/>
        <pt x="301" y="86" on="0"/>
        <pt x="403" y="105" on="0"/>
        <pt x="484" y="161" on="0"/>
        <pt x="531" y="273" on="0"/>
        <pt x="531" y="366" on="1"/>
        <pt x="531" y="459" on="0"/>
        <pt x="484" y="569" on="0"/>
        <pt x="403" y="625" on="0"/>
        <pt x="301" y="644" on="0"/>
        <pt x="247" y="644" on="1"/>
        <pt x="157" y="644" on="1"/>
      </contour>
      <contour>
        <pt x="321" y="810" on="1"/>
        <pt x="290" y="810" on="0"/>
        <pt x="269" y="831" on="1"/>
        <pt x="151" y="941" on="1"/>
        <pt x="250" y="941" on="1"/>
        <pt x="320" y="874" on="1"/>
        <pt x="392" y="941" on="1"/>
        <pt x="491" y="941" on="1"/>
        <pt x="373" y="831" on="1"/>
        <pt x="351" y="810" on="0"/>
      </contour>
    </TTGlyph>
    <TTGlyph name="Dcroat" xMin="58" yMin="0" xMax="632" yMax="739">
      <contour>
        <pt x="143" y="0" on="1"/>
        <pt x="143" y="335" on="1"/>
        <pt x="58" y="335" on="1"/>
        <pt x="58" y="424" on="1"/>
        <pt x="143" y="424" on="1"/>
        <pt x="143" y="739" on="1"/>
        <pt x="305" y="739" on="1"/>
        <pt x="377" y="739" on="0"/>
        <pt x="496" y="702" on="0"/>
        <pt x="584" y="618" on="0"/>
        <pt x="632" y="476" on="0"/>
        <pt x="632" y="370" on="1"/>
        <pt x="632" y="264" on="0"/>
        <pt x="584" y="121" on="0"/>
        <pt x="496" y="36" on="0"/>
        <pt x="377" y="0" on="0"/>
        <pt x="305" y="0" on="1"/>
      </contour>
      <contour>
        <pt x="227" y="87" on="1"/>
        <pt x="304" y="87" on="1"/>
        <pt x="350" y="87" on="0"/>
        <pt x="437" y="106" on="0"/>
        <pt x="506" y="163" on="0"/>
        <pt x="546" y="276" on="0"/>
        <pt x="546" y="370" on="1"/>
        <pt x="546" y="465" on="0"/>
        <pt x="506" y="576" on="0"/>
        <pt x="437" y="633" on="0"/>
        <pt x="350" y="652" on="0"/>
        <pt x="304" y="652" on="1"/>
        <pt x="227" y="652" on="1"/>
        <pt x="227" y="424" on="1"/>
        <pt x="352" y="424" on="1"/>
        <pt x="352" y="335" on="1"/>
        <pt x="227" y="335" on="1"/>
      </contour>
    </TTGlyph>
    <TTGlyph name="E" xMin="58" yMin="0" xMax="543" yMax="739">
      <contour>
        <pt x="58" y="0" on="1"/>
        <pt x="58" y="739" on="1"/>
        <pt x="543" y="739" on="1"/>
        <pt x="543" y="649" on="1"/>
        <pt x="159" y="649" on="1"/>
        <pt x="159" y="425" on="1"/>
        <pt x="442" y="425" on="1"/>
        <pt x="442" y="335" on="1"/>
        <pt x="159" y="335" on="1"/>
        <pt x="159" y="90" on="1"/>
        <pt x="543" y="90" on="1"/>
        <pt x="543" y="0" on="1"/>
      </contour>
    </TTGlyph>
    <TTGlyph name="Eacute" xMin="58" yMin="0" xMax="543" yMax="944">
      <contour>
        <pt x="58" y="0" on="1"/>
        <pt x="58" y="730" on="1"/>
        <pt x="543" y="730" on="1"/>
        <pt x="543" y="641" on="1"/>
        <pt x="159" y="641" on="1"/>
        <pt x="159" y="420" on="1"/>
        <pt x="442" y="420" on="1"/>
        <pt x="442" y="331" on="1"/>
        <pt x="159" y="331" on="1"/>
        <pt x="159" y="89" on="1"/>
        <pt x="543" y="89" on="1"/>
        <pt x="543" y="0" on="1"/>
      </contour>
      <contour>
        <pt x="240" y="813" on="1"/>
        <pt x="243" y="816" on="0"/>
        <pt x="274" y="849" on="0"/>
        <pt x="314" y="891" on="0"/>
        <pt x="348" y="926" on="0"/>
        <pt x="355" y="931" on="1"/>
        <pt x="370" y="944" on="0"/>
        <pt x="386" y="944" on="1"/>
        <pt x="402" y="944" on="0"/>
        <pt x="424" y="921" on="0"/>
        <pt x="424" y="905" on="1"/>
        <pt x="424" y="884" on="0"/>
        <pt x="407" y="870" on="1"/>
        <pt x="398" y="862" on="0"/>
        <pt x="359" y="836" on="0"/>
        <pt x="325" y="815" on="0"/>
        <pt x="321" y="813" on="1"/>
      </contour>
    </TTGlyph>
    <TTGlyph name="Ebreve" xMin="58" yMin="0" xMax="543" yMax="950">
      <component glyphName="E" x="0" y="0" flags="0x204"/>
      <component glyphName="uni0306.case" x="102" y="0" flags="0x4"/>
    </TTGlyph>
    <TTGlyph name="Ecaron" xMin="58" yMin="0" xMax="543" yMax="941">
      <contour>
        <pt x="58" y="0" on="1"/>
        <pt x="58" y="730" on="1"/>
        <pt x="543" y="730" on="1"/>
        <pt x="543" y="641" on="1"/>
        <pt x="159" y="641" on="1"/>
        <pt x="159" y="420" on="1"/>
        <pt x="442" y="420" on="1"/>
        <pt x="442" y="331" on="1"/>
        <pt x="159" y="331" on="1"/>
        <pt x="159" y="89" on="1"/>
        <pt x="543" y="89" on="1"/>
        <pt x="543" y="0" on="1"/>
      </contour>
      <contour>
        <pt x="302" y="810" on="1"/>
        <pt x="270" y="810" on="0"/>
        <pt x="249" y="831" on="1"/>
        <pt x="129" y="941" on="1"/>
        <pt x="229" y="941" on="1"/>
        <pt x="301" y="874" on="1"/>
        <pt x="374" y="941" on="1"/>
        <pt x="474" y="941" on="1"/>
        <pt x="355" y="831" on="1"/>
        <pt x="333" y="810" on="0"/>
      </contour>
    </TTGlyph>
    <TTGlyph name="Ecircumflex" xMin="58" yMin="0" xMax="543" yMax="947">
      <contour>
        <pt x="58" y="0" on="1"/>
        <pt x="58" y="730" on="1"/>
        <pt x="543" y="730" on="1"/>
        <pt x="543" y="641" on="1"/>
        <pt x="159" y="641" on="1"/>
        <pt x="159" y="420" on="1"/>
        <pt x="442" y="420" on="1"/>
        <pt x="442" y="331" on="1"/>
        <pt x="159" y="331" on="1"/>
        <pt x="159" y="89" on="1"/>
        <pt x="543" y="89" on="1"/>
        <pt x="543" y="0" on="1"/>
      </contour>
      <contour>
        <pt x="129" y="816" on="1"/>
        <pt x="249" y="927" on="1"/>
        <pt x="270" y="947" on="0"/>
        <pt x="302" y="947" on="1"/>
        <pt x="333" y="947" on="0"/>
        <pt x="355" y="927" on="1"/>
        <pt x="474" y="816" on="1"/>
        <pt x="374" y="816" on="1"/>
        <pt x="301" y="883" on="1"/>
        <pt x="229" y="816" on="1"/>
      </contour>
    </TTGlyph>
    <TTGlyph name="Edieresis" xMin="58" yMin="0" xMax="543" yMax="926">
      <contour>
        <pt x="58" y="0" on="1"/>
        <pt x="58" y="730" on="1"/>
        <pt x="543" y="730" on="1"/>
        <pt x="543" y="641" on="1"/>
        <pt x="159" y="641" on="1"/>
        <pt x="159" y="420" on="1"/>
        <pt x="442" y="420" on="1"/>
        <pt x="442" y="331" on="1"/>
        <pt x="159" y="331" on="1"/>
        <pt x="159" y="89" on="1"/>
        <pt x="543" y="89" on="1"/>
        <pt x="543" y="0" on="1"/>
      </contour>
      <contour>
        <pt x="189" y="809" on="1"/>
        <pt x="165" y="809" on="0"/>
        <pt x="131" y="844" on="0"/>
        <pt x="131" y="868" on="1"/>
        <pt x="131" y="892" on="0"/>
        <pt x="165" y="926" on="0"/>
        <pt x="189" y="926" on="1"/>
        <pt x="213" y="926" on="0"/>
        <pt x="247" y="892" on="0"/>
        <pt x="247" y="868" on="1"/>
        <pt x="247" y="844" on="0"/>
        <pt x="213" y="809" on="0"/>
      </contour>
      <contour>
        <pt x="414" y="809" on="1"/>
        <pt x="391" y="809" on="0"/>
        <pt x="358" y="844" on="0"/>
        <pt x="358" y="868" on="1"/>
        <pt x="358" y="892" on="0"/>
        <pt x="391" y="926" on="0"/>
        <pt x="414" y="926" on="1"/>
        <pt x="439" y="926" on="0"/>
        <pt x="472" y="892" on="0"/>
        <pt x="472" y="868" on="1"/>
        <pt x="472" y="844" on="0"/>
        <pt x="439" y="809" on="0"/>
      </contour>
    </TTGlyph>
    <TTGlyph name="Edotaccent" xMin="58" yMin="0" xMax="543" yMax="951">
      <contour>
        <pt x="58" y="0" on="1"/>
        <pt x="58" y="730" on="1"/>
        <pt x="543" y="730" on="1"/>
        <pt x="543" y="641" on="1"/>
        <pt x="159" y="641" on="1"/>
        <pt x="159" y="420" on="1"/>
        <pt x="442" y="420" on="1"/>
        <pt x="442" y="331" on="1"/>
        <pt x="159" y="331" on="1"/>
        <pt x="159" y="89" on="1"/>
        <pt x="543" y="89" on="1"/>
        <pt x="543" y="0" on="1"/>
      </contour>
      <contour>
        <pt x="302" y="833" on="1"/>
        <pt x="279" y="833" on="0"/>
        <pt x="244" y="868" on="0"/>
        <pt x="244" y="892" on="1"/>
        <pt x="244" y="917" on="0"/>
        <pt x="279" y="951" on="0"/>
        <pt x="302" y="951" on="1"/>
        <pt x="327" y="951" on="0"/>
        <pt x="360" y="917" on="0"/>
        <pt x="360" y="892" on="1"/>
        <pt x="360" y="868" on="0"/>
        <pt x="327" y="833" on="0"/>
      </contour>
    </TTGlyph>
    <TTGlyph name="Egrave" xMin="58" yMin="0" xMax="543" yMax="944">
      <contour>
        <pt x="58" y="0" on="1"/>
        <pt x="58" y="730" on="1"/>
        <pt x="543" y="730" on="1"/>
        <pt x="543" y="641" on="1"/>
        <pt x="159" y="641" on="1"/>
        <pt x="159" y="420" on="1"/>
        <pt x="442" y="420" on="1"/>
        <pt x="442" y="331" on="1"/>
        <pt x="159" y="331" on="1"/>
        <pt x="159" y="89" on="1"/>
        <pt x="543" y="89" on="1"/>
        <pt x="543" y="0" on="1"/>
      </contour>
      <contour>
        <pt x="275" y="813" on="1"/>
        <pt x="272" y="815" on="0"/>
        <pt x="238" y="836" on="0"/>
        <pt x="198" y="862" on="0"/>
        <pt x="189" y="870" on="1"/>
        <pt x="172" y="885" on="0"/>
        <pt x="172" y="905" on="1"/>
        <pt x="172" y="921" on="0"/>
        <pt x="194" y="944" on="0"/>
        <pt x="210" y="944" on="1"/>
        <pt x="219" y="944" on="0"/>
        <pt x="236" y="939" on="0"/>
        <pt x="243" y="930" on="1"/>
        <pt x="357" y="813" on="1"/>
      </contour>
    </TTGlyph>
    <TTGlyph name="Emacron" xMin="58" yMin="0" xMax="543" yMax="906">
      <contour>
        <pt x="58" y="0" on="1"/>
        <pt x="58" y="730" on="1"/>
        <pt x="543" y="730" on="1"/>
        <pt x="543" y="641" on="1"/>
        <pt x="159" y="641" on="1"/>
        <pt x="159" y="420" on="1"/>
        <pt x="442" y="420" on="1"/>
        <pt x="442" y="331" on="1"/>
        <pt x="159" y="331" on="1"/>
        <pt x="159" y="89" on="1"/>
        <pt x="543" y="89" on="1"/>
        <pt x="543" y="0" on="1"/>
      </contour>
      <contour>
        <pt x="154" y="833" on="1"/>
        <pt x="154" y="906" on="1"/>
        <pt x="450" y="906" on="1"/>
        <pt x="450" y="833" on="1"/>
      </contour>
    </TTGlyph>
    <TTGlyph name="Eng" xMin="57" yMin="-182" xMax="507" yMax="739">
      <contour>
        <pt x="218" y="-182" on="1"/>
        <pt x="218" y="-99" on="1"/>
        <pt x="287" y="-99" on="1"/>
        <pt x="344" y="-99" on="0"/>
        <pt x="410" y="-37" on="0"/>
        <pt x="410" y="15" on="1"/>
        <pt x="141" y="633" on="1"/>
        <pt x="143" y="608" on="0"/>
        <pt x="147" y="534" on="0"/>
        <pt x="150" y="452" on="0"/>
        <pt x="150" y="415" on="1"/>
        <pt x="150" y="0" on="1"/>
        <pt x="57" y="0" on="1"/>
        <pt x="57" y="739" on="1"/>
        <pt x="186" y="739" on="1"/>
        <pt x="424" y="183" on="1"/>
        <pt x="422" y="208" on="0"/>
        <pt x="417" y="282" on="0"/>
        <pt x="414" y="365" on="0"/>
        <pt x="414" y="402" on="1"/>
        <pt x="414" y="739" on="1"/>
        <pt x="507" y="739" on="1"/>
        <pt x="507" y="15" on="1"/>
        <pt x="507" y="-74" on="0"/>
        <pt x="387" y="-182" on="0"/>
        <pt x="287" y="-182" on="1"/>
      </contour>
    </TTGlyph>
    <TTGlyph name="Eogonek" xMin="58" yMin="-191" xMax="543" yMax="739">
      <contour>
        <pt x="58" y="0" on="1"/>
        <pt x="58" y="739" on="1"/>
        <pt x="543" y="739" on="1"/>
        <pt x="543" y="649" on="1"/>
        <pt x="159" y="649" on="1"/>
        <pt x="159" y="425" on="1"/>
        <pt x="442" y="425" on="1"/>
        <pt x="442" y="335" on="1"/>
        <pt x="159" y="335" on="1"/>
        <pt x="159" y="90" on="1"/>
        <pt x="543" y="90" on="1"/>
        <pt x="543" y="0" on="1"/>
      </contour>
      <contour>
        <pt x="451" y="-191" on="1"/>
        <pt x="403" y="-191" on="0"/>
        <pt x="350" y="-136" on="0"/>
        <pt x="350" y="-100" on="1"/>
        <pt x="350" y="-61" on="0"/>
        <pt x="391" y="-11" on="0"/>
        <pt x="411" y="0" on="1"/>
        <pt x="518" y="0" on="1"/>
        <pt x="473" y="-16" on="0"/>
        <pt x="425" y="-53" on="0"/>
        <pt x="425" y="-82" on="1"/>
        <pt x="425" y="-105" on="0"/>
        <pt x="455" y="-128" on="0"/>
        <pt x="478" y="-128" on="1"/>
        <pt x="487" y="-128" on="0"/>
        <pt x="508" y="-122" on="0"/>
        <pt x="518" y="-118" on="1"/>
        <pt x="518" y="-178" on="1"/>
        <pt x="482" y="-191" on="0"/>
      </contour>
    </TTGlyph>
    <TTGlyph name="Epsilon" xMin="44" yMin="0" xMax="529" yMax="739">
      <component glyphName="E" x="-14" y="0" flags="0x4"/>
    </TTGlyph>
    <TTGlyph name="Epsilontonos" xMin="-116" yMin="0" xMax="543" yMax="739">
      <component glyphName="E" x="0" y="0" flags="0x204"/>
      <component glyphName="tonos.case" x="-218" y="0" flags="0x4"/>
    </TTGlyph>
    <TTGlyph name="Eta" xMin="82" yMin="0" xMax="656" yMax="739">
      <component glyphName="H" x="24" y="0" flags="0x4"/>
    </TTGlyph>
    <TTGlyph name="Etatonos" xMin="-72" yMin="0" xMax="632" yMax="739">
      <component glyphName="tonos.case" x="-174" y="0" flags="0x4"/>
      <component glyphName="H" x="0" y="0" flags="0x204"/>
    </TTGlyph>
    <TTGlyph name="Eth" xMin="58" yMin="0" xMax="632" yMax="739">
      <contour>
        <pt x="143" y="0" on="1"/>
        <pt x="143" y="335" on="1"/>
        <pt x="58" y="335" on="1"/>
        <pt x="58" y="424" on="1"/>
        <pt x="143" y="424" on="1"/>
        <pt x="143" y="739" on="1"/>
        <pt x="305" y="739" on="1"/>
        <pt x="377" y="739" on="0"/>
        <pt x="496" y="702" on="0"/>
        <pt x="584" y="618" on="0"/>
        <pt x="632" y="476" on="0"/>
        <pt x="632" y="370" on="1"/>
        <pt x="632" y="264" on="0"/>
        <pt x="584" y="121" on="0"/>
        <pt x="496" y="36" on="0"/>
        <pt x="377" y="0" on="0"/>
        <pt x="305" y="0" on="1"/>
      </contour>
      <contour>
        <pt x="227" y="87" on="1"/>
        <pt x="304" y="87" on="1"/>
        <pt x="350" y="87" on="0"/>
        <pt x="437" y="106" on="0"/>
        <pt x="506" y="163" on="0"/>
        <pt x="546" y="276" on="0"/>
        <pt x="546" y="370" on="1"/>
        <pt x="546" y="465" on="0"/>
        <pt x="506" y="576" on="0"/>
        <pt x="437" y="633" on="0"/>
        <pt x="350" y="652" on="0"/>
        <pt x="304" y="652" on="1"/>
        <pt x="227" y="652" on="1"/>
        <pt x="227" y="424" on="1"/>
        <pt x="352" y="424" on="1"/>
        <pt x="352" y="335" on="1"/>
        <pt x="227" y="335" on="1"/>
      </contour>
    </TTGlyph>
    <TTGlyph name="Euro" xMin="46" yMin="-10" xMax="582" yMax="730">
      <contour>
        <pt x="356" y="-10" on="1"/>
        <pt x="252" y="-10" on="0"/>
        <pt x="129" y="107" on="0"/>
        <pt x="129" y="205" on="1"/>
        <pt x="129" y="245" on="1"/>
        <pt x="46" y="245" on="1"/>
        <pt x="46" y="310" on="1"/>
        <pt x="129" y="310" on="1"/>
        <pt x="129" y="410" on="1"/>
        <pt x="46" y="410" on="1"/>
        <pt x="46" y="475" on="1"/>
        <pt x="129" y="475" on="1"/>
        <pt x="129" y="515" on="1"/>
        <pt x="129" y="613" on="0"/>
        <pt x="252" y="730" on="0"/>
        <pt x="356" y="730" on="1"/>
        <pt x="451" y="730" on="0"/>
        <pt x="572" y="627" on="0"/>
        <pt x="582" y="535" on="1"/>
        <pt x="490" y="535" on="1"/>
        <pt x="483" y="589" on="0"/>
        <pt x="412" y="650" on="0"/>
        <pt x="356" y="650" on="1"/>
        <pt x="294" y="650" on="0"/>
        <pt x="222" y="578" on="0"/>
        <pt x="222" y="515" on="1"/>
        <pt x="222" y="475" on="1"/>
        <pt x="392" y="475" on="1"/>
        <pt x="392" y="410" on="1"/>
        <pt x="222" y="410" on="1"/>
        <pt x="222" y="310" on="1"/>
        <pt x="392" y="310" on="1"/>
        <pt x="392" y="245" on="1"/>
        <pt x="222" y="245" on="1"/>
        <pt x="222" y="205" on="1"/>
        <pt x="222" y="142" on="0"/>
        <pt x="293" y="70" on="0"/>
        <pt x="356" y="70" on="1"/>
        <pt x="412" y="70" on="0"/>
        <pt x="483" y="131" on="0"/>
        <pt x="490" y="185" on="1"/>
        <pt x="582" y="185" on="1"/>
        <pt x="572" y="94" on="0"/>
        <pt x="451" y="-10" on="0"/>
      </contour>
    </TTGlyph>
    <TTGlyph name="F" xMin="58" yMin="0" xMax="522" yMax="739">
      <contour>
        <pt x="58" y="0" on="1"/>
        <pt x="58" y="739" on="1"/>
        <pt x="522" y="739" on="1"/>
        <pt x="522" y="649" on="1"/>
        <pt x="158" y="649" on="1"/>
        <pt x="158" y="425" on="1"/>
        <pt x="522" y="425" on="1"/>
        <pt x="522" y="335" on="1"/>
        <pt x="158" y="335" on="1"/>
        <pt x="158" y="0" on="1"/>
      </contour>
    </TTGlyph>
    <TTGlyph name="G" xMin="58" yMin="-13" xMax="632" yMax="752">
      <contour>
        <pt x="350" y="-13" on="1"/>
        <pt x="258" y="-13" on="0"/>
        <pt x="127" y="85" on="0"/>
        <pt x="58" y="258" on="0"/>
        <pt x="58" y="370" on="1"/>
        <pt x="58" y="486" on="0"/>
        <pt x="133" y="657" on="0"/>
        <pt x="268" y="752" on="0"/>
        <pt x="360" y="752" on="1"/>
        <pt x="441" y="752" on="0"/>
        <pt x="572" y="666" on="0"/>
        <pt x="606" y="585" on="1"/>
        <pt x="525" y="552" on="1"/>
        <pt x="503" y="601" on="0"/>
        <pt x="418" y="665" on="0"/>
        <pt x="355" y="665" on="1"/>
        <pt x="298" y="665" on="0"/>
        <pt x="206" y="598" on="0"/>
        <pt x="151" y="467" on="0"/>
        <pt x="151" y="370" on="1"/>
        <pt x="151" y="277" on="0"/>
        <pt x="203" y="145" on="0"/>
        <pt x="295" y="74" on="0"/>
        <pt x="355" y="74" on="1"/>
        <pt x="387" y="74" on="0"/>
        <pt x="454" y="92" on="0"/>
        <pt x="511" y="135" on="0"/>
        <pt x="545" y="210" on="0"/>
        <pt x="545" y="267" on="1"/>
        <pt x="545" y="292" on="1"/>
        <pt x="357" y="292" on="1"/>
        <pt x="357" y="382" on="1"/>
        <pt x="632" y="382" on="1"/>
        <pt x="632" y="0" on="1"/>
        <pt x="579" y="0" on="1"/>
        <pt x="555" y="93" on="1"/>
        <pt x="525" y="36" on="0"/>
        <pt x="417" y="-13" on="0"/>
      </contour>
    </TTGlyph>
    <TTGlyph name="Gamma" xMin="0" yMin="0" xMax="455" yMax="739">
      <component glyphName="uni0413" x="-58" y="0" flags="0x4"/>
    </TTGlyph>
    <TTGlyph name="Gbreve" xMin="58" yMin="-13" xMax="632" yMax="941">
      <contour>
        <pt x="350" y="-13" on="1"/>
        <pt x="258" y="-13" on="0"/>
        <pt x="127" y="84" on="0"/>
        <pt x="58" y="255" on="0"/>
        <pt x="58" y="366" on="1"/>
        <pt x="58" y="480" on="0"/>
        <pt x="133" y="649" on="0"/>
        <pt x="268" y="743" on="0"/>
        <pt x="360" y="743" on="1"/>
        <pt x="441" y="743" on="0"/>
        <pt x="572" y="658" on="0"/>
        <pt x="606" y="578" on="1"/>
        <pt x="525" y="545" on="1"/>
        <pt x="503" y="594" on="0"/>
        <pt x="418" y="657" on="0"/>
        <pt x="355" y="657" on="1"/>
        <pt x="298" y="657" on="0"/>
        <pt x="206" y="591" on="0"/>
        <pt x="151" y="461" on="0"/>
        <pt x="151" y="366" on="1"/>
        <pt x="151" y="274" on="0"/>
        <pt x="203" y="143" on="0"/>
        <pt x="295" y="73" on="0"/>
        <pt x="355" y="73" on="1"/>
        <pt x="387" y="73" on="0"/>
        <pt x="454" y="91" on="0"/>
        <pt x="511" y="133" on="0"/>
        <pt x="545" y="208" on="0"/>
        <pt x="545" y="264" on="1"/>
        <pt x="545" y="289" on="1"/>
        <pt x="357" y="289" on="1"/>
        <pt x="357" y="377" on="1"/>
        <pt x="632" y="377" on="1"/>
        <pt x="632" y="0" on="1"/>
        <pt x="579" y="0" on="1"/>
        <pt x="555" y="92" on="1"/>
        <pt x="525" y="36" on="0"/>
        <pt x="417" y="-13" on="0"/>
      </contour>
      <contour>
        <pt x="358" y="810" on="1"/>
        <pt x="304" y="810" on="0"/>
        <pt x="226" y="885" on="0"/>
        <pt x="216" y="941" on="1"/>
        <pt x="282" y="941" on="1"/>
        <pt x="290" y="916" on="0"/>
        <pt x="331" y="883" on="0"/>
        <pt x="358" y="883" on="1"/>
        <pt x="382" y="883" on="0"/>
        <pt x="423" y="916" on="0"/>
        <pt x="433" y="941" on="1"/>
        <pt x="500" y="941" on="1"/>
        <pt x="491" y="885" on="0"/>
        <pt x="410" y="810" on="0"/>
      </contour>
    </TTGlyph>
    <TTGlyph name="Gcaron" xMin="58" yMin="-13" xMax="632" yMax="950">
      <component glyphName="G" x="0" y="0" flags="0x204"/>
      <component glyphName="uni030C.case" x="104" y="0" flags="0x4"/>
    </TTGlyph>
    <TTGlyph name="Gcircumflex" xMin="58" yMin="-13" xMax="632" yMax="950">
      <component glyphName="G" x="0" y="0" flags="0x204"/>
      <component glyphName="uni0302.case" x="104" y="0" flags="0x4"/>
    </TTGlyph>
    <TTGlyph name="Gdotaccent" xMin="58" yMin="-13" xMax="632" yMax="951">
      <contour>
        <pt x="350" y="-13" on="1"/>
        <pt x="258" y="-13" on="0"/>
        <pt x="127" y="84" on="0"/>
        <pt x="58" y="255" on="0"/>
        <pt x="58" y="366" on="1"/>
        <pt x="58" y="480" on="0"/>
        <pt x="133" y="649" on="0"/>
        <pt x="268" y="743" on="0"/>
        <pt x="360" y="743" on="1"/>
        <pt x="441" y="743" on="0"/>
        <pt x="572" y="658" on="0"/>
        <pt x="606" y="578" on="1"/>
        <pt x="525" y="545" on="1"/>
        <pt x="503" y="594" on="0"/>
        <pt x="418" y="657" on="0"/>
        <pt x="355" y="657" on="1"/>
        <pt x="298" y="657" on="0"/>
        <pt x="206" y="591" on="0"/>
        <pt x="151" y="461" on="0"/>
        <pt x="151" y="366" on="1"/>
        <pt x="151" y="274" on="0"/>
        <pt x="203" y="143" on="0"/>
        <pt x="295" y="73" on="0"/>
        <pt x="355" y="73" on="1"/>
        <pt x="387" y="73" on="0"/>
        <pt x="454" y="91" on="0"/>
        <pt x="511" y="133" on="0"/>
        <pt x="545" y="208" on="0"/>
        <pt x="545" y="264" on="1"/>
        <pt x="545" y="289" on="1"/>
        <pt x="357" y="289" on="1"/>
        <pt x="357" y="377" on="1"/>
        <pt x="632" y="377" on="1"/>
        <pt x="632" y="0" on="1"/>
        <pt x="579" y="0" on="1"/>
        <pt x="555" y="92" on="1"/>
        <pt x="525" y="36" on="0"/>
        <pt x="417" y="-13" on="0"/>
      </contour>
      <contour>
        <pt x="358" y="833" on="1"/>
        <pt x="336" y="833" on="0"/>
        <pt x="305" y="868" on="0"/>
        <pt x="305" y="892" on="1"/>
        <pt x="305" y="917" on="0"/>
        <pt x="336" y="951" on="0"/>
        <pt x="358" y="951" on="1"/>
        <pt x="380" y="951" on="0"/>
        <pt x="410" y="917" on="0"/>
        <pt x="410" y="892" on="1"/>
        <pt x="410" y="868" on="0"/>
        <pt x="380" y="833" on="0"/>
      </contour>
    </TTGlyph>
    <TTGlyph name="H" xMin="58" yMin="0" xMax="632" yMax="739">
      <contour>
        <pt x="58" y="0" on="1"/>
        <pt x="58" y="739" on="1"/>
        <pt x="159" y="739" on="1"/>
        <pt x="159" y="425" on="1"/>
        <pt x="531" y="425" on="1"/>
        <pt x="531" y="739" on="1"/>
        <pt x="632" y="739" on="1"/>
        <pt x="632" y="0" on="1"/>
        <pt x="531" y="0" on="1"/>
        <pt x="531" y="335" on="1"/>
        <pt x="159" y="335" on="1"/>
        <pt x="159" y="0" on="1"/>
      </contour>
    </TTGlyph>
    <TTGlyph name="Hbar" xMin="58" yMin="0" xMax="632" yMax="739">
      <contour>
        <pt x="121" y="0" on="1"/>
        <pt x="121" y="558" on="1"/>
        <pt x="58" y="558" on="1"/>
        <pt x="58" y="643" on="1"/>
        <pt x="121" y="643" on="1"/>
        <pt x="121" y="739" on="1"/>
        <pt x="199" y="739" on="1"/>
        <pt x="199" y="643" on="1"/>
        <pt x="491" y="643" on="1"/>
        <pt x="491" y="739" on="1"/>
        <pt x="569" y="739" on="1"/>
        <pt x="569" y="643" on="1"/>
        <pt x="632" y="643" on="1"/>
        <pt x="632" y="558" on="1"/>
        <pt x="569" y="558" on="1"/>
        <pt x="569" y="0" on="1"/>
        <pt x="491" y="0" on="1"/>
        <pt x="491" y="335" on="1"/>
        <pt x="199" y="335" on="1"/>
        <pt x="199" y="0" on="1"/>
      </contour>
      <contour>
        <pt x="199" y="425" on="1"/>
        <pt x="491" y="425" on="1"/>
        <pt x="491" y="558" on="1"/>
        <pt x="199" y="558" on="1"/>
      </contour>
    </TTGlyph>
    <TTGlyph name="Hcircumflex" xMin="58" yMin="0" xMax="632" yMax="950">
      <component glyphName="H" x="0" y="0" flags="0x204"/>
      <component glyphName="uni0302.case" x="104" y="0" flags="0x4"/>
    </TTGlyph>
    <TTGlyph name="I" xMin="81" yMin="0" xMax="182" yMax="739">
      <contour>
        <pt x="81" y="0" on="1"/>
        <pt x="81" y="739" on="1"/>
        <pt x="182" y="739" on="1"/>
        <pt x="182" y="0" on="1"/>
      </contour>
    </TTGlyph>
    <TTGlyph name="Iacute" xMin="70" yMin="0" xMax="254" yMax="944">
      <contour>
        <pt x="81" y="0" on="1"/>
        <pt x="81" y="739" on="1"/>
        <pt x="182" y="739" on="1"/>
        <pt x="182" y="0" on="1"/>
      </contour>
      <contour>
        <pt x="70" y="813" on="1"/>
        <pt x="73" y="816" on="0"/>
        <pt x="104" y="849" on="0"/>
        <pt x="144" y="891" on="0"/>
        <pt x="178" y="926" on="0"/>
        <pt x="184" y="931" on="1"/>
        <pt x="199" y="944" on="0"/>
        <pt x="215" y="944" on="1"/>
        <pt x="232" y="944" on="0"/>
        <pt x="254" y="921" on="0"/>
        <pt x="254" y="905" on="1"/>
        <pt x="254" y="884" on="0"/>
        <pt x="237" y="870" on="1"/>
        <pt x="228" y="862" on="0"/>
        <pt x="189" y="836" on="0"/>
        <pt x="154" y="815" on="0"/>
        <pt x="151" y="813" on="1"/>
      </contour>
    </TTGlyph>
    <TTGlyph name="Ibreve" xMin="-36" yMin="0" xMax="290" yMax="950">
      <component glyphName="I" x="0" y="0" flags="0x204"/>
      <component glyphName="uni0306.case" x="-86" y="0" flags="0x4"/>
    </TTGlyph>
    <TTGlyph name="Icircumflex" xMin="-42" yMin="0" xMax="303" yMax="947">
      <contour>
        <pt x="81" y="0" on="1"/>
        <pt x="81" y="739" on="1"/>
        <pt x="182" y="739" on="1"/>
        <pt x="182" y="0" on="1"/>
      </contour>
      <contour>
        <pt x="-42" y="816" on="1"/>
        <pt x="78" y="927" on="1"/>
        <pt x="99" y="947" on="0"/>
        <pt x="131" y="947" on="1"/>
        <pt x="162" y="947" on="0"/>
        <pt x="184" y="927" on="1"/>
        <pt x="303" y="816" on="1"/>
        <pt x="203" y="816" on="1"/>
        <pt x="130" y="883" on="1"/>
        <pt x="58" y="816" on="1"/>
      </contour>
    </TTGlyph>
    <TTGlyph name="Idieresis" xMin="-40" yMin="0" xMax="301" yMax="926">
      <contour>
        <pt x="81" y="0" on="1"/>
        <pt x="81" y="739" on="1"/>
        <pt x="182" y="739" on="1"/>
        <pt x="182" y="0" on="1"/>
      </contour>
      <contour>
        <pt x="18" y="809" on="1"/>
        <pt x="-6" y="809" on="0"/>
        <pt x="-40" y="844" on="0"/>
        <pt x="-40" y="868" on="1"/>
        <pt x="-40" y="892" on="0"/>
        <pt x="-6" y="926" on="0"/>
        <pt x="18" y="926" on="1"/>
        <pt x="42" y="926" on="0"/>
        <pt x="75" y="892" on="0"/>
        <pt x="75" y="868" on="1"/>
        <pt x="75" y="844" on="0"/>
        <pt x="42" y="809" on="0"/>
      </contour>
      <contour>
        <pt x="243" y="809" on="1"/>
        <pt x="220" y="809" on="0"/>
        <pt x="187" y="844" on="0"/>
        <pt x="187" y="868" on="1"/>
        <pt x="187" y="892" on="0"/>
        <pt x="220" y="926" on="0"/>
        <pt x="243" y="926" on="1"/>
        <pt x="268" y="926" on="0"/>
        <pt x="301" y="892" on="0"/>
        <pt x="301" y="868" on="1"/>
        <pt x="301" y="844" on="0"/>
        <pt x="268" y="809" on="0"/>
      </contour>
    </TTGlyph>
    <TTGlyph name="Idotaccent" xMin="55" yMin="0" xMax="199" yMax="944">
      <component glyphName="I" x="0" y="0" flags="0x204"/>
      <component glyphName="uni0307.case" x="-50" y="0" flags="0x4"/>
    </TTGlyph>
    <TTGlyph name="Igrave" xMin="1" yMin="0" xMax="187" yMax="944">
      <contour>
        <pt x="81" y="0" on="1"/>
        <pt x="81" y="739" on="1"/>
        <pt x="182" y="739" on="1"/>
        <pt x="182" y="0" on="1"/>
      </contour>
      <contour>
        <pt x="105" y="813" on="1"/>
        <pt x="102" y="815" on="0"/>
        <pt x="68" y="836" on="0"/>
        <pt x="28" y="862" on="0"/>
        <pt x="19" y="870" on="1"/>
        <pt x="1" y="885" on="0"/>
        <pt x="1" y="905" on="1"/>
        <pt x="1" y="921" on="0"/>
        <pt x="24" y="944" on="0"/>
        <pt x="40" y="944" on="1"/>
        <pt x="49" y="944" on="0"/>
        <pt x="66" y="939" on="0"/>
        <pt x="73" y="930" on="1"/>
        <pt x="187" y="813" on="1"/>
      </contour>
    </TTGlyph>
    <TTGlyph name="Imacron" xMin="-16" yMin="0" xMax="280" yMax="906">
      <contour>
        <pt x="81" y="0" on="1"/>
        <pt x="81" y="739" on="1"/>
        <pt x="182" y="739" on="1"/>
        <pt x="182" y="0" on="1"/>
      </contour>
      <contour>
        <pt x="-16" y="833" on="1"/>
        <pt x="-16" y="906" on="1"/>
        <pt x="280" y="906" on="1"/>
        <pt x="280" y="833" on="1"/>
      </contour>
    </TTGlyph>
    <TTGlyph name="Iogonek" xMin="35" yMin="-191" xMax="203" yMax="739">
      <contour>
        <pt x="81" y="0" on="1"/>
        <pt x="81" y="739" on="1"/>
        <pt x="182" y="739" on="1"/>
        <pt x="182" y="0" on="1"/>
      </contour>
      <contour>
        <pt x="135" y="-191" on="1"/>
        <pt x="87" y="-191" on="0"/>
        <pt x="35" y="-136" on="0"/>
        <pt x="35" y="-100" on="1"/>
        <pt x="35" y="-61" on="0"/>
        <pt x="75" y="-11" on="0"/>
        <pt x="96" y="0" on="1"/>
        <pt x="203" y="0" on="1"/>
        <pt x="158" y="-16" on="0"/>
        <pt x="110" y="-53" on="0"/>
        <pt x="110" y="-82" on="1"/>
        <pt x="110" y="-105" on="0"/>
        <pt x="139" y="-128" on="0"/>
        <pt x="162" y="-128" on="1"/>
        <pt x="172" y="-128" on="0"/>
        <pt x="192" y="-122" on="0"/>
        <pt x="203" y="-118" on="1"/>
        <pt x="203" y="-178" on="1"/>
        <pt x="166" y="-191" on="0"/>
      </contour>
    </TTGlyph>
    <TTGlyph name="Iota" xMin="81" yMin="0" xMax="182" yMax="739">
      <component glyphName="I" x="0" y="0" flags="0x204"/>
    </TTGlyph>
    <TTGlyph name="Iotadieresis" xMin="-51" yMin="0" xMax="306" yMax="945">
      <component glyphName="uni0308.case" x="-101" y="0" flags="0x4"/>
      <component glyphName="I" x="0" y="0" flags="0x204"/>
    </TTGlyph>
    <TTGlyph name="Iotatonos" xMin="-284" yMin="0" xMax="182" yMax="739">
      <component glyphName="tonos.case" x="-386" y="0" flags="0x4"/>
      <component glyphName="I" x="0" y="0" flags="0x204"/>
    </TTGlyph>
    <TTGlyph name="Itilde" xMin="-36" yMin="0" xMax="290" yMax="945">
      <component glyphName="I" x="0" y="0" flags="0x204"/>
      <component glyphName="tildecomb.case" x="-86" y="0" flags="0x4"/>
    </TTGlyph>
    <TTGlyph name="J" xMin="57" yMin="-13" xMax="506" yMax="739">
      <contour>
        <pt x="281" y="-13" on="1"/>
        <pt x="180" y="-13" on="0"/>
        <pt x="63" y="98" on="0"/>
        <pt x="57" y="209" on="1"/>
        <pt x="150" y="237" on="1"/>
        <pt x="148" y="153" on="0"/>
        <pt x="228" y="72" on="0"/>
        <pt x="281" y="72" on="1"/>
        <pt x="310" y="72" on="0"/>
        <pt x="368" y="98" on="0"/>
        <pt x="405" y="169" on="0"/>
        <pt x="405" y="236" on="1"/>
        <pt x="405" y="739" on="1"/>
        <pt x="506" y="739" on="1"/>
        <pt x="506" y="235" on="1"/>
        <pt x="506" y="114" on="0"/>
        <pt x="386" y="-13" on="0"/>
      </contour>
    </TTGlyph>
    <TTGlyph name="Jcircumflex" xMin="57" yMin="-13" xMax="521" yMax="950">
      <component glyphName="J" x="0" y="0" flags="0x204"/>
      <component glyphName="uni0302.case" x="100" y="0" flags="0x4"/>
    </TTGlyph>
    <TTGlyph name="K" xMin="58" yMin="0" xMax="632" yMax="739">
      <contour>
        <pt x="58" y="0" on="1"/>
        <pt x="58" y="739" on="1"/>
        <pt x="158" y="739" on="1"/>
        <pt x="158" y="367" on="1"/>
        <pt x="477" y="739" on="1"/>
        <pt x="601" y="739" on="1"/>
        <pt x="331" y="430" on="1"/>
        <pt x="632" y="0" on="1"/>
        <pt x="510" y="0" on="1"/>
        <pt x="264" y="354" on="1"/>
        <pt x="158" y="232" on="1"/>
        <pt x="158" y="0" on="1"/>
      </contour>
    </TTGlyph>
    <TTGlyph name="Kappa" xMin="82" yMin="0" xMax="656" yMax="739">
      <component glyphName="K" x="24" y="0" flags="0x4"/>
    </TTGlyph>
    <TTGlyph name="L" xMin="58" yMin="0" xMax="543" yMax="739">
      <contour>
        <pt x="58" y="0" on="1"/>
        <pt x="58" y="739" on="1"/>
        <pt x="159" y="739" on="1"/>
        <pt x="159" y="90" on="1"/>
        <pt x="543" y="90" on="1"/>
        <pt x="543" y="0" on="1"/>
      </contour>
    </TTGlyph>
    <TTGlyph name="Lacute" xMin="58" yMin="0" xMax="543" yMax="950">
      <component glyphName="L" x="0" y="0" flags="0x204"/>
      <component glyphName="acutecomb.case" x="30" y="0" flags="0x4"/>
    </TTGlyph>
    <TTGlyph name="Lambda" xMin="61" yMin="0" xMax="596" yMax="739">
      <contour>
        <pt x="61" y="0" on="1"/>
        <pt x="264" y="739" on="1"/>
        <pt x="393" y="739" on="1"/>
        <pt x="596" y="0" on="1"/>
        <pt x="498" y="0" on="1"/>
        <pt x="367" y="501" on="1"/>
        <pt x="348" y="573" on="0"/>
        <pt x="328" y="668" on="0"/>
        <pt x="328" y="668" on="1"/>
        <pt x="328" y="668" on="0"/>
        <pt x="308" y="574" on="0"/>
        <pt x="289" y="502" on="1"/>
        <pt x="159" y="0" on="1"/>
      </contour>
    </TTGlyph>
    <TTGlyph name="Lcaron" xMin="58" yMin="0" xMax="543" yMax="751">
      <contour>
        <pt x="58" y="0" on="1"/>
        <pt x="58" y="739" on="1"/>
        <pt x="159" y="739" on="1"/>
        <pt x="159" y="90" on="1"/>
        <pt x="543" y="90" on="1"/>
        <pt x="543" y="0" on="1"/>
      </contour>
      <contour>
        <pt x="307" y="549" on="1"/>
        <pt x="309" y="555" on="0"/>
        <pt x="315" y="599" on="0"/>
        <pt x="324" y="658" on="0"/>
        <pt x="332" y="708" on="0"/>
        <pt x="335" y="719" on="1"/>
        <pt x="337" y="728" on="0"/>
        <pt x="356" y="751" on="0"/>
        <pt x="374" y="751" on="1"/>
        <pt x="391" y="751" on="0"/>
        <pt x="414" y="728" on="0"/>
        <pt x="414" y="708" on="1"/>
        <pt x="414" y="702" on="0"/>
        <pt x="407" y="682" on="0"/>
        <pt x="405" y="675" on="1"/>
        <pt x="360" y="549" on="1"/>
      </contour>
    </TTGlyph>
    <TTGlyph name="Ldot" xMin="58" yMin="0" xMax="543" yMax="739">
      <component glyphName="L" x="0" y="0" flags="0x204"/>
      <component glyphName="period" x="328" y="275" flags="0x4"/>
    </TTGlyph>
    <TTGlyph name="Lslash" xMin="58" yMin="0" xMax="632" yMax="740">
      <contour>
        <pt x="153" y="0" on="1"/>
        <pt x="153" y="299" on="1"/>
        <pt x="58" y="239" on="1"/>
        <pt x="58" y="318" on="1"/>
        <pt x="153" y="376" on="1"/>
        <pt x="153" y="740" on="1"/>
        <pt x="253" y="740" on="1"/>
        <pt x="253" y="439" on="1"/>
        <pt x="442" y="559" on="1"/>
        <pt x="442" y="480" on="1"/>
        <pt x="253" y="360" on="1"/>
        <pt x="253" y="90" on="1"/>
        <pt x="632" y="90" on="1"/>
        <pt x="632" y="0" on="1"/>
      </contour>
    </TTGlyph>
    <TTGlyph name="M" xMin="80" yMin="0" xMax="640" yMax="739">
      <contour>
        <pt x="80" y="0" on="1"/>
        <pt x="80" y="739" on="1"/>
        <pt x="211" y="739" on="1"/>
        <pt x="360" y="135" on="1"/>
        <pt x="509" y="739" on="1"/>
        <pt x="640" y="739" on="1"/>
        <pt x="640" y="0" on="1"/>
        <pt x="562" y="0" on="1"/>
        <pt x="562" y="630" on="1"/>
        <pt x="400" y="0" on="1"/>
        <pt x="321" y="0" on="1"/>
        <pt x="158" y="630" on="1"/>
        <pt x="158" y="0" on="1"/>
      </contour>
    </TTGlyph>
    <TTGlyph name="Mu" xMin="99" yMin="0" xMax="659" yMax="739">
      <component glyphName="M" x="19" y="0" flags="0x4"/>
    </TTGlyph>
    <TTGlyph name="N" xMin="58" yMin="0" xMax="632" yMax="739">
      <contour>
        <pt x="58" y="0" on="1"/>
        <pt x="58" y="739" on="1"/>
        <pt x="207" y="739" on="1"/>
        <pt x="531" y="110" on="1"/>
        <pt x="531" y="739" on="1"/>
        <pt x="632" y="739" on="1"/>
        <pt x="632" y="0" on="1"/>
        <pt x="484" y="0" on="1"/>
        <pt x="159" y="631" on="1"/>
        <pt x="159" y="0" on="1"/>
      </contour>
    </TTGlyph>
    <TTGlyph name="Nacute" xMin="58" yMin="0" xMax="632" yMax="944">
      <contour>
        <pt x="58" y="0" on="1"/>
        <pt x="58" y="730" on="1"/>
        <pt x="207" y="730" on="1"/>
        <pt x="531" y="109" on="1"/>
        <pt x="531" y="730" on="1"/>
        <pt x="632" y="730" on="1"/>
        <pt x="632" y="0" on="1"/>
        <pt x="484" y="0" on="1"/>
        <pt x="159" y="624" on="1"/>
        <pt x="159" y="0" on="1"/>
      </contour>
      <contour>
        <pt x="302" y="813" on="1"/>
        <pt x="305" y="816" on="0"/>
        <pt x="336" y="849" on="0"/>
        <pt x="375" y="891" on="0"/>
        <pt x="409" y="926" on="0"/>
        <pt x="416" y="931" on="1"/>
        <pt x="431" y="944" on="0"/>
        <pt x="447" y="944" on="1"/>
        <pt x="463" y="944" on="0"/>
        <pt x="485" y="921" on="0"/>
        <pt x="485" y="905" on="1"/>
        <pt x="485" y="884" on="0"/>
        <pt x="468" y="870" on="1"/>
        <pt x="459" y="862" on="0"/>
        <pt x="420" y="836" on="0"/>
        <pt x="386" y="815" on="0"/>
        <pt x="382" y="813" on="1"/>
      </contour>
    </TTGlyph>
    <TTGlyph name="Ncaron" xMin="58" yMin="0" xMax="632" yMax="941">
      <contour>
        <pt x="58" y="0" on="1"/>
        <pt x="58" y="730" on="1"/>
        <pt x="207" y="730" on="1"/>
        <pt x="531" y="109" on="1"/>
        <pt x="531" y="730" on="1"/>
        <pt x="632" y="730" on="1"/>
        <pt x="632" y="0" on="1"/>
        <pt x="484" y="0" on="1"/>
        <pt x="159" y="624" on="1"/>
        <pt x="159" y="0" on="1"/>
      </contour>
      <contour>
        <pt x="363" y="810" on="1"/>
        <pt x="332" y="810" on="0"/>
        <pt x="311" y="831" on="1"/>
        <pt x="191" y="941" on="1"/>
        <pt x="292" y="941" on="1"/>
        <pt x="362" y="874" on="1"/>
        <pt x="435" y="941" on="1"/>
        <pt x="535" y="941" on="1"/>
        <pt x="416" y="831" on="1"/>
        <pt x="394" y="810" on="0"/>
      </contour>
    </TTGlyph>
    <TTGlyph name="Ntilde" xMin="58" yMin="0" xMax="632" yMax="932">
      <contour>
        <pt x="58" y="0" on="1"/>
        <pt x="58" y="730" on="1"/>
        <pt x="207" y="730" on="1"/>
        <pt x="531" y="109" on="1"/>
        <pt x="531" y="730" on="1"/>
        <pt x="632" y="730" on="1"/>
        <pt x="632" y="0" on="1"/>
        <pt x="484" y="0" on="1"/>
        <pt x="159" y="624" on="1"/>
        <pt x="159" y="0" on="1"/>
      </contour>
      <contour>
        <pt x="435" y="816" on="1"/>
        <pt x="418" y="816" on="0"/>
        <pt x="384" y="828" on="0"/>
        <pt x="362" y="839" on="1"/>
        <pt x="346" y="848" on="0"/>
        <pt x="318" y="863" on="0"/>
        <pt x="302" y="863" on="1"/>
        <pt x="263" y="863" on="0"/>
        <pt x="257" y="819" on="1"/>
        <pt x="188" y="819" on="1"/>
        <pt x="197" y="876" on="0"/>
        <pt x="258" y="932" on="0"/>
        <pt x="301" y="932" on="1"/>
        <pt x="331" y="932" on="0"/>
        <pt x="373" y="909" on="0"/>
        <pt x="410" y="885" on="0"/>
        <pt x="433" y="885" on="1"/>
        <pt x="449" y="885" on="0"/>
        <pt x="467" y="898" on="0"/>
        <pt x="474" y="910" on="1"/>
        <pt x="481" y="922" on="0"/>
        <pt x="498" y="931" on="0"/>
        <pt x="506" y="931" on="1"/>
        <pt x="520" y="931" on="0"/>
        <pt x="539" y="910" on="0"/>
        <pt x="539" y="897" on="1"/>
        <pt x="539" y="881" on="0"/>
        <pt x="511" y="844" on="0"/>
        <pt x="464" y="816" on="0"/>
      </contour>
    </TTGlyph>
    <TTGlyph name="Nu" xMin="82" yMin="0" xMax="656" yMax="739">
      <component glyphName="N" x="24" y="0" flags="0x4"/>
    </TTGlyph>
    <TTGlyph name="O" xMin="58" yMin="-13" xMax="632" yMax="752">
      <contour>
        <pt x="345" y="-13" on="1"/>
        <pt x="257" y="-13" on="0"/>
        <pt x="129" y="85" on="0"/>
        <pt x="58" y="259" on="0"/>
        <pt x="58" y="370" on="1"/>
        <pt x="58" y="482" on="0"/>
        <pt x="129" y="654" on="0"/>
        <pt x="257" y="752" on="0"/>
        <pt x="345" y="752" on="1"/>
        <pt x="433" y="752" on="0"/>
        <pt x="561" y="654" on="0"/>
        <pt x="632" y="482" on="0"/>
        <pt x="632" y="370" on="1"/>
        <pt x="632" y="259" on="0"/>
        <pt x="561" y="85" on="0"/>
        <pt x="433" y="-13" on="0"/>
      </contour>
      <contour>
        <pt x="345" y="74" on="1"/>
        <pt x="401" y="74" on="0"/>
        <pt x="491" y="143" on="0"/>
        <pt x="544" y="274" on="0"/>
        <pt x="544" y="370" on="1"/>
        <pt x="544" y="466" on="0"/>
        <pt x="491" y="597" on="0"/>
        <pt x="401" y="665" on="0"/>
        <pt x="345" y="665" on="1"/>
        <pt x="289" y="665" on="0"/>
        <pt x="199" y="597" on="0"/>
        <pt x="146" y="466" on="0"/>
        <pt x="146" y="370" on="1"/>
        <pt x="146" y="274" on="0"/>
        <pt x="199" y="143" on="0"/>
        <pt x="289" y="74" on="0"/>
      </contour>
    </TTGlyph>
    <TTGlyph name="OE" xMin="58" yMin="-13" xMax="632" yMax="752">
      <contour>
        <pt x="244" y="-13" on="1"/>
        <pt x="188" y="-13" on="0"/>
        <pt x="104" y="85" on="0"/>
        <pt x="58" y="259" on="0"/>
        <pt x="58" y="370" on="1"/>
        <pt x="58" y="484" on="0"/>
        <pt x="104" y="655" on="0"/>
        <pt x="188" y="752" on="0"/>
        <pt x="244" y="752" on="1"/>
        <pt x="285" y="752" on="0"/>
        <pt x="350" y="703" on="0"/>
        <pt x="374" y="660" on="1"/>
        <pt x="374" y="740" on="1"/>
        <pt x="632" y="740" on="1"/>
        <pt x="632" y="651" on="1"/>
        <pt x="418" y="651" on="1"/>
        <pt x="418" y="426" on="1"/>
        <pt x="576" y="426" on="1"/>
        <pt x="576" y="336" on="1"/>
        <pt x="418" y="336" on="1"/>
        <pt x="418" y="90" on="1"/>
        <pt x="632" y="90" on="1"/>
        <pt x="632" y="0" on="1"/>
        <pt x="374" y="0" on="1"/>
        <pt x="374" y="83" on="1"/>
        <pt x="350" y="37" on="0"/>
        <pt x="285" y="-13" on="0"/>
      </contour>
      <contour>
        <pt x="244" y="76" on="1"/>
        <pt x="280" y="76" on="0"/>
        <pt x="339" y="143" on="0"/>
        <pt x="374" y="273" on="0"/>
        <pt x="374" y="369" on="1"/>
        <pt x="374" y="474" on="0"/>
        <pt x="336" y="604" on="0"/>
        <pt x="278" y="666" on="0"/>
        <pt x="244" y="666" on="1"/>
        <pt x="209" y="666" on="0"/>
        <pt x="150" y="598" on="0"/>
        <pt x="115" y="467" on="0"/>
        <pt x="115" y="370" on="1"/>
        <pt x="115" y="275" on="0"/>
        <pt x="150" y="144" on="0"/>
        <pt x="209" y="76" on="0"/>
      </contour>
    </TTGlyph>
    <TTGlyph name="Oacute" xMin="58" yMin="-13" xMax="632" yMax="944">
      <contour>
        <pt x="345" y="-13" on="1"/>
        <pt x="257" y="-13" on="0"/>
        <pt x="129" y="84" on="0"/>
        <pt x="58" y="256" on="0"/>
        <pt x="58" y="366" on="1"/>
        <pt x="58" y="476" on="0"/>
        <pt x="129" y="646" on="0"/>
        <pt x="257" y="743" on="0"/>
        <pt x="345" y="743" on="1"/>
        <pt x="433" y="743" on="0"/>
        <pt x="561" y="646" on="0"/>
        <pt x="632" y="476" on="0"/>
        <pt x="632" y="366" on="1"/>
        <pt x="632" y="256" on="0"/>
        <pt x="561" y="84" on="0"/>
        <pt x="433" y="-13" on="0"/>
      </contour>
      <contour>
        <pt x="345" y="73" on="1"/>
        <pt x="401" y="73" on="0"/>
        <pt x="491" y="141" on="0"/>
        <pt x="544" y="271" on="0"/>
        <pt x="544" y="366" on="1"/>
        <pt x="544" y="460" on="0"/>
        <pt x="491" y="590" on="0"/>
        <pt x="401" y="657" on="0"/>
        <pt x="345" y="657" on="1"/>
        <pt x="289" y="657" on="0"/>
        <pt x="199" y="590" on="0"/>
        <pt x="146" y="460" on="0"/>
        <pt x="146" y="366" on="1"/>
        <pt x="146" y="271" on="0"/>
        <pt x="199" y="141" on="0"/>
        <pt x="289" y="73" on="0"/>
      </contour>
      <contour>
        <pt x="293" y="813" on="1"/>
        <pt x="295" y="816" on="0"/>
        <pt x="321" y="849" on="0"/>
        <pt x="356" y="891" on="0"/>
        <pt x="385" y="926" on="0"/>
        <pt x="390" y="931" on="1"/>
        <pt x="403" y="944" on="0"/>
        <pt x="417" y="944" on="1"/>
        <pt x="431" y="944" on="0"/>
        <pt x="450" y="921" on="0"/>
        <pt x="450" y="905" on="1"/>
        <pt x="450" y="884" on="0"/>
        <pt x="435" y="870" on="1"/>
        <pt x="427" y="862" on="0"/>
        <pt x="394" y="836" on="0"/>
        <pt x="364" y="815" on="0"/>
        <pt x="362" y="813" on="1"/>
      </contour>
    </TTGlyph>
    <TTGlyph name="Obreve" xMin="58" yMin="-13" xMax="632" yMax="950">
      <component glyphName="O" x="0" y="0" flags="0x204"/>
      <component glyphName="uni0306.case" x="128" y="0" flags="0x4"/>
    </TTGlyph>
    <TTGlyph name="Ocircumflex" xMin="58" yMin="-13" xMax="632" yMax="947">
      <contour>
        <pt x="345" y="-13" on="1"/>
        <pt x="257" y="-13" on="0"/>
        <pt x="129" y="84" on="0"/>
        <pt x="58" y="256" on="0"/>
        <pt x="58" y="366" on="1"/>
        <pt x="58" y="476" on="0"/>
        <pt x="129" y="646" on="0"/>
        <pt x="257" y="743" on="0"/>
        <pt x="345" y="743" on="1"/>
        <pt x="433" y="743" on="0"/>
        <pt x="561" y="646" on="0"/>
        <pt x="632" y="476" on="0"/>
        <pt x="632" y="366" on="1"/>
        <pt x="632" y="256" on="0"/>
        <pt x="561" y="84" on="0"/>
        <pt x="433" y="-13" on="0"/>
      </contour>
      <contour>
        <pt x="345" y="73" on="1"/>
        <pt x="401" y="73" on="0"/>
        <pt x="491" y="141" on="0"/>
        <pt x="544" y="271" on="0"/>
        <pt x="544" y="366" on="1"/>
        <pt x="544" y="460" on="0"/>
        <pt x="491" y="590" on="0"/>
        <pt x="401" y="657" on="0"/>
        <pt x="345" y="657" on="1"/>
        <pt x="289" y="657" on="0"/>
        <pt x="199" y="590" on="0"/>
        <pt x="146" y="460" on="0"/>
        <pt x="146" y="366" on="1"/>
        <pt x="146" y="271" on="0"/>
        <pt x="199" y="141" on="0"/>
        <pt x="289" y="73" on="0"/>
      </contour>
      <contour>
        <pt x="197" y="816" on="1"/>
        <pt x="300" y="927" on="1"/>
        <pt x="318" y="947" on="0"/>
        <pt x="345" y="947" on="1"/>
        <pt x="372" y="947" on="0"/>
        <pt x="390" y="927" on="1"/>
        <pt x="493" y="816" on="1"/>
        <pt x="407" y="816" on="1"/>
        <pt x="345" y="883" on="1"/>
        <pt x="283" y="816" on="1"/>
      </contour>
    </TTGlyph>
    <TTGlyph name="Odieresis" xMin="58" yMin="-13" xMax="632" yMax="926">
      <contour>
        <pt x="345" y="-13" on="1"/>
        <pt x="257" y="-13" on="0"/>
        <pt x="129" y="84" on="0"/>
        <pt x="58" y="256" on="0"/>
        <pt x="58" y="366" on="1"/>
        <pt x="58" y="476" on="0"/>
        <pt x="129" y="646" on="0"/>
        <pt x="257" y="743" on="0"/>
        <pt x="345" y="743" on="1"/>
        <pt x="433" y="743" on="0"/>
        <pt x="561" y="646" on="0"/>
        <pt x="632" y="476" on="0"/>
        <pt x="632" y="366" on="1"/>
        <pt x="632" y="256" on="0"/>
        <pt x="561" y="84" on="0"/>
        <pt x="433" y="-13" on="0"/>
      </contour>
      <contour>
        <pt x="345" y="73" on="1"/>
        <pt x="401" y="73" on="0"/>
        <pt x="491" y="141" on="0"/>
        <pt x="544" y="271" on="0"/>
        <pt x="544" y="366" on="1"/>
        <pt x="544" y="460" on="0"/>
        <pt x="491" y="590" on="0"/>
        <pt x="401" y="657" on="0"/>
        <pt x="345" y="657" on="1"/>
        <pt x="289" y="657" on="0"/>
        <pt x="199" y="590" on="0"/>
        <pt x="146" y="460" on="0"/>
        <pt x="146" y="366" on="1"/>
        <pt x="146" y="271" on="0"/>
        <pt x="199" y="141" on="0"/>
        <pt x="289" y="73" on="0"/>
      </contour>
      <contour>
        <pt x="249" y="809" on="1"/>
        <pt x="228" y="809" on="0"/>
        <pt x="199" y="844" on="0"/>
        <pt x="199" y="868" on="1"/>
        <pt x="199" y="892" on="0"/>
        <pt x="228" y="926" on="0"/>
        <pt x="249" y="926" on="1"/>
        <pt x="269" y="926" on="0"/>
        <pt x="298" y="892" on="0"/>
        <pt x="298" y="868" on="1"/>
        <pt x="298" y="844" on="0"/>
        <pt x="269" y="809" on="0"/>
      </contour>
      <contour>
        <pt x="441" y="809" on="1"/>
        <pt x="421" y="809" on="0"/>
        <pt x="393" y="844" on="0"/>
        <pt x="393" y="868" on="1"/>
        <pt x="393" y="892" on="0"/>
        <pt x="421" y="926" on="0"/>
        <pt x="441" y="926" on="1"/>
        <pt x="463" y="926" on="0"/>
        <pt x="491" y="892" on="0"/>
        <pt x="491" y="868" on="1"/>
        <pt x="491" y="844" on="0"/>
        <pt x="463" y="809" on="0"/>
      </contour>
    </TTGlyph>
    <TTGlyph name="Ograve" xMin="58" yMin="-13" xMax="632" yMax="944">
      <contour>
        <pt x="345" y="-13" on="1"/>
        <pt x="257" y="-13" on="0"/>
        <pt x="129" y="84" on="0"/>
        <pt x="58" y="256" on="0"/>
        <pt x="58" y="366" on="1"/>
        <pt x="58" y="476" on="0"/>
        <pt x="129" y="646" on="0"/>
        <pt x="257" y="743" on="0"/>
        <pt x="345" y="743" on="1"/>
        <pt x="433" y="743" on="0"/>
        <pt x="561" y="646" on="0"/>
        <pt x="632" y="476" on="0"/>
        <pt x="632" y="366" on="1"/>
        <pt x="632" y="256" on="0"/>
        <pt x="561" y="84" on="0"/>
        <pt x="433" y="-13" on="0"/>
      </contour>
      <contour>
        <pt x="345" y="73" on="1"/>
        <pt x="401" y="73" on="0"/>
        <pt x="491" y="141" on="0"/>
        <pt x="544" y="271" on="0"/>
        <pt x="544" y="366" on="1"/>
        <pt x="544" y="460" on="0"/>
        <pt x="491" y="590" on="0"/>
        <pt x="401" y="657" on="0"/>
        <pt x="345" y="657" on="1"/>
        <pt x="289" y="657" on="0"/>
        <pt x="199" y="590" on="0"/>
        <pt x="146" y="460" on="0"/>
        <pt x="146" y="366" on="1"/>
        <pt x="146" y="271" on="0"/>
        <pt x="199" y="141" on="0"/>
        <pt x="289" y="73" on="0"/>
      </contour>
      <contour>
        <pt x="323" y="813" on="1"/>
        <pt x="319" y="815" on="0"/>
        <pt x="290" y="836" on="0"/>
        <pt x="257" y="862" on="0"/>
        <pt x="249" y="870" on="1"/>
        <pt x="234" y="885" on="0"/>
        <pt x="234" y="905" on="1"/>
        <pt x="234" y="921" on="0"/>
        <pt x="253" y="944" on="0"/>
        <pt x="267" y="944" on="1"/>
        <pt x="274" y="944" on="0"/>
        <pt x="288" y="939" on="0"/>
        <pt x="295" y="930" on="1"/>
        <pt x="392" y="813" on="1"/>
      </contour>
    </TTGlyph>
    <TTGlyph name="Ohorn" xMin="58" yMin="-13" xMax="653" yMax="810">
      <component glyphName="O" x="0" y="0" flags="0x204"/>
      <component glyphName="uni031B" x="407" y="150" flags="0x4"/>
    </TTGlyph>
    <TTGlyph name="Ohungarumlaut" xMin="58" yMin="-13" xMax="632" yMax="962">
      <contour>
        <pt x="345" y="-13" on="1"/>
        <pt x="257" y="-13" on="0"/>
        <pt x="129" y="84" on="0"/>
        <pt x="58" y="256" on="0"/>
        <pt x="58" y="366" on="1"/>
        <pt x="58" y="476" on="0"/>
        <pt x="129" y="646" on="0"/>
        <pt x="257" y="743" on="0"/>
        <pt x="345" y="743" on="1"/>
        <pt x="433" y="743" on="0"/>
        <pt x="561" y="646" on="0"/>
        <pt x="632" y="476" on="0"/>
        <pt x="632" y="366" on="1"/>
        <pt x="632" y="256" on="0"/>
        <pt x="561" y="84" on="0"/>
        <pt x="433" y="-13" on="0"/>
      </contour>
      <contour>
        <pt x="345" y="73" on="1"/>
        <pt x="401" y="73" on="0"/>
        <pt x="491" y="141" on="0"/>
        <pt x="544" y="271" on="0"/>
        <pt x="544" y="366" on="1"/>
        <pt x="544" y="460" on="0"/>
        <pt x="491" y="590" on="0"/>
        <pt x="401" y="657" on="0"/>
        <pt x="345" y="657" on="1"/>
        <pt x="289" y="657" on="0"/>
        <pt x="199" y="590" on="0"/>
        <pt x="146" y="460" on="0"/>
        <pt x="146" y="366" on="1"/>
        <pt x="146" y="271" on="0"/>
        <pt x="199" y="141" on="0"/>
        <pt x="289" y="73" on="0"/>
      </contour>
      <contour>
        <pt x="241" y="813" on="1"/>
        <pt x="329" y="947" on="1"/>
        <pt x="339" y="962" on="0"/>
        <pt x="355" y="962" on="1"/>
        <pt x="370" y="962" on="0"/>
        <pt x="389" y="938" on="0"/>
        <pt x="389" y="920" on="1"/>
        <pt x="389" y="912" on="0"/>
        <pt x="386" y="897" on="0"/>
        <pt x="379" y="891" on="1"/>
        <pt x="305" y="813" on="1"/>
      </contour>
      <contour>
        <pt x="375" y="813" on="1"/>
        <pt x="463" y="947" on="1"/>
        <pt x="471" y="962" on="0"/>
        <pt x="488" y="962" on="1"/>
        <pt x="502" y="962" on="0"/>
        <pt x="523" y="937" on="0"/>
        <pt x="523" y="920" on="1"/>
        <pt x="523" y="912" on="0"/>
        <pt x="519" y="897" on="0"/>
        <pt x="513" y="891" on="1"/>
        <pt x="439" y="813" on="1"/>
      </contour>
    </TTGlyph>
    <TTGlyph name="Omacron" xMin="58" yMin="-13" xMax="632" yMax="915">
      <component glyphName="O" x="0" y="0" flags="0x204"/>
      <component glyphName="uni0304.case" x="128" y="0" flags="0x4"/>
    </TTGlyph>
    <TTGlyph name="Omegatonos" xMin="-53" yMin="0" xMax="597" yMax="749">
      <component glyphName="uni03A9" x="0" y="0" flags="0x204"/>
      <component glyphName="tonos.case" x="-155" y="0" flags="0x4"/>
    </TTGlyph>
    <TTGlyph name="Omicron" xMin="82" yMin="-13" xMax="656" yMax="752">
      <component glyphName="O" x="24" y="0" flags="0x4"/>
    </TTGlyph>
    <TTGlyph name="Omicrontonos" xMin="-36" yMin="-13" xMax="632" yMax="752">
      <component glyphName="tonos.case" x="-138" y="0" flags="0x4"/>
      <component glyphName="O" x="0" y="0" flags="0x204"/>
    </TTGlyph>
    <TTGlyph name="Oslash" xMin="58" yMin="-13" xMax="632" yMax="752">
      <contour>
        <pt x="345" y="-13" on="1"/>
        <pt x="288" y="-13" on="0"/>
        <pt x="194" y="28" on="0"/>
        <pt x="159" y="67" on="1"/>
        <pt x="106" y="-7" on="1"/>
        <pt x="72" y="30" on="1"/>
        <pt x="127" y="107" on="1"/>
        <pt x="94" y="157" on="0"/>
        <pt x="58" y="290" on="0"/>
        <pt x="58" y="368" on="1"/>
        <pt x="58" y="480" on="0"/>
        <pt x="129" y="654" on="0"/>
        <pt x="257" y="752" on="0"/>
        <pt x="345" y="752" on="1"/>
        <pt x="400" y="752" on="0"/>
        <pt x="492" y="712" on="0"/>
        <pt x="528" y="675" on="1"/>
        <pt x="576" y="744" on="1"/>
        <pt x="611" y="708" on="1"/>
        <pt x="560" y="635" on="1"/>
        <pt x="595" y="584" on="0"/>
        <pt x="632" y="449" on="0"/>
        <pt x="632" y="368" on="1"/>
        <pt x="632" y="258" on="0"/>
        <pt x="561" y="85" on="0"/>
        <pt x="433" y="-13" on="0"/>
      </contour>
      <contour>
        <pt x="182" y="187" on="1"/>
        <pt x="476" y="600" on="1"/>
        <pt x="422" y="663" on="0"/>
        <pt x="345" y="663" on="1"/>
        <pt x="289" y="663" on="0"/>
        <pt x="199" y="595" on="0"/>
        <pt x="146" y="465" on="0"/>
        <pt x="146" y="368" on="1"/>
        <pt x="146" y="259" on="0"/>
      </contour>
      <contour>
        <pt x="345" y="74" on="1"/>
        <pt x="401" y="74" on="0"/>
        <pt x="491" y="143" on="0"/>
        <pt x="544" y="274" on="0"/>
        <pt x="544" y="368" on="1"/>
        <pt x="544" y="427" on="0"/>
        <pt x="523" y="521" on="0"/>
        <pt x="504" y="557" on="1"/>
        <pt x="211" y="141" on="1"/>
        <pt x="264" y="74" on="0"/>
      </contour>
    </TTGlyph>
    <TTGlyph name="Oslashacute" xMin="58" yMin="-13" xMax="632" yMax="950">
      <component glyphName="Oslash" x="0" y="0" flags="0x204"/>
      <component glyphName="acutecomb.case" x="200" y="0" flags="0x4"/>
    </TTGlyph>
    <TTGlyph name="Otilde" xMin="58" yMin="-13" xMax="632" yMax="932">
      <contour>
        <pt x="345" y="-13" on="1"/>
        <pt x="257" y="-13" on="0"/>
        <pt x="129" y="84" on="0"/>
        <pt x="58" y="256" on="0"/>
        <pt x="58" y="366" on="1"/>
        <pt x="58" y="476" on="0"/>
        <pt x="129" y="646" on="0"/>
        <pt x="257" y="743" on="0"/>
        <pt x="345" y="743" on="1"/>
        <pt x="433" y="743" on="0"/>
        <pt x="561" y="646" on="0"/>
        <pt x="632" y="476" on="0"/>
        <pt x="632" y="366" on="1"/>
        <pt x="632" y="256" on="0"/>
        <pt x="561" y="84" on="0"/>
        <pt x="433" y="-13" on="0"/>
      </contour>
      <contour>
        <pt x="345" y="73" on="1"/>
        <pt x="401" y="73" on="0"/>
        <pt x="491" y="141" on="0"/>
        <pt x="544" y="271" on="0"/>
        <pt x="544" y="366" on="1"/>
        <pt x="544" y="460" on="0"/>
        <pt x="491" y="590" on="0"/>
        <pt x="401" y="657" on="0"/>
        <pt x="345" y="657" on="1"/>
        <pt x="289" y="657" on="0"/>
        <pt x="199" y="590" on="0"/>
        <pt x="146" y="460" on="0"/>
        <pt x="146" y="366" on="1"/>
        <pt x="146" y="271" on="0"/>
        <pt x="199" y="141" on="0"/>
        <pt x="289" y="73" on="0"/>
      </contour>
      <contour>
        <pt x="407" y="816" on="1"/>
        <pt x="392" y="816" on="0"/>
        <pt x="363" y="828" on="0"/>
        <pt x="345" y="839" on="1"/>
        <pt x="331" y="848" on="0"/>
        <pt x="306" y="863" on="0"/>
        <pt x="293" y="863" on="1"/>
        <pt x="258" y="863" on="0"/>
        <pt x="254" y="819" on="1"/>
        <pt x="194" y="819" on="1"/>
        <pt x="203" y="876" on="0"/>
        <pt x="255" y="932" on="0"/>
        <pt x="292" y="932" on="1"/>
        <pt x="317" y="932" on="0"/>
        <pt x="354" y="909" on="0"/>
        <pt x="386" y="885" on="0"/>
        <pt x="405" y="885" on="1"/>
        <pt x="419" y="885" on="0"/>
        <pt x="434" y="898" on="0"/>
        <pt x="440" y="910" on="1"/>
        <pt x="446" y="922" on="0"/>
        <pt x="461" y="931" on="0"/>
        <pt x="467" y="931" on="1"/>
        <pt x="480" y="931" on="0"/>
        <pt x="496" y="910" on="0"/>
        <pt x="496" y="897" on="1"/>
        <pt x="496" y="881" on="0"/>
        <pt x="471" y="844" on="0"/>
        <pt x="432" y="816" on="0"/>
      </contour>
    </TTGlyph>
    <TTGlyph name="P" xMin="61" yMin="1" xMax="582" yMax="739">
      <contour>
        <pt x="61" y="1" on="1"/>
        <pt x="61" y="739" on="1"/>
        <pt x="285" y="739" on="1"/>
        <pt x="372" y="739" on="0"/>
        <pt x="506" y="703" on="0"/>
        <pt x="582" y="607" on="0"/>
        <pt x="582" y="515" on="1"/>
        <pt x="582" y="425" on="0"/>
        <pt x="506" y="329" on="0"/>
        <pt x="372" y="294" on="0"/>
        <pt x="285" y="294" on="1"/>
        <pt x="162" y="294" on="1"/>
        <pt x="162" y="1" on="1"/>
      </contour>
      <contour>
        <pt x="162" y="384" on="1"/>
        <pt x="293" y="384" on="1"/>
        <pt x="346" y="384" on="0"/>
        <pt x="429" y="400" on="0"/>
        <pt x="479" y="455" on="0"/>
        <pt x="479" y="515" on="1"/>
        <pt x="479" y="576" on="0"/>
        <pt x="429" y="634" on="0"/>
        <pt x="346" y="652" on="0"/>
        <pt x="293" y="652" on="1"/>
        <pt x="162" y="652" on="1"/>
      </contour>
    </TTGlyph>
    <TTGlyph name="Phi" xMin="65" yMin="-25" xMax="591" yMax="779">
      <component glyphName="uni0424" x="4" y="0" flags="0x4"/>
    </TTGlyph>
    <TTGlyph name="Pi" xMin="26" yMin="0" xMax="466" yMax="739">
      <component glyphName="uni041F" x="-31" y="0" flags="0x4"/>
    </TTGlyph>
    <TTGlyph name="Psi" xMin="61" yMin="0" xMax="587" yMax="739">
      <contour>
        <pt x="279" y="0" on="1"/>
        <pt x="279" y="172" on="1"/>
        <pt x="214" y="172" on="0"/>
        <pt x="115" y="225" on="0"/>
        <pt x="61" y="319" on="0"/>
        <pt x="61" y="383" on="1"/>
        <pt x="61" y="739" on="1"/>
        <pt x="151" y="739" on="1"/>
        <pt x="151" y="383" on="1"/>
        <pt x="151" y="321" on="0"/>
        <pt x="219" y="249" on="0"/>
        <pt x="279" y="249" on="1"/>
        <pt x="279" y="739" on="1"/>
        <pt x="369" y="739" on="1"/>
        <pt x="369" y="249" on="1"/>
        <pt x="429" y="249" on="0"/>
        <pt x="497" y="321" on="0"/>
        <pt x="497" y="383" on="1"/>
        <pt x="497" y="739" on="1"/>
        <pt x="587" y="739" on="1"/>
        <pt x="587" y="383" on="1"/>
        <pt x="587" y="319" on="0"/>
        <pt x="533" y="225" on="0"/>
        <pt x="435" y="172" on="0"/>
        <pt x="369" y="172" on="1"/>
        <pt x="369" y="0" on="1"/>
      </contour>
    </TTGlyph>
    <TTGlyph name="Q" xMin="58" yMin="-49" xMax="632" yMax="752">
      <contour>
        <pt x="579" y="-49" on="1"/>
        <pt x="484" y="72" on="1"/>
        <pt x="452" y="31" on="0"/>
        <pt x="365" y="-13" on="0"/>
        <pt x="314" y="-13" on="1"/>
        <pt x="235" y="-13" on="0"/>
        <pt x="121" y="85" on="0"/>
        <pt x="58" y="259" on="0"/>
        <pt x="58" y="370" on="1"/>
        <pt x="58" y="482" on="0"/>
        <pt x="121" y="654" on="0"/>
        <pt x="235" y="752" on="0"/>
        <pt x="314" y="752" on="1"/>
        <pt x="393" y="752" on="0"/>
        <pt x="507" y="654" on="0"/>
        <pt x="570" y="482" on="0"/>
        <pt x="570" y="370" on="1"/>
        <pt x="570" y="309" on="0"/>
        <pt x="550" y="199" on="0"/>
        <pt x="531" y="154" on="1"/>
        <pt x="632" y="26" on="1"/>
      </contour>
      <contour>
        <pt x="314" y="74" on="1"/>
        <pt x="386" y="74" on="0"/>
        <pt x="432" y="140" on="1"/>
        <pt x="286" y="325" on="1"/>
        <pt x="339" y="401" on="1"/>
        <pt x="473" y="228" on="1"/>
        <pt x="482" y="258" on="0"/>
        <pt x="492" y="330" on="0"/>
        <pt x="492" y="370" on="1"/>
        <pt x="492" y="466" on="0"/>
        <pt x="445" y="597" on="0"/>
        <pt x="363" y="665" on="0"/>
        <pt x="314" y="665" on="1"/>
        <pt x="265" y="665" on="0"/>
        <pt x="183" y="597" on="0"/>
        <pt x="136" y="466" on="0"/>
        <pt x="136" y="370" on="1"/>
        <pt x="136" y="274" on="0"/>
        <pt x="183" y="143" on="0"/>
        <pt x="265" y="74" on="0"/>
      </contour>
    </TTGlyph>
    <TTGlyph name="R" xMin="62" yMin="0" xMax="610" yMax="739">
      <contour>
        <pt x="62" y="0" on="1"/>
        <pt x="62" y="739" on="1"/>
        <pt x="289" y="739" on="1"/>
        <pt x="377" y="739" on="0"/>
        <pt x="510" y="706" on="0"/>
        <pt x="586" y="615" on="0"/>
        <pt x="586" y="526" on="1"/>
        <pt x="586" y="477" on="0"/>
        <pt x="556" y="391" on="0"/>
        <pt x="472" y="331" on="0"/>
        <pt x="388" y="319" on="1"/>
        <pt x="610" y="0" on="1"/>
        <pt x="487" y="0" on="1"/>
        <pt x="270" y="311" on="1"/>
        <pt x="163" y="311" on="1"/>
        <pt x="163" y="0" on="1"/>
      </contour>
      <contour>
        <pt x="163" y="398" on="1"/>
        <pt x="296" y="398" on="1"/>
        <pt x="349" y="398" on="0"/>
        <pt x="433" y="414" on="0"/>
        <pt x="484" y="468" on="0"/>
        <pt x="484" y="524" on="1"/>
        <pt x="484" y="582" on="0"/>
        <pt x="433" y="635" on="0"/>
        <pt x="349" y="652" on="0"/>
        <pt x="296" y="652" on="1"/>
        <pt x="163" y="652" on="1"/>
      </contour>
    </TTGlyph>
    <TTGlyph name="Racute" xMin="62" yMin="0" xMax="610" yMax="944">
      <contour>
        <pt x="62" y="0" on="1"/>
        <pt x="62" y="730" on="1"/>
        <pt x="289" y="730" on="1"/>
        <pt x="377" y="730" on="0"/>
        <pt x="510" y="698" on="0"/>
        <pt x="586" y="608" on="0"/>
        <pt x="586" y="520" on="1"/>
        <pt x="586" y="471" on="0"/>
        <pt x="556" y="386" on="0"/>
        <pt x="472" y="327" on="0"/>
        <pt x="388" y="315" on="1"/>
        <pt x="610" y="0" on="1"/>
        <pt x="487" y="0" on="1"/>
        <pt x="270" y="307" on="1"/>
        <pt x="163" y="307" on="1"/>
        <pt x="163" y="0" on="1"/>
      </contour>
      <contour>
        <pt x="163" y="393" on="1"/>
        <pt x="296" y="393" on="1"/>
        <pt x="349" y="393" on="0"/>
        <pt x="433" y="409" on="0"/>
        <pt x="484" y="462" on="0"/>
        <pt x="484" y="518" on="1"/>
        <pt x="484" y="575" on="0"/>
        <pt x="433" y="627" on="0"/>
        <pt x="349" y="644" on="0"/>
        <pt x="296" y="644" on="1"/>
        <pt x="163" y="644" on="1"/>
      </contour>
      <contour>
        <pt x="243" y="813" on="1"/>
        <pt x="246" y="816" on="0"/>
        <pt x="277" y="849" on="0"/>
        <pt x="317" y="891" on="0"/>
        <pt x="351" y="926" on="0"/>
        <pt x="357" y="931" on="1"/>
        <pt x="372" y="944" on="0"/>
        <pt x="388" y="944" on="1"/>
        <pt x="404" y="944" on="0"/>
        <pt x="427" y="921" on="0"/>
        <pt x="427" y="905" on="1"/>
        <pt x="427" y="884" on="0"/>
        <pt x="410" y="870" on="1"/>
        <pt x="401" y="862" on="0"/>
        <pt x="362" y="836" on="0"/>
        <pt x="327" y="815" on="0"/>
        <pt x="324" y="813" on="1"/>
      </contour>
    </TTGlyph>
    <TTGlyph name="Rcaron" xMin="62" yMin="0" xMax="610" yMax="941">
      <contour>
        <pt x="62" y="0" on="1"/>
        <pt x="62" y="730" on="1"/>
        <pt x="289" y="730" on="1"/>
        <pt x="377" y="730" on="0"/>
        <pt x="510" y="698" on="0"/>
        <pt x="586" y="608" on="0"/>
        <pt x="586" y="520" on="1"/>
        <pt x="586" y="471" on="0"/>
        <pt x="556" y="386" on="0"/>
        <pt x="472" y="327" on="0"/>
        <pt x="388" y="315" on="1"/>
        <pt x="610" y="0" on="1"/>
        <pt x="487" y="0" on="1"/>
        <pt x="270" y="307" on="1"/>
        <pt x="163" y="307" on="1"/>
        <pt x="163" y="0" on="1"/>
      </contour>
      <contour>
        <pt x="163" y="393" on="1"/>
        <pt x="296" y="393" on="1"/>
        <pt x="349" y="393" on="0"/>
        <pt x="433" y="409" on="0"/>
        <pt x="484" y="462" on="0"/>
        <pt x="484" y="518" on="1"/>
        <pt x="484" y="575" on="0"/>
        <pt x="433" y="627" on="0"/>
        <pt x="349" y="644" on="0"/>
        <pt x="296" y="644" on="1"/>
        <pt x="163" y="644" on="1"/>
      </contour>
      <contour>
        <pt x="305" y="810" on="1"/>
        <pt x="273" y="810" on="0"/>
        <pt x="251" y="831" on="1"/>
        <pt x="132" y="941" on="1"/>
        <pt x="232" y="941" on="1"/>
        <pt x="304" y="874" on="1"/>
        <pt x="377" y="941" on="1"/>
        <pt x="477" y="941" on="1"/>
        <pt x="357" y="831" on="1"/>
        <pt x="336" y="810" on="0"/>
      </contour>
    </TTGlyph>
    <TTGlyph name="Rho" xMin="62" yMin="1" xMax="583" yMax="739">
      <component glyphName="P" x="1" y="0" flags="0x4"/>
    </TTGlyph>
    <TTGlyph name="S" xMin="62" yMin="-13" xMax="614" yMax="752">
      <contour>
        <pt x="336" y="-13" on="1"/>
        <pt x="277" y="-13" on="0"/>
        <pt x="166" y="24" on="0"/>
        <pt x="81" y="102" on="0"/>
        <pt x="62" y="162" on="1"/>
        <pt x="155" y="190" on="1"/>
        <pt x="168" y="151" on="0"/>
        <pt x="226" y="98" on="0"/>
        <pt x="302" y="74" on="0"/>
        <pt x="340" y="74" on="1"/>
        <pt x="383" y="74" on="0"/>
        <pt x="460" y="103" on="0"/>
        <pt x="508" y="162" on="0"/>
        <pt x="508" y="205" on="1"/>
        <pt x="508" y="251" on="0"/>
        <pt x="444" y="305" on="0"/>
        <pt x="365" y="325" on="1"/>
        <pt x="274" y="346" on="1"/>
        <pt x="225" y="359" on="0"/>
        <pt x="129" y="404" on="0"/>
        <pt x="68" y="486" on="0"/>
        <pt x="68" y="555" on="1"/>
        <pt x="68" y="617" on="0"/>
        <pt x="144" y="705" on="0"/>
        <pt x="265" y="752" on="0"/>
        <pt x="331" y="752" on="1"/>
        <pt x="381" y="752" on="0"/>
        <pt x="478" y="723" on="0"/>
        <pt x="556" y="662" on="0"/>
        <pt x="579" y="614" on="1"/>
        <pt x="487" y="586" on="1"/>
        <pt x="466" y="624" on="0"/>
        <pt x="375" y="665" on="0"/>
        <pt x="326" y="665" on="1"/>
        <pt x="288" y="665" on="0"/>
        <pt x="217" y="640" on="0"/>
        <pt x="172" y="588" on="0"/>
        <pt x="172" y="550" on="1"/>
        <pt x="172" y="513" on="0"/>
        <pt x="214" y="469" on="0"/>
        <pt x="283" y="443" on="0"/>
        <pt x="325" y="433" on="1"/>
        <pt x="403" y="416" on="1"/>
        <pt x="458" y="403" on="0"/>
        <pt x="554" y="356" on="0"/>
        <pt x="614" y="272" on="0"/>
        <pt x="614" y="201" on="1"/>
        <pt x="614" y="151" on="0"/>
        <pt x="567" y="70" on="0"/>
        <pt x="488" y="15" on="0"/>
        <pt x="388" y="-13" on="0"/>
      </contour>
    </TTGlyph>
    <TTGlyph name="Sacute" xMin="62" yMin="-13" xMax="614" yMax="944">
      <contour>
        <pt x="336" y="-13" on="1"/>
        <pt x="277" y="-13" on="0"/>
        <pt x="166" y="24" on="0"/>
        <pt x="81" y="101" on="0"/>
        <pt x="62" y="160" on="1"/>
        <pt x="155" y="188" on="1"/>
        <pt x="168" y="149" on="0"/>
        <pt x="226" y="97" on="0"/>
        <pt x="302" y="73" on="0"/>
        <pt x="340" y="73" on="1"/>
        <pt x="383" y="73" on="0"/>
        <pt x="460" y="102" on="0"/>
        <pt x="508" y="160" on="0"/>
        <pt x="508" y="203" on="1"/>
        <pt x="508" y="248" on="0"/>
        <pt x="444" y="301" on="0"/>
        <pt x="365" y="321" on="1"/>
        <pt x="274" y="342" on="1"/>
        <pt x="225" y="355" on="0"/>
        <pt x="129" y="399" on="0"/>
        <pt x="68" y="480" on="0"/>
        <pt x="68" y="548" on="1"/>
        <pt x="68" y="610" on="0"/>
        <pt x="144" y="697" on="0"/>
        <pt x="265" y="743" on="0"/>
        <pt x="331" y="743" on="1"/>
        <pt x="381" y="743" on="0"/>
        <pt x="478" y="714" on="0"/>
        <pt x="556" y="654" on="0"/>
        <pt x="579" y="607" on="1"/>
        <pt x="487" y="579" on="1"/>
        <pt x="466" y="617" on="0"/>
        <pt x="375" y="657" on="0"/>
        <pt x="326" y="657" on="1"/>
        <pt x="288" y="657" on="0"/>
        <pt x="217" y="632" on="0"/>
        <pt x="172" y="581" on="0"/>
        <pt x="172" y="543" on="1"/>
        <pt x="172" y="507" on="0"/>
        <pt x="214" y="463" on="0"/>
        <pt x="283" y="438" on="0"/>
        <pt x="325" y="428" on="1"/>
        <pt x="403" y="411" on="1"/>
        <pt x="458" y="398" on="0"/>
        <pt x="554" y="352" on="0"/>
        <pt x="614" y="269" on="0"/>
        <pt x="614" y="199" on="1"/>
        <pt x="614" y="149" on="0"/>
        <pt x="567" y="69" on="0"/>
        <pt x="488" y="15" on="0"/>
        <pt x="388" y="-13" on="0"/>
      </contour>
      <contour>
        <pt x="276" y="813" on="1"/>
        <pt x="279" y="816" on="0"/>
        <pt x="310" y="849" on="0"/>
        <pt x="350" y="891" on="0"/>
        <pt x="384" y="926" on="0"/>
        <pt x="390" y="931" on="1"/>
        <pt x="405" y="944" on="0"/>
        <pt x="421" y="944" on="1"/>
        <pt x="438" y="944" on="0"/>
        <pt x="460" y="921" on="0"/>
        <pt x="460" y="905" on="1"/>
        <pt x="460" y="884" on="0"/>
        <pt x="443" y="870" on="1"/>
        <pt x="434" y="862" on="0"/>
        <pt x="395" y="836" on="0"/>
        <pt x="360" y="815" on="0"/>
        <pt x="357" y="813" on="1"/>
      </contour>
    </TTGlyph>
    <TTGlyph name="Scaron" xMin="62" yMin="-13" xMax="614" yMax="941">
      <contour>
        <pt x="336" y="-13" on="1"/>
        <pt x="277" y="-13" on="0"/>
        <pt x="166" y="24" on="0"/>
        <pt x="81" y="101" on="0"/>
        <pt x="62" y="160" on="1"/>
        <pt x="155" y="188" on="1"/>
        <pt x="168" y="149" on="0"/>
        <pt x="226" y="97" on="0"/>
        <pt x="302" y="73" on="0"/>
        <pt x="340" y="73" on="1"/>
        <pt x="383" y="73" on="0"/>
        <pt x="460" y="102" on="0"/>
        <pt x="508" y="160" on="0"/>
        <pt x="508" y="203" on="1"/>
        <pt x="508" y="248" on="0"/>
        <pt x="444" y="301" on="0"/>
        <pt x="365" y="321" on="1"/>
        <pt x="274" y="342" on="1"/>
        <pt x="225" y="355" on="0"/>
        <pt x="129" y="399" on="0"/>
        <pt x="68" y="480" on="0"/>
        <pt x="68" y="548" on="1"/>
        <pt x="68" y="610" on="0"/>
        <pt x="144" y="697" on="0"/>
        <pt x="265" y="743" on="0"/>
        <pt x="331" y="743" on="1"/>
        <pt x="381" y="743" on="0"/>
        <pt x="478" y="714" on="0"/>
        <pt x="556" y="654" on="0"/>
        <pt x="579" y="607" on="1"/>
        <pt x="487" y="579" on="1"/>
        <pt x="466" y="617" on="0"/>
        <pt x="375" y="657" on="0"/>
        <pt x="326" y="657" on="1"/>
        <pt x="288" y="657" on="0"/>
        <pt x="217" y="632" on="0"/>
        <pt x="172" y="581" on="0"/>
        <pt x="172" y="543" on="1"/>
        <pt x="172" y="507" on="0"/>
        <pt x="214" y="463" on="0"/>
        <pt x="283" y="438" on="0"/>
        <pt x="325" y="428" on="1"/>
        <pt x="403" y="411" on="1"/>
        <pt x="458" y="398" on="0"/>
        <pt x="554" y="352" on="0"/>
        <pt x="614" y="269" on="0"/>
        <pt x="614" y="199" on="1"/>
        <pt x="614" y="149" on="0"/>
        <pt x="567" y="69" on="0"/>
        <pt x="488" y="15" on="0"/>
        <pt x="388" y="-13" on="0"/>
      </contour>
      <contour>
        <pt x="338" y="810" on="1"/>
        <pt x="306" y="810" on="0"/>
        <pt x="285" y="831" on="1"/>
        <pt x="165" y="941" on="1"/>
        <pt x="265" y="941" on="1"/>
        <pt x="337" y="874" on="1"/>
        <pt x="410" y="941" on="1"/>
        <pt x="510" y="941" on="1"/>
        <pt x="390" y="831" on="1"/>
        <pt x="369" y="810" on="0"/>
      </contour>
    </TTGlyph>
    <TTGlyph name="Scedilla" xMin="62" yMin="-200" xMax="614" yMax="752">
      <contour>
        <pt x="336" y="-13" on="1"/>
        <pt x="277" y="-13" on="0"/>
        <pt x="166" y="24" on="0"/>
        <pt x="81" y="102" on="0"/>
        <pt x="62" y="162" on="1"/>
        <pt x="155" y="190" on="1"/>
        <pt x="168" y="151" on="0"/>
        <pt x="226" y="98" on="0"/>
        <pt x="302" y="74" on="0"/>
        <pt x="340" y="74" on="1"/>
        <pt x="383" y="74" on="0"/>
        <pt x="460" y="103" on="0"/>
        <pt x="508" y="162" on="0"/>
        <pt x="508" y="205" on="1"/>
        <pt x="508" y="251" on="0"/>
        <pt x="444" y="305" on="0"/>
        <pt x="365" y="325" on="1"/>
        <pt x="274" y="346" on="1"/>
        <pt x="225" y="359" on="0"/>
        <pt x="129" y="404" on="0"/>
        <pt x="68" y="486" on="0"/>
        <pt x="68" y="555" on="1"/>
        <pt x="68" y="617" on="0"/>
        <pt x="144" y="705" on="0"/>
        <pt x="265" y="752" on="0"/>
        <pt x="331" y="752" on="1"/>
        <pt x="381" y="752" on="0"/>
        <pt x="478" y="723" on="0"/>
        <pt x="556" y="662" on="0"/>
        <pt x="579" y="614" on="1"/>
        <pt x="487" y="586" on="1"/>
        <pt x="466" y="624" on="0"/>
        <pt x="375" y="665" on="0"/>
        <pt x="326" y="665" on="1"/>
        <pt x="288" y="665" on="0"/>
        <pt x="217" y="640" on="0"/>
        <pt x="172" y="588" on="0"/>
        <pt x="172" y="550" on="1"/>
        <pt x="172" y="513" on="0"/>
        <pt x="214" y="469" on="0"/>
        <pt x="283" y="443" on="0"/>
        <pt x="325" y="433" on="1"/>
        <pt x="403" y="416" on="1"/>
        <pt x="458" y="403" on="0"/>
        <pt x="554" y="356" on="0"/>
        <pt x="614" y="272" on="0"/>
        <pt x="614" y="201" on="1"/>
        <pt x="614" y="151" on="0"/>
        <pt x="567" y="70" on="0"/>
        <pt x="488" y="15" on="0"/>
        <pt x="388" y="-13" on="0"/>
      </contour>
      <contour>
        <pt x="337" y="-200" on="1"/>
        <pt x="317" y="-200" on="0"/>
        <pt x="271" y="-189" on="0"/>
        <pt x="243" y="-178" on="1"/>
        <pt x="258" y="-140" on="1"/>
        <pt x="276" y="-147" on="0"/>
        <pt x="307" y="-155" on="0"/>
        <pt x="320" y="-155" on="1"/>
        <pt x="348" y="-155" on="0"/>
        <pt x="374" y="-131" on="0"/>
        <pt x="374" y="-117" on="1"/>
        <pt x="374" y="-106" on="0"/>
        <pt x="356" y="-90" on="0"/>
        <pt x="336" y="-90" on="1"/>
        <pt x="328" y="-90" on="0"/>
        <pt x="312" y="-93" on="0"/>
        <pt x="303" y="-95" on="1"/>
        <pt x="289" y="-99" on="0"/>
        <pt x="273" y="-84" on="0"/>
        <pt x="273" y="-74" on="1"/>
        <pt x="273" y="-68" on="0"/>
        <pt x="276" y="-63" on="1"/>
        <pt x="331" y="27" on="1"/>
        <pt x="367" y="4" on="1"/>
        <pt x="335" y="-50" on="1"/>
        <pt x="343" y="-48" on="0"/>
        <pt x="359" y="-46" on="0"/>
        <pt x="367" y="-46" on="1"/>
        <pt x="404" y="-46" on="0"/>
        <pt x="441" y="-86" on="0"/>
        <pt x="441" y="-112" on="1"/>
        <pt x="441" y="-144" on="0"/>
        <pt x="389" y="-200" on="0"/>
      </contour>
    </TTGlyph>
    <TTGlyph name="Scircumflex" xMin="62" yMin="-13" xMax="614" yMax="950">
      <component glyphName="S" x="0" y="0" flags="0x204"/>
      <component glyphName="uni0302.case" x="98" y="0" flags="0x4"/>
    </TTGlyph>
    <TTGlyph name="Sigma" xMin="60" yMin="0" xMax="569" yMax="739">
      <contour>
        <pt x="60" y="0" on="1"/>
        <pt x="60" y="81" on="1"/>
        <pt x="308" y="375" on="1"/>
        <pt x="60" y="658" on="1"/>
        <pt x="60" y="739" on="1"/>
        <pt x="569" y="739" on="1"/>
        <pt x="569" y="658" on="1"/>
        <pt x="174" y="658" on="1"/>
        <pt x="425" y="380" on="1"/>
        <pt x="173" y="81" on="1"/>
        <pt x="569" y="81" on="1"/>
        <pt x="569" y="0" on="1"/>
      </contour>
    </TTGlyph>
    <TTGlyph name="T" xMin="58" yMin="0" xMax="632" yMax="739">
      <contour>
        <pt x="295" y="0" on="1"/>
        <pt x="295" y="649" on="1"/>
        <pt x="58" y="649" on="1"/>
        <pt x="58" y="739" on="1"/>
        <pt x="632" y="739" on="1"/>
        <pt x="632" y="649" on="1"/>
        <pt x="395" y="649" on="1"/>
        <pt x="395" y="0" on="1"/>
      </contour>
    </TTGlyph>
    <TTGlyph name="Tau" xMin="82" yMin="0" xMax="656" yMax="739">
      <component glyphName="T" x="24" y="0" flags="0x4"/>
    </TTGlyph>
    <TTGlyph name="Tbar" xMin="61" yMin="0" xMax="585" yMax="739">
      <contour>
        <pt x="275" y="0" on="1"/>
        <pt x="275" y="299" on="1"/>
        <pt x="120" y="299" on="1"/>
        <pt x="120" y="374" on="1"/>
        <pt x="275" y="374" on="1"/>
        <pt x="275" y="656" on="1"/>
        <pt x="61" y="656" on="1"/>
        <pt x="61" y="739" on="1"/>
        <pt x="585" y="739" on="1"/>
        <pt x="585" y="656" on="1"/>
        <pt x="371" y="656" on="1"/>
        <pt x="371" y="374" on="1"/>
        <pt x="526" y="374" on="1"/>
        <pt x="526" y="299" on="1"/>
        <pt x="371" y="299" on="1"/>
        <pt x="371" y="0" on="1"/>
      </contour>
    </TTGlyph>
    <TTGlyph name="Tcaron" xMin="58" yMin="0" xMax="632" yMax="941">
      <contour>
        <pt x="295" y="0" on="1"/>
        <pt x="295" y="641" on="1"/>
        <pt x="58" y="641" on="1"/>
        <pt x="58" y="730" on="1"/>
        <pt x="632" y="730" on="1"/>
        <pt x="632" y="641" on="1"/>
        <pt x="395" y="641" on="1"/>
        <pt x="395" y="0" on="1"/>
      </contour>
      <contour>
        <pt x="345" y="810" on="1"/>
        <pt x="313" y="810" on="0"/>
        <pt x="292" y="831" on="1"/>
        <pt x="173" y="941" on="1"/>
        <pt x="272" y="941" on="1"/>
        <pt x="344" y="874" on="1"/>
        <pt x="417" y="941" on="1"/>
        <pt x="516" y="941" on="1"/>
        <pt x="397" y="831" on="1"/>
        <pt x="376" y="810" on="0"/>
      </contour>
    </TTGlyph>
    <TTGlyph name="Theta" xMin="57" yMin="-10" xMax="511" yMax="749">
      <contour>
        <pt x="284" y="-10" on="1"/>
        <pt x="179" y="-10" on="0"/>
        <pt x="57" y="103" on="0"/>
        <pt x="57" y="202" on="1"/>
        <pt x="57" y="536" on="1"/>
        <pt x="57" y="636" on="0"/>
        <pt x="179" y="749" on="0"/>
        <pt x="284" y="749" on="1"/>
        <pt x="389" y="749" on="0"/>
        <pt x="511" y="637" on="0"/>
        <pt x="511" y="537" on="1"/>
        <pt x="511" y="202" on="1"/>
        <pt x="511" y="103" on="0"/>
        <pt x="389" y="-10" on="0"/>
      </contour>
      <contour>
        <pt x="284" y="72" on="1"/>
        <pt x="347" y="72" on="0"/>
        <pt x="415" y="140" on="0"/>
        <pt x="415" y="202" on="1"/>
        <pt x="415" y="536" on="1"/>
        <pt x="415" y="599" on="0"/>
        <pt x="347" y="667" on="0"/>
        <pt x="284" y="667" on="1"/>
        <pt x="222" y="667" on="0"/>
        <pt x="153" y="599" on="0"/>
        <pt x="153" y="536" on="1"/>
        <pt x="153" y="202" on="1"/>
        <pt x="153" y="140" on="0"/>
        <pt x="222" y="72" on="0"/>
      </contour>
      <contour>
        <pt x="188" y="329" on="1"/>
        <pt x="188" y="412" on="1"/>
        <pt x="380" y="412" on="1"/>
        <pt x="380" y="329" on="1"/>
      </contour>
    </TTGlyph>
    <TTGlyph name="Thorn" xMin="59" yMin="0" xMax="553" yMax="739">
      <contour>
        <pt x="59" y="0" on="1"/>
        <pt x="59" y="739" on="1"/>
        <pt x="149" y="739" on="1"/>
        <pt x="149" y="584" on="1"/>
        <pt x="285" y="584" on="1"/>
        <pt x="364" y="584" on="0"/>
        <pt x="485" y="552" on="0"/>
        <pt x="553" y="465" on="0"/>
        <pt x="553" y="382" on="1"/>
        <pt x="553" y="299" on="0"/>
        <pt x="485" y="213" on="0"/>
        <pt x="364" y="180" on="0"/>
        <pt x="285" y="180" on="1"/>
        <pt x="149" y="180" on="1"/>
        <pt x="149" y="0" on="1"/>
      </contour>
      <contour>
        <pt x="149" y="270" on="1"/>
        <pt x="294" y="270" on="1"/>
        <pt x="338" y="270" on="0"/>
        <pt x="408" y="283" on="0"/>
        <pt x="449" y="330" on="0"/>
        <pt x="449" y="381" on="1"/>
        <pt x="449" y="431" on="0"/>
        <pt x="408" y="479" on="0"/>
        <pt x="338" y="494" on="0"/>
        <pt x="294" y="494" on="1"/>
        <pt x="149" y="494" on="1"/>
      </contour>
    </TTGlyph>
    <TTGlyph name="U" xMin="58" yMin="-13" xMax="632" yMax="739">
      <contour>
        <pt x="345" y="-13" on="1"/>
        <pt x="191" y="-13" on="0"/>
        <pt x="58" y="147" on="0"/>
        <pt x="58" y="309" on="1"/>
        <pt x="58" y="739" on="1"/>
        <pt x="159" y="739" on="1"/>
        <pt x="159" y="301" on="1"/>
        <pt x="159" y="191" on="0"/>
        <pt x="242" y="76" on="0"/>
        <pt x="345" y="76" on="1"/>
        <pt x="448" y="76" on="0"/>
        <pt x="531" y="191" on="0"/>
        <pt x="531" y="301" on="1"/>
        <pt x="531" y="739" on="1"/>
        <pt x="632" y="739" on="1"/>
        <pt x="632" y="309" on="1"/>
        <pt x="632" y="147" on="0"/>
        <pt x="500" y="-13" on="0"/>
      </contour>
    </TTGlyph>
    <TTGlyph name="Uacute" xMin="58" yMin="-13" xMax="632" yMax="944">
      <contour>
        <pt x="345" y="-13" on="1"/>
        <pt x="191" y="-13" on="0"/>
        <pt x="58" y="145" on="0"/>
        <pt x="58" y="305" on="1"/>
        <pt x="58" y="730" on="1"/>
        <pt x="159" y="730" on="1"/>
        <pt x="159" y="297" on="1"/>
        <pt x="159" y="189" on="0"/>
        <pt x="242" y="75" on="0"/>
        <pt x="345" y="75" on="1"/>
        <pt x="448" y="75" on="0"/>
        <pt x="531" y="189" on="0"/>
        <pt x="531" y="297" on="1"/>
        <pt x="531" y="730" on="1"/>
        <pt x="632" y="730" on="1"/>
        <pt x="632" y="305" on="1"/>
        <pt x="632" y="145" on="0"/>
        <pt x="500" y="-13" on="0"/>
      </contour>
      <contour>
        <pt x="283" y="813" on="1"/>
        <pt x="286" y="816" on="0"/>
        <pt x="317" y="849" on="0"/>
        <pt x="357" y="891" on="0"/>
        <pt x="391" y="926" on="0"/>
        <pt x="397" y="931" on="1"/>
        <pt x="412" y="944" on="0"/>
        <pt x="428" y="944" on="1"/>
        <pt x="445" y="944" on="0"/>
        <pt x="467" y="921" on="0"/>
        <pt x="467" y="905" on="1"/>
        <pt x="467" y="884" on="0"/>
        <pt x="450" y="870" on="1"/>
        <pt x="441" y="862" on="0"/>
        <pt x="402" y="836" on="0"/>
        <pt x="367" y="815" on="0"/>
        <pt x="364" y="813" on="1"/>
      </contour>
    </TTGlyph>
    <TTGlyph name="Ubreve" xMin="58" yMin="-13" xMax="632" yMax="950">
      <component glyphName="U" x="0" y="0" flags="0x204"/>
      <component glyphName="uni0306.case" x="128" y="0" flags="0x4"/>
    </TTGlyph>
    <TTGlyph name="Ucircumflex" xMin="58" yMin="-13" xMax="632" yMax="947">
      <contour>
        <pt x="345" y="-13" on="1"/>
        <pt x="191" y="-13" on="0"/>
        <pt x="58" y="145" on="0"/>
        <pt x="58" y="305" on="1"/>
        <pt x="58" y="730" on="1"/>
        <pt x="159" y="730" on="1"/>
        <pt x="159" y="297" on="1"/>
        <pt x="159" y="189" on="0"/>
        <pt x="242" y="75" on="0"/>
        <pt x="345" y="75" on="1"/>
        <pt x="448" y="75" on="0"/>
        <pt x="531" y="189" on="0"/>
        <pt x="531" y="297" on="1"/>
        <pt x="531" y="730" on="1"/>
        <pt x="632" y="730" on="1"/>
        <pt x="632" y="305" on="1"/>
        <pt x="632" y="145" on="0"/>
        <pt x="500" y="-13" on="0"/>
      </contour>
      <contour>
        <pt x="173" y="816" on="1"/>
        <pt x="292" y="927" on="1"/>
        <pt x="313" y="947" on="0"/>
        <pt x="345" y="947" on="1"/>
        <pt x="376" y="947" on="0"/>
        <pt x="397" y="927" on="1"/>
        <pt x="516" y="816" on="1"/>
        <pt x="417" y="816" on="1"/>
        <pt x="344" y="883" on="1"/>
        <pt x="272" y="816" on="1"/>
      </contour>
    </TTGlyph>
    <TTGlyph name="Udieresis" xMin="58" yMin="-13" xMax="632" yMax="926">
      <contour>
        <pt x="345" y="-13" on="1"/>
        <pt x="191" y="-13" on="0"/>
        <pt x="58" y="145" on="0"/>
        <pt x="58" y="305" on="1"/>
        <pt x="58" y="730" on="1"/>
        <pt x="159" y="730" on="1"/>
        <pt x="159" y="297" on="1"/>
        <pt x="159" y="189" on="0"/>
        <pt x="242" y="75" on="0"/>
        <pt x="345" y="75" on="1"/>
        <pt x="448" y="75" on="0"/>
        <pt x="531" y="189" on="0"/>
        <pt x="531" y="297" on="1"/>
        <pt x="531" y="730" on="1"/>
        <pt x="632" y="730" on="1"/>
        <pt x="632" y="305" on="1"/>
        <pt x="632" y="145" on="0"/>
        <pt x="500" y="-13" on="0"/>
      </contour>
      <contour>
        <pt x="232" y="809" on="1"/>
        <pt x="208" y="809" on="0"/>
        <pt x="175" y="844" on="0"/>
        <pt x="175" y="868" on="1"/>
        <pt x="175" y="892" on="0"/>
        <pt x="208" y="926" on="0"/>
        <pt x="232" y="926" on="1"/>
        <pt x="256" y="926" on="0"/>
        <pt x="289" y="892" on="0"/>
        <pt x="289" y="868" on="1"/>
        <pt x="289" y="844" on="0"/>
        <pt x="256" y="809" on="0"/>
      </contour>
      <contour>
        <pt x="457" y="809" on="1"/>
        <pt x="434" y="809" on="0"/>
        <pt x="401" y="844" on="0"/>
        <pt x="401" y="868" on="1"/>
        <pt x="401" y="892" on="0"/>
        <pt x="434" y="926" on="0"/>
        <pt x="457" y="926" on="1"/>
        <pt x="482" y="926" on="0"/>
        <pt x="514" y="892" on="0"/>
        <pt x="514" y="868" on="1"/>
        <pt x="514" y="844" on="0"/>
        <pt x="482" y="809" on="0"/>
      </contour>
    </TTGlyph>
    <TTGlyph name="Ugrave" xMin="58" yMin="-13" xMax="632" yMax="944">
      <contour>
        <pt x="345" y="-13" on="1"/>
        <pt x="191" y="-13" on="0"/>
        <pt x="58" y="145" on="0"/>
        <pt x="58" y="305" on="1"/>
        <pt x="58" y="730" on="1"/>
        <pt x="159" y="730" on="1"/>
        <pt x="159" y="297" on="1"/>
        <pt x="159" y="189" on="0"/>
        <pt x="242" y="75" on="0"/>
        <pt x="345" y="75" on="1"/>
        <pt x="448" y="75" on="0"/>
        <pt x="531" y="189" on="0"/>
        <pt x="531" y="297" on="1"/>
        <pt x="531" y="730" on="1"/>
        <pt x="632" y="730" on="1"/>
        <pt x="632" y="305" on="1"/>
        <pt x="632" y="145" on="0"/>
        <pt x="500" y="-13" on="0"/>
      </contour>
      <contour>
        <pt x="318" y="813" on="1"/>
        <pt x="315" y="815" on="0"/>
        <pt x="281" y="836" on="0"/>
        <pt x="241" y="862" on="0"/>
        <pt x="232" y="870" on="1"/>
        <pt x="214" y="885" on="0"/>
        <pt x="214" y="905" on="1"/>
        <pt x="214" y="921" on="0"/>
        <pt x="237" y="944" on="0"/>
        <pt x="253" y="944" on="1"/>
        <pt x="262" y="944" on="0"/>
        <pt x="279" y="939" on="0"/>
        <pt x="286" y="930" on="1"/>
        <pt x="400" y="813" on="1"/>
      </contour>
    </TTGlyph>
    <TTGlyph name="Uhorn" xMin="58" yMin="-13" xMax="653" yMax="840">
      <component glyphName="U" x="0" y="0" flags="0x204"/>
      <component glyphName="uni031B" x="407" y="180" flags="0x4"/>
    </TTGlyph>
    <TTGlyph name="Uhungarumlaut" xMin="58" yMin="-13" xMax="632" yMax="962">
      <contour>
        <pt x="345" y="-13" on="1"/>
        <pt x="191" y="-13" on="0"/>
        <pt x="58" y="145" on="0"/>
        <pt x="58" y="305" on="1"/>
        <pt x="58" y="730" on="1"/>
        <pt x="159" y="730" on="1"/>
        <pt x="159" y="297" on="1"/>
        <pt x="159" y="189" on="0"/>
        <pt x="242" y="75" on="0"/>
        <pt x="345" y="75" on="1"/>
        <pt x="448" y="75" on="0"/>
        <pt x="531" y="189" on="0"/>
        <pt x="531" y="297" on="1"/>
        <pt x="531" y="730" on="1"/>
        <pt x="632" y="730" on="1"/>
        <pt x="632" y="305" on="1"/>
        <pt x="632" y="145" on="0"/>
        <pt x="500" y="-13" on="0"/>
      </contour>
      <contour>
        <pt x="223" y="813" on="1"/>
        <pt x="326" y="947" on="1"/>
        <pt x="336" y="962" on="0"/>
        <pt x="356" y="962" on="1"/>
        <pt x="373" y="962" on="0"/>
        <pt x="396" y="938" on="0"/>
        <pt x="396" y="920" on="1"/>
        <pt x="396" y="912" on="0"/>
        <pt x="392" y="897" on="0"/>
        <pt x="385" y="891" on="1"/>
        <pt x="298" y="813" on="1"/>
      </contour>
      <contour>
        <pt x="379" y="813" on="1"/>
        <pt x="482" y="947" on="1"/>
        <pt x="492" y="962" on="0"/>
        <pt x="511" y="962" on="1"/>
        <pt x="527" y="962" on="0"/>
        <pt x="552" y="937" on="0"/>
        <pt x="552" y="920" on="1"/>
        <pt x="552" y="912" on="0"/>
        <pt x="547" y="897" on="0"/>
        <pt x="540" y="891" on="1"/>
        <pt x="454" y="813" on="1"/>
      </contour>
    </TTGlyph>
    <TTGlyph name="Umacron" xMin="58" yMin="-13" xMax="632" yMax="906">
      <contour>
        <pt x="345" y="-13" on="1"/>
        <pt x="191" y="-13" on="0"/>
        <pt x="58" y="145" on="0"/>
        <pt x="58" y="305" on="1"/>
        <pt x="58" y="730" on="1"/>
        <pt x="159" y="730" on="1"/>
        <pt x="159" y="297" on="1"/>
        <pt x="159" y="189" on="0"/>
        <pt x="242" y="75" on="0"/>
        <pt x="345" y="75" on="1"/>
        <pt x="448" y="75" on="0"/>
        <pt x="531" y="189" on="0"/>
        <pt x="531" y="297" on="1"/>
        <pt x="531" y="730" on="1"/>
        <pt x="632" y="730" on="1"/>
        <pt x="632" y="305" on="1"/>
        <pt x="632" y="145" on="0"/>
        <pt x="500" y="-13" on="0"/>
      </contour>
      <contour>
        <pt x="198" y="833" on="1"/>
        <pt x="198" y="906" on="1"/>
        <pt x="492" y="906" on="1"/>
        <pt x="492" y="833" on="1"/>
      </contour>
    </TTGlyph>
    <TTGlyph name="Uogonek" xMin="58" yMin="-191" xMax="632" yMax="739">
      <contour>
        <pt x="345" y="-13" on="1"/>
        <pt x="191" y="-13" on="0"/>
        <pt x="58" y="147" on="0"/>
        <pt x="58" y="309" on="1"/>
        <pt x="58" y="739" on="1"/>
        <pt x="159" y="739" on="1"/>
        <pt x="159" y="301" on="1"/>
        <pt x="159" y="191" on="0"/>
        <pt x="242" y="76" on="0"/>
        <pt x="345" y="76" on="1"/>
        <pt x="448" y="76" on="0"/>
        <pt x="531" y="191" on="0"/>
        <pt x="531" y="301" on="1"/>
        <pt x="531" y="739" on="1"/>
        <pt x="632" y="739" on="1"/>
        <pt x="632" y="309" on="1"/>
        <pt x="632" y="147" on="0"/>
        <pt x="500" y="-13" on="0"/>
      </contour>
      <contour>
        <pt x="365" y="-191" on="1"/>
        <pt x="317" y="-191" on="0"/>
        <pt x="265" y="-136" on="0"/>
        <pt x="265" y="-100" on="1"/>
        <pt x="265" y="-61" on="0"/>
        <pt x="305" y="-11" on="0"/>
        <pt x="326" y="0" on="1"/>
        <pt x="433" y="0" on="1"/>
        <pt x="388" y="-16" on="0"/>
        <pt x="340" y="-53" on="0"/>
        <pt x="340" y="-82" on="1"/>
        <pt x="340" y="-105" on="0"/>
        <pt x="370" y="-128" on="0"/>
        <pt x="392" y="-128" on="1"/>
        <pt x="402" y="-128" on="0"/>
        <pt x="422" y="-122" on="0"/>
        <pt x="433" y="-118" on="1"/>
        <pt x="433" y="-178" on="1"/>
        <pt x="396" y="-191" on="0"/>
      </contour>
    </TTGlyph>
    <TTGlyph name="Upsilon" xMin="82" yMin="0" xMax="656" yMax="739">
      <component glyphName="Y" x="24" y="0" flags="0x4"/>
    </TTGlyph>
    <TTGlyph name="Upsilondieresis" xMin="58" yMin="0" xMax="632" yMax="945">
      <component glyphName="uni0308.case" x="112" y="0" flags="0x4"/>
      <component glyphName="Y" x="0" y="0" flags="0x204"/>
    </TTGlyph>
    <TTGlyph name="Upsilontonos" xMin="-82" yMin="0" xMax="632" yMax="739">
      <component glyphName="tonos.case" x="-184" y="0" flags="0x4"/>
      <component glyphName="Y" x="0" y="0" flags="0x204"/>
    </TTGlyph>
    <TTGlyph name="Uring" xMin="58" yMin="-13" xMax="632" yMax="970">
      <contour>
        <pt x="345" y="-13" on="1"/>
        <pt x="191" y="-13" on="0"/>
        <pt x="58" y="145" on="0"/>
        <pt x="58" y="305" on="1"/>
        <pt x="58" y="730" on="1"/>
        <pt x="159" y="730" on="1"/>
        <pt x="159" y="297" on="1"/>
        <pt x="159" y="189" on="0"/>
        <pt x="242" y="75" on="0"/>
        <pt x="345" y="75" on="1"/>
        <pt x="448" y="75" on="0"/>
        <pt x="531" y="189" on="0"/>
        <pt x="531" y="297" on="1"/>
        <pt x="531" y="730" on="1"/>
        <pt x="632" y="730" on="1"/>
        <pt x="632" y="305" on="1"/>
        <pt x="632" y="145" on="0"/>
        <pt x="500" y="-13" on="0"/>
      </contour>
      <contour>
        <pt x="347" y="732" on="1"/>
        <pt x="314" y="732" on="0"/>
        <pt x="260" y="765" on="0"/>
        <pt x="228" y="820" on="0"/>
        <pt x="228" y="851" on="1"/>
        <pt x="228" y="884" on="0"/>
        <pt x="260" y="938" on="0"/>
        <pt x="314" y="970" on="0"/>
        <pt x="347" y="970" on="1"/>
        <pt x="396" y="970" on="0"/>
        <pt x="462" y="899" on="0"/>
        <pt x="462" y="851" on="1"/>
        <pt x="462" y="803" on="0"/>
        <pt x="396" y="732" on="0"/>
      </contour>
      <contour>
        <pt x="345" y="796" on="1"/>
        <pt x="369" y="796" on="0"/>
        <pt x="401" y="828" on="0"/>
        <pt x="401" y="851" on="1"/>
        <pt x="401" y="874" on="0"/>
        <pt x="369" y="907" on="0"/>
        <pt x="345" y="907" on="1"/>
        <pt x="321" y="907" on="0"/>
        <pt x="289" y="874" on="0"/>
        <pt x="289" y="851" on="1"/>
        <pt x="289" y="828" on="0"/>
        <pt x="321" y="796" on="0"/>
      </contour>
    </TTGlyph>
    <TTGlyph name="Utilde" xMin="58" yMin="-13" xMax="632" yMax="945">
      <component glyphName="U" x="0" y="0" flags="0x204"/>
      <component glyphName="tildecomb.case" x="128" y="0" flags="0x4"/>
    </TTGlyph>
    <TTGlyph name="V" xMin="58" yMin="0" xMax="632" yMax="739">
      <contour>
        <pt x="289" y="0" on="1"/>
        <pt x="58" y="739" on="1"/>
        <pt x="162" y="739" on="1"/>
        <pt x="345" y="121" on="1"/>
        <pt x="528" y="739" on="1"/>
        <pt x="632" y="739" on="1"/>
        <pt x="400" y="0" on="1"/>
      </contour>
    </TTGlyph>
    <TTGlyph name="W" xMin="80" yMin="0" xMax="640" yMax="739">
      <contour>
        <pt x="195" y="0" on="1"/>
        <pt x="80" y="739" on="1"/>
        <pt x="150" y="739" on="1"/>
        <pt x="239" y="129" on="1"/>
        <pt x="322" y="739" on="1"/>
        <pt x="398" y="739" on="1"/>
        <pt x="481" y="129" on="1"/>
        <pt x="570" y="739" on="1"/>
        <pt x="640" y="739" on="1"/>
        <pt x="526" y="0" on="1"/>
        <pt x="448" y="0" on="1"/>
        <pt x="360" y="610" on="1"/>
        <pt x="272" y="0" on="1"/>
      </contour>
    </TTGlyph>
    <TTGlyph name="Wacute" xMin="80" yMin="0" xMax="640" yMax="950">
      <component glyphName="W" x="0" y="0" flags="0x204"/>
      <component glyphName="acutecomb.case" x="215" y="0" flags="0x4"/>
    </TTGlyph>
    <TTGlyph name="Wcircumflex" xMin="80" yMin="0" xMax="640" yMax="950">
      <component glyphName="W" x="0" y="0" flags="0x204"/>
      <component glyphName="uni0302.case" x="120" y="0" flags="0x4"/>
    </TTGlyph>
    <TTGlyph name="Wdieresis" xMin="80" yMin="0" xMax="640" yMax="945">
      <component glyphName="W" x="0" y="0" flags="0x204"/>
      <component glyphName="uni0308.case" x="127" y="0" flags="0x4"/>
    </TTGlyph>
    <TTGlyph name="Wgrave" xMin="80" yMin="0" xMax="640" yMax="950">
      <component glyphName="W" x="0" y="0" flags="0x204"/>
      <component glyphName="gravecomb.case" x="127" y="0" flags="0x4"/>
    </TTGlyph>
    <TTGlyph name="X" xMin="58" yMin="0" xMax="632" yMax="739">
      <contour>
        <pt x="58" y="0" on="1"/>
        <pt x="292" y="381" on="1"/>
        <pt x="71" y="739" on="1"/>
        <pt x="178" y="739" on="1"/>
        <pt x="345" y="468" on="1"/>
        <pt x="511" y="739" on="1"/>
        <pt x="619" y="739" on="1"/>
        <pt x="399" y="381" on="1"/>
        <pt x="632" y="0" on="1"/>
        <pt x="525" y="0" on="1"/>
        <pt x="345" y="293" on="1"/>
        <pt x="165" y="0" on="1"/>
      </contour>
    </TTGlyph>
    <TTGlyph name="Xi" xMin="58" yMin="0" xMax="528" yMax="739">
      <contour>
        <pt x="58" y="656" on="1"/>
        <pt x="58" y="739" on="1"/>
        <pt x="528" y="739" on="1"/>
        <pt x="528" y="656" on="1"/>
      </contour>
      <contour>
        <pt x="90" y="333" on="1"/>
        <pt x="90" y="416" on="1"/>
        <pt x="496" y="416" on="1"/>
        <pt x="496" y="333" on="1"/>
      </contour>
      <contour>
        <pt x="58" y="0" on="1"/>
        <pt x="58" y="83" on="1"/>
        <pt x="528" y="83" on="1"/>
        <pt x="528" y="0" on="1"/>
      </contour>
    </TTGlyph>
    <TTGlyph name="Y" xMin="58" yMin="0" xMax="632" yMax="739">
      <contour>
        <pt x="299" y="0" on="1"/>
        <pt x="299" y="286" on="1"/>
        <pt x="58" y="739" on="1"/>
        <pt x="161" y="739" on="1"/>
        <pt x="345" y="382" on="1"/>
        <pt x="529" y="739" on="1"/>
        <pt x="632" y="739" on="1"/>
        <pt x="392" y="286" on="1"/>
        <pt x="392" y="0" on="1"/>
      </contour>
    </TTGlyph>
    <TTGlyph name="Yacute" xMin="58" yMin="0" xMax="632" yMax="944">
      <contour>
        <pt x="299" y="0" on="1"/>
        <pt x="299" y="283" on="1"/>
        <pt x="58" y="730" on="1"/>
        <pt x="161" y="730" on="1"/>
        <pt x="345" y="377" on="1"/>
        <pt x="529" y="730" on="1"/>
        <pt x="632" y="730" on="1"/>
        <pt x="392" y="283" on="1"/>
        <pt x="392" y="0" on="1"/>
      </contour>
      <contour>
        <pt x="287" y="813" on="1"/>
        <pt x="290" y="816" on="0"/>
        <pt x="319" y="849" on="0"/>
        <pt x="357" y="891" on="0"/>
        <pt x="389" y="926" on="0"/>
        <pt x="394" y="931" on="1"/>
        <pt x="408" y="944" on="0"/>
        <pt x="423" y="944" on="1"/>
        <pt x="438" y="944" on="0"/>
        <pt x="459" y="921" on="0"/>
        <pt x="459" y="905" on="1"/>
        <pt x="459" y="884" on="0"/>
        <pt x="443" y="870" on="1"/>
        <pt x="435" y="862" on="0"/>
        <pt x="399" y="836" on="0"/>
        <pt x="366" y="815" on="0"/>
        <pt x="363" y="813" on="1"/>
      </contour>
    </TTGlyph>
    <TTGlyph name="Ycircumflex" xMin="58" yMin="0" xMax="632" yMax="950">
      <component glyphName="Y" x="0" y="0" flags="0x204"/>
      <component glyphName="uni0302.case" x="104" y="0" flags="0x4"/>
    </TTGlyph>
    <TTGlyph name="Ydieresis" xMin="58" yMin="0" xMax="632" yMax="926">
      <contour>
        <pt x="299" y="0" on="1"/>
        <pt x="299" y="283" on="1"/>
        <pt x="58" y="730" on="1"/>
        <pt x="161" y="730" on="1"/>
        <pt x="345" y="377" on="1"/>
        <pt x="529" y="730" on="1"/>
        <pt x="632" y="730" on="1"/>
        <pt x="392" y="283" on="1"/>
        <pt x="392" y="0" on="1"/>
      </contour>
      <contour>
        <pt x="240" y="809" on="1"/>
        <pt x="218" y="809" on="0"/>
        <pt x="186" y="844" on="0"/>
        <pt x="186" y="868" on="1"/>
        <pt x="186" y="892" on="0"/>
        <pt x="218" y="926" on="0"/>
        <pt x="240" y="926" on="1"/>
        <pt x="263" y="926" on="0"/>
        <pt x="294" y="892" on="0"/>
        <pt x="294" y="868" on="1"/>
        <pt x="294" y="844" on="0"/>
        <pt x="263" y="809" on="0"/>
      </contour>
      <contour>
        <pt x="450" y="809" on="1"/>
        <pt x="428" y="809" on="0"/>
        <pt x="397" y="844" on="0"/>
        <pt x="397" y="868" on="1"/>
        <pt x="397" y="892" on="0"/>
        <pt x="428" y="926" on="0"/>
        <pt x="450" y="926" on="1"/>
        <pt x="473" y="926" on="0"/>
        <pt x="504" y="892" on="0"/>
        <pt x="504" y="868" on="1"/>
        <pt x="504" y="844" on="0"/>
        <pt x="473" y="809" on="0"/>
      </contour>
    </TTGlyph>
    <TTGlyph name="Ygrave" xMin="58" yMin="0" xMax="632" yMax="950">
      <component glyphName="Y" x="0" y="0" flags="0x204"/>
      <component glyphName="gravecomb.case" x="112" y="0" flags="0x4"/>
    </TTGlyph>
    <TTGlyph name="Z" xMin="62" yMin="0" xMax="617" yMax="739">
      <contour>
        <pt x="62" y="0" on="1"/>
        <pt x="62" y="90" on="1"/>
        <pt x="483" y="649" on="1"/>
        <pt x="78" y="649" on="1"/>
        <pt x="78" y="739" on="1"/>
        <pt x="601" y="739" on="1"/>
        <pt x="601" y="649" on="1"/>
        <pt x="182" y="90" on="1"/>
        <pt x="617" y="90" on="1"/>
        <pt x="617" y="0" on="1"/>
      </contour>
    </TTGlyph>
    <TTGlyph name="Zacute" xMin="62" yMin="0" xMax="617" yMax="944">
      <contour>
        <pt x="62" y="0" on="1"/>
        <pt x="62" y="89" on="1"/>
        <pt x="483" y="641" on="1"/>
        <pt x="78" y="641" on="1"/>
        <pt x="78" y="730" on="1"/>
        <pt x="601" y="730" on="1"/>
        <pt x="601" y="641" on="1"/>
        <pt x="182" y="89" on="1"/>
        <pt x="617" y="89" on="1"/>
        <pt x="617" y="0" on="1"/>
      </contour>
      <contour>
        <pt x="278" y="813" on="1"/>
        <pt x="281" y="816" on="0"/>
        <pt x="312" y="849" on="0"/>
        <pt x="352" y="891" on="0"/>
        <pt x="386" y="926" on="0"/>
        <pt x="393" y="931" on="1"/>
        <pt x="407" y="944" on="0"/>
        <pt x="424" y="944" on="1"/>
        <pt x="440" y="944" on="0"/>
        <pt x="462" y="921" on="0"/>
        <pt x="462" y="905" on="1"/>
        <pt x="462" y="884" on="0"/>
        <pt x="445" y="870" on="1"/>
        <pt x="436" y="862" on="0"/>
        <pt x="397" y="836" on="0"/>
        <pt x="363" y="815" on="0"/>
        <pt x="359" y="813" on="1"/>
      </contour>
    </TTGlyph>
    <TTGlyph name="Zcaron" xMin="62" yMin="0" xMax="617" yMax="941">
      <contour>
        <pt x="62" y="0" on="1"/>
        <pt x="62" y="89" on="1"/>
        <pt x="483" y="641" on="1"/>
        <pt x="78" y="641" on="1"/>
        <pt x="78" y="730" on="1"/>
        <pt x="601" y="730" on="1"/>
        <pt x="601" y="641" on="1"/>
        <pt x="182" y="89" on="1"/>
        <pt x="617" y="89" on="1"/>
        <pt x="617" y="0" on="1"/>
      </contour>
      <contour>
        <pt x="340" y="810" on="1"/>
        <pt x="308" y="810" on="0"/>
        <pt x="287" y="831" on="1"/>
        <pt x="167" y="941" on="1"/>
        <pt x="267" y="941" on="1"/>
        <pt x="339" y="874" on="1"/>
        <pt x="412" y="941" on="1"/>
        <pt x="512" y="941" on="1"/>
        <pt x="393" y="831" on="1"/>
        <pt x="371" y="810" on="0"/>
      </contour>
    </TTGlyph>
    <TTGlyph name="Zdotaccent" xMin="62" yMin="0" xMax="617" yMax="951">
      <contour>
        <pt x="62" y="0" on="1"/>
        <pt x="62" y="89" on="1"/>
        <pt x="483" y="641" on="1"/>
        <pt x="78" y="641" on="1"/>
        <pt x="78" y="730" on="1"/>
        <pt x="601" y="730" on="1"/>
        <pt x="601" y="641" on="1"/>
        <pt x="182" y="89" on="1"/>
        <pt x="617" y="89" on="1"/>
        <pt x="617" y="0" on="1"/>
      </contour>
      <contour>
        <pt x="340" y="833" on="1"/>
        <pt x="317" y="833" on="0"/>
        <pt x="282" y="868" on="0"/>
        <pt x="282" y="892" on="1"/>
        <pt x="282" y="917" on="0"/>
        <pt x="317" y="951" on="0"/>
        <pt x="340" y="951" on="1"/>
        <pt x="365" y="951" on="0"/>
        <pt x="398" y="917" on="0"/>
        <pt x="398" y="892" on="1"/>
        <pt x="398" y="868" on="0"/>
        <pt x="365" y="833" on="0"/>
      </contour>
    </TTGlyph>
    <TTGlyph name="Zeta" xMin="77" yMin="0" xMax="632" yMax="739">
      <component glyphName="Z" x="15" y="0" flags="0x4"/>
    </TTGlyph>
    <TTGlyph name="a" xMin="54" yMin="-14" xMax="521" yMax="584">
      <contour>
        <pt x="237" y="-14" on="1"/>
        <pt x="186" y="-14" on="0"/>
        <pt x="103" y="25" on="0"/>
        <pt x="54" y="100" on="0"/>
        <pt x="54" y="152" on="1"/>
        <pt x="54" y="220" on="0"/>
        <pt x="143" y="299" on="0"/>
        <pt x="304" y="341" on="0"/>
        <pt x="412" y="354" on="1"/>
        <pt x="414" y="427" on="0"/>
        <pt x="357" y="507" on="0"/>
        <pt x="292" y="507" on="1"/>
        <pt x="244" y="507" on="0"/>
        <pt x="183" y="459" on="0"/>
        <pt x="175" y="417" on="1"/>
        <pt x="88" y="445" on="1"/>
        <pt x="109" y="511" on="0"/>
        <pt x="220" y="584" on="0"/>
        <pt x="291" y="584" on="1"/>
        <pt x="401" y="584" on="0"/>
        <pt x="503" y="472" on="0"/>
        <pt x="503" y="351" on="1"/>
        <pt x="503" y="216" on="1"/>
        <pt x="503" y="145" on="0"/>
        <pt x="514" y="40" on="0"/>
        <pt x="521" y="0" on="1"/>
        <pt x="439" y="0" on="1"/>
        <pt x="418" y="78" on="1"/>
        <pt x="394" y="36" on="0"/>
        <pt x="306" y="-14" on="0"/>
      </contour>
      <contour>
        <pt x="256" y="64" on="1"/>
        <pt x="298" y="64" on="0"/>
        <pt x="373" y="96" on="0"/>
        <pt x="420" y="174" on="0"/>
        <pt x="420" y="241" on="1"/>
        <pt x="420" y="277" on="1"/>
        <pt x="338" y="267" on="0"/>
        <pt x="219" y="241" on="0"/>
        <pt x="153" y="193" on="0"/>
        <pt x="153" y="154" on="1"/>
        <pt x="153" y="113" on="0"/>
        <pt x="208" y="64" on="0"/>
      </contour>
    </TTGlyph>
    <TTGlyph name="aacute" xMin="54" yMin="-14" xMax="521" yMax="773">
      <contour>
        <pt x="237" y="-14" on="1"/>
        <pt x="186" y="-14" on="0"/>
        <pt x="103" y="25" on="0"/>
        <pt x="54" y="100" on="0"/>
        <pt x="54" y="152" on="1"/>
        <pt x="54" y="220" on="0"/>
        <pt x="143" y="299" on="0"/>
        <pt x="304" y="341" on="0"/>
        <pt x="412" y="354" on="1"/>
        <pt x="414" y="427" on="0"/>
        <pt x="357" y="507" on="0"/>
        <pt x="292" y="507" on="1"/>
        <pt x="244" y="507" on="0"/>
        <pt x="183" y="459" on="0"/>
        <pt x="175" y="417" on="1"/>
        <pt x="88" y="445" on="1"/>
        <pt x="109" y="511" on="0"/>
        <pt x="220" y="584" on="0"/>
        <pt x="291" y="584" on="1"/>
        <pt x="401" y="584" on="0"/>
        <pt x="503" y="472" on="0"/>
        <pt x="503" y="351" on="1"/>
        <pt x="503" y="216" on="1"/>
        <pt x="503" y="145" on="0"/>
        <pt x="514" y="40" on="0"/>
        <pt x="521" y="0" on="1"/>
        <pt x="439" y="0" on="1"/>
        <pt x="418" y="78" on="1"/>
        <pt x="394" y="36" on="0"/>
        <pt x="306" y="-14" on="0"/>
      </contour>
      <contour>
        <pt x="256" y="64" on="1"/>
        <pt x="298" y="64" on="0"/>
        <pt x="373" y="96" on="0"/>
        <pt x="420" y="174" on="0"/>
        <pt x="420" y="241" on="1"/>
        <pt x="420" y="277" on="1"/>
        <pt x="338" y="267" on="0"/>
        <pt x="219" y="241" on="0"/>
        <pt x="153" y="193" on="0"/>
        <pt x="153" y="154" on="1"/>
        <pt x="153" y="113" on="0"/>
        <pt x="208" y="64" on="0"/>
      </contour>
      <contour>
        <pt x="244" y="624" on="1"/>
        <pt x="247" y="628" on="0"/>
        <pt x="274" y="664" on="0"/>
        <pt x="308" y="710" on="0"/>
        <pt x="339" y="751" on="0"/>
        <pt x="347" y="758" on="1"/>
        <pt x="358" y="773" on="0"/>
        <pt x="377" y="773" on="1"/>
        <pt x="394" y="773" on="0"/>
        <pt x="418" y="750" on="0"/>
        <pt x="418" y="731" on="1"/>
        <pt x="418" y="723" on="0"/>
        <pt x="412" y="709" on="0"/>
        <pt x="404" y="700" on="1"/>
        <pt x="396" y="692" on="0"/>
        <pt x="358" y="657" on="0"/>
        <pt x="322" y="627" on="0"/>
        <pt x="319" y="624" on="1"/>
      </contour>
    </TTGlyph>
    <TTGlyph name="abreve" xMin="54" yMin="-14" xMax="521" yMax="753">
      <contour>
        <pt x="237" y="-14" on="1"/>
        <pt x="186" y="-14" on="0"/>
        <pt x="103" y="25" on="0"/>
        <pt x="54" y="100" on="0"/>
        <pt x="54" y="152" on="1"/>
        <pt x="54" y="220" on="0"/>
        <pt x="143" y="299" on="0"/>
        <pt x="304" y="341" on="0"/>
        <pt x="412" y="354" on="1"/>
        <pt x="414" y="427" on="0"/>
        <pt x="357" y="507" on="0"/>
        <pt x="292" y="507" on="1"/>
        <pt x="244" y="507" on="0"/>
        <pt x="183" y="459" on="0"/>
        <pt x="175" y="417" on="1"/>
        <pt x="88" y="445" on="1"/>
        <pt x="109" y="511" on="0"/>
        <pt x="220" y="584" on="0"/>
        <pt x="291" y="584" on="1"/>
        <pt x="401" y="584" on="0"/>
        <pt x="503" y="472" on="0"/>
        <pt x="503" y="351" on="1"/>
        <pt x="503" y="216" on="1"/>
        <pt x="503" y="145" on="0"/>
        <pt x="514" y="40" on="0"/>
        <pt x="521" y="0" on="1"/>
        <pt x="439" y="0" on="1"/>
        <pt x="418" y="78" on="1"/>
        <pt x="394" y="36" on="0"/>
        <pt x="306" y="-14" on="0"/>
      </contour>
      <contour>
        <pt x="256" y="64" on="1"/>
        <pt x="298" y="64" on="0"/>
        <pt x="373" y="96" on="0"/>
        <pt x="420" y="174" on="0"/>
        <pt x="420" y="241" on="1"/>
        <pt x="420" y="277" on="1"/>
        <pt x="338" y="267" on="0"/>
        <pt x="219" y="241" on="0"/>
        <pt x="153" y="193" on="0"/>
        <pt x="153" y="154" on="1"/>
        <pt x="153" y="113" on="0"/>
        <pt x="208" y="64" on="0"/>
      </contour>
      <contour>
        <pt x="294" y="622" on="1"/>
        <pt x="236" y="622" on="0"/>
        <pt x="149" y="697" on="0"/>
        <pt x="137" y="753" on="1"/>
        <pt x="211" y="753" on="1"/>
        <pt x="221" y="728" on="0"/>
        <pt x="266" y="695" on="0"/>
        <pt x="294" y="695" on="1"/>
        <pt x="322" y="695" on="0"/>
        <pt x="367" y="728" on="0"/>
        <pt x="378" y="753" on="1"/>
        <pt x="452" y="753" on="1"/>
        <pt x="441" y="697" on="0"/>
        <pt x="352" y="622" on="0"/>
      </contour>
    </TTGlyph>
    <TTGlyph name="acircumflex" xMin="54" yMin="-14" xMax="521" yMax="760">
      <contour>
        <pt x="237" y="-14" on="1"/>
        <pt x="186" y="-14" on="0"/>
        <pt x="103" y="25" on="0"/>
        <pt x="54" y="100" on="0"/>
        <pt x="54" y="152" on="1"/>
        <pt x="54" y="220" on="0"/>
        <pt x="143" y="299" on="0"/>
        <pt x="304" y="341" on="0"/>
        <pt x="412" y="354" on="1"/>
        <pt x="414" y="427" on="0"/>
        <pt x="357" y="507" on="0"/>
        <pt x="292" y="507" on="1"/>
        <pt x="244" y="507" on="0"/>
        <pt x="183" y="459" on="0"/>
        <pt x="175" y="417" on="1"/>
        <pt x="88" y="445" on="1"/>
        <pt x="109" y="511" on="0"/>
        <pt x="220" y="584" on="0"/>
        <pt x="291" y="584" on="1"/>
        <pt x="401" y="584" on="0"/>
        <pt x="503" y="472" on="0"/>
        <pt x="503" y="351" on="1"/>
        <pt x="503" y="216" on="1"/>
        <pt x="503" y="145" on="0"/>
        <pt x="514" y="40" on="0"/>
        <pt x="521" y="0" on="1"/>
        <pt x="439" y="0" on="1"/>
        <pt x="418" y="78" on="1"/>
        <pt x="394" y="36" on="0"/>
        <pt x="306" y="-14" on="0"/>
      </contour>
      <contour>
        <pt x="256" y="64" on="1"/>
        <pt x="298" y="64" on="0"/>
        <pt x="373" y="96" on="0"/>
        <pt x="420" y="174" on="0"/>
        <pt x="420" y="241" on="1"/>
        <pt x="420" y="277" on="1"/>
        <pt x="338" y="267" on="0"/>
        <pt x="219" y="241" on="0"/>
        <pt x="153" y="193" on="0"/>
        <pt x="153" y="154" on="1"/>
        <pt x="153" y="113" on="0"/>
        <pt x="208" y="64" on="0"/>
      </contour>
      <contour>
        <pt x="121" y="628" on="1"/>
        <pt x="241" y="739" on="1"/>
        <pt x="262" y="760" on="0"/>
        <pt x="294" y="760" on="1"/>
        <pt x="326" y="760" on="0"/>
        <pt x="347" y="739" on="1"/>
        <pt x="467" y="628" on="1"/>
        <pt x="366" y="628" on="1"/>
        <pt x="293" y="695" on="1"/>
        <pt x="222" y="628" on="1"/>
      </contour>
    </TTGlyph>
    <TTGlyph name="acknowledgecontrol" xMin="32" yMin="241" xMax="632" yMax="493">
      <component glyphName="A" x="13" y="245" scale="0.33" flags="0x4"/>
      <component glyphName="C" x="212" y="245" scale="0.33" flags="0x4"/>
      <component glyphName="K" x="423" y="245" scale="0.33" flags="0x4"/>
    </TTGlyph>
    <TTGlyph name="acute" xMin="369" yMin="645" xMax="576" yMax="785">
      <component glyphName="acutecomb" x="288" y="0" flags="0x4"/>
    </TTGlyph>
    <TTGlyph name="acute.case" xMin="424" yMin="810" xMax="631" yMax="950">
      <component glyphName="acutecomb.case" x="343" y="0" flags="0x4"/>
    </TTGlyph>
    <TTGlyph name="acutecomb" xMin="81" yMin="645" xMax="288" yMax="785">
      <contour>
        <pt x="81" y="645" on="1"/>
        <pt x="189" y="785" on="1"/>
        <pt x="288" y="785" on="1"/>
        <pt x="174" y="645" on="1"/>
      </contour>
    </TTGlyph>
    <TTGlyph name="acutecomb.case" xMin="81" yMin="810" xMax="288" yMax="950">
      <contour>
        <pt x="81" y="810" on="1"/>
        <pt x="189" y="950" on="1"/>
        <pt x="288" y="950" on="1"/>
        <pt x="174" y="810" on="1"/>
      </contour>
    </TTGlyph>
    <TTGlyph name="adieresis" xMin="54" yMin="-14" xMax="521" yMax="762">
      <contour>
        <pt x="237" y="-14" on="1"/>
        <pt x="186" y="-14" on="0"/>
        <pt x="103" y="25" on="0"/>
        <pt x="54" y="100" on="0"/>
        <pt x="54" y="152" on="1"/>
        <pt x="54" y="220" on="0"/>
        <pt x="143" y="299" on="0"/>
        <pt x="304" y="341" on="0"/>
        <pt x="412" y="354" on="1"/>
        <pt x="414" y="427" on="0"/>
        <pt x="357" y="507" on="0"/>
        <pt x="292" y="507" on="1"/>
        <pt x="244" y="507" on="0"/>
        <pt x="183" y="459" on="0"/>
        <pt x="175" y="417" on="1"/>
        <pt x="88" y="445" on="1"/>
        <pt x="109" y="511" on="0"/>
        <pt x="220" y="584" on="0"/>
        <pt x="291" y="584" on="1"/>
        <pt x="401" y="584" on="0"/>
        <pt x="503" y="472" on="0"/>
        <pt x="503" y="351" on="1"/>
        <pt x="503" y="216" on="1"/>
        <pt x="503" y="145" on="0"/>
        <pt x="514" y="40" on="0"/>
        <pt x="521" y="0" on="1"/>
        <pt x="439" y="0" on="1"/>
        <pt x="418" y="78" on="1"/>
        <pt x="394" y="36" on="0"/>
        <pt x="306" y="-14" on="0"/>
      </contour>
      <contour>
        <pt x="256" y="64" on="1"/>
        <pt x="298" y="64" on="0"/>
        <pt x="373" y="96" on="0"/>
        <pt x="420" y="174" on="0"/>
        <pt x="420" y="241" on="1"/>
        <pt x="420" y="277" on="1"/>
        <pt x="338" y="267" on="0"/>
        <pt x="219" y="241" on="0"/>
        <pt x="153" y="193" on="0"/>
        <pt x="153" y="154" on="1"/>
        <pt x="153" y="113" on="0"/>
        <pt x="208" y="64" on="0"/>
      </contour>
      <contour>
        <pt x="181" y="645" on="1"/>
        <pt x="158" y="645" on="0"/>
        <pt x="123" y="680" on="0"/>
        <pt x="123" y="704" on="1"/>
        <pt x="123" y="728" on="0"/>
        <pt x="158" y="762" on="0"/>
        <pt x="181" y="762" on="1"/>
        <pt x="206" y="762" on="0"/>
        <pt x="239" y="728" on="0"/>
        <pt x="239" y="704" on="1"/>
        <pt x="239" y="680" on="0"/>
        <pt x="206" y="645" on="0"/>
      </contour>
      <contour>
        <pt x="407" y="645" on="1"/>
        <pt x="383" y="645" on="0"/>
        <pt x="350" y="680" on="0"/>
        <pt x="350" y="704" on="1"/>
        <pt x="350" y="728" on="0"/>
        <pt x="383" y="762" on="0"/>
        <pt x="407" y="762" on="1"/>
        <pt x="431" y="762" on="0"/>
        <pt x="465" y="728" on="0"/>
        <pt x="465" y="704" on="1"/>
        <pt x="465" y="680" on="0"/>
        <pt x="431" y="645" on="0"/>
      </contour>
    </TTGlyph>
    <TTGlyph name="ae" xMin="38" yMin="-14" xMax="614" yMax="584">
      <contour>
        <pt x="159" y="-14" on="1"/>
        <pt x="126" y="-14" on="0"/>
        <pt x="71" y="25" on="0"/>
        <pt x="38" y="100" on="0"/>
        <pt x="38" y="152" on="1"/>
        <pt x="38" y="222" on="0"/>
        <pt x="101" y="302" on="0"/>
        <pt x="209" y="338" on="0"/>
        <pt x="276" y="338" on="1"/>
        <pt x="276" y="370" on="1"/>
        <pt x="276" y="396" on="0"/>
        <pt x="265" y="459" on="0"/>
        <pt x="232" y="505" on="0"/>
        <pt x="197" y="505" on="1"/>
        <pt x="165" y="505" on="0"/>
        <pt x="124" y="458" on="0"/>
        <pt x="118" y="416" on="1"/>
        <pt x="61" y="444" on="1"/>
        <pt x="76" y="512" on="0"/>
        <pt x="153" y="584" on="0"/>
        <pt x="196" y="584" on="1"/>
        <pt x="289" y="584" on="0"/>
        <pt x="319" y="491" on="1"/>
        <pt x="342" y="535" on="0"/>
        <pt x="408" y="584" on="0"/>
        <pt x="447" y="584" on="1"/>
        <pt x="490" y="584" on="0"/>
        <pt x="553" y="529" on="0"/>
        <pt x="595" y="438" on="0"/>
        <pt x="614" y="322" on="0"/>
        <pt x="611" y="261" on="1"/>
        <pt x="340" y="261" on="1"/>
        <pt x="342" y="189" on="0"/>
        <pt x="377" y="105" on="0"/>
        <pt x="428" y="72" on="0"/>
        <pt x="449" y="72" on="1"/>
        <pt x="478" y="72" on="0"/>
        <pt x="519" y="103" on="0"/>
        <pt x="532" y="128" on="1"/>
        <pt x="589" y="101" on="1"/>
        <pt x="569" y="51" on="0"/>
        <pt x="498" y="-14" on="0"/>
        <pt x="449" y="-14" on="1"/>
        <pt x="400" y="-14" on="0"/>
        <pt x="328" y="49" on="0"/>
        <pt x="307" y="102" on="1"/>
        <pt x="290" y="52" on="0"/>
        <pt x="216" y="-14" on="0"/>
      </contour>
      <contour>
        <pt x="341" y="338" on="1"/>
        <pt x="549" y="338" on="1"/>
        <pt x="548" y="378" on="0"/>
        <pt x="523" y="453" on="0"/>
        <pt x="478" y="500" on="0"/>
        <pt x="447" y="500" on="1"/>
        <pt x="421" y="500" on="0"/>
        <pt x="374" y="467" on="0"/>
        <pt x="344" y="396" on="0"/>
      </contour>
      <contour>
        <pt x="172" y="63" on="1"/>
        <pt x="229" y="63" on="0"/>
        <pt x="281" y="158" on="0"/>
        <pt x="281" y="242" on="1"/>
        <pt x="281" y="261" on="1"/>
        <pt x="200" y="261" on="0"/>
        <pt x="105" y="213" on="0"/>
        <pt x="105" y="154" on="1"/>
        <pt x="105" y="113" on="0"/>
        <pt x="141" y="63" on="0"/>
      </contour>
    </TTGlyph>
    <TTGlyph name="aeacute" xMin="38" yMin="-14" xMax="614" yMax="787">
      <component glyphName="ae" x="0" y="0" flags="0x204"/>
      <component glyphName="acutecomb" x="180" y="2" flags="0x4"/>
    </TTGlyph>
    <TTGlyph name="agrave" xMin="54" yMin="-14" xMax="521" yMax="773">
      <contour>
        <pt x="237" y="-14" on="1"/>
        <pt x="186" y="-14" on="0"/>
        <pt x="103" y="25" on="0"/>
        <pt x="54" y="100" on="0"/>
        <pt x="54" y="152" on="1"/>
        <pt x="54" y="220" on="0"/>
        <pt x="143" y="299" on="0"/>
        <pt x="304" y="341" on="0"/>
        <pt x="412" y="354" on="1"/>
        <pt x="414" y="427" on="0"/>
        <pt x="357" y="507" on="0"/>
        <pt x="292" y="507" on="1"/>
        <pt x="244" y="507" on="0"/>
        <pt x="183" y="459" on="0"/>
        <pt x="175" y="417" on="1"/>
        <pt x="88" y="445" on="1"/>
        <pt x="109" y="511" on="0"/>
        <pt x="220" y="584" on="0"/>
        <pt x="291" y="584" on="1"/>
        <pt x="401" y="584" on="0"/>
        <pt x="503" y="472" on="0"/>
        <pt x="503" y="351" on="1"/>
        <pt x="503" y="216" on="1"/>
        <pt x="503" y="145" on="0"/>
        <pt x="514" y="40" on="0"/>
        <pt x="521" y="0" on="1"/>
        <pt x="439" y="0" on="1"/>
        <pt x="418" y="78" on="1"/>
        <pt x="394" y="36" on="0"/>
        <pt x="306" y="-14" on="0"/>
      </contour>
      <contour>
        <pt x="256" y="64" on="1"/>
        <pt x="298" y="64" on="0"/>
        <pt x="373" y="96" on="0"/>
        <pt x="420" y="174" on="0"/>
        <pt x="420" y="241" on="1"/>
        <pt x="420" y="277" on="1"/>
        <pt x="338" y="267" on="0"/>
        <pt x="219" y="241" on="0"/>
        <pt x="153" y="193" on="0"/>
        <pt x="153" y="154" on="1"/>
        <pt x="153" y="113" on="0"/>
        <pt x="208" y="64" on="0"/>
      </contour>
      <contour>
        <pt x="277" y="624" on="1"/>
        <pt x="257" y="641" on="0"/>
        <pt x="212" y="680" on="0"/>
        <pt x="197" y="695" on="1"/>
        <pt x="186" y="707" on="0"/>
        <pt x="179" y="723" on="0"/>
        <pt x="179" y="731" on="1"/>
        <pt x="179" y="749" on="0"/>
        <pt x="202" y="773" on="0"/>
        <pt x="220" y="773" on="1"/>
        <pt x="228" y="773" on="0"/>
        <pt x="245" y="766" on="0"/>
        <pt x="253" y="756" on="1"/>
        <pt x="352" y="624" on="1"/>
      </contour>
    </TTGlyph>
    <TTGlyph name="alpha" xMin="53" yMin="-11" xMax="498" yMax="594">
      <contour>
        <pt x="244" y="-11" on="1"/>
        <pt x="155" y="-11" on="0"/>
        <pt x="53" y="106" on="0"/>
        <pt x="53" y="207" on="1"/>
        <pt x="53" y="377" on="1"/>
        <pt x="53" y="478" on="0"/>
        <pt x="156" y="594" on="0"/>
        <pt x="244" y="594" on="1"/>
        <pt x="310" y="594" on="0"/>
        <pt x="394" y="529" on="0"/>
        <pt x="401" y="472" on="1"/>
        <pt x="402" y="472" on="1"/>
        <pt x="402" y="583" on="1"/>
        <pt x="498" y="583" on="1"/>
        <pt x="498" y="0" on="1"/>
        <pt x="402" y="0" on="1"/>
        <pt x="402" y="111" on="1"/>
        <pt x="401" y="111" on="1"/>
        <pt x="394" y="55" on="0"/>
        <pt x="310" y="-11" on="0"/>
      </contour>
      <contour>
        <pt x="276" y="72" on="1"/>
        <pt x="336" y="72" on="0"/>
        <pt x="402" y="146" on="0"/>
        <pt x="402" y="212" on="1"/>
        <pt x="402" y="371" on="1"/>
        <pt x="402" y="437" on="0"/>
        <pt x="336" y="511" on="0"/>
        <pt x="276" y="511" on="1"/>
        <pt x="215" y="511" on="0"/>
        <pt x="150" y="439" on="0"/>
        <pt x="150" y="371" on="1"/>
        <pt x="150" y="212" on="1"/>
        <pt x="150" y="144" on="0"/>
        <pt x="215" y="72" on="0"/>
      </contour>
    </TTGlyph>
    <TTGlyph name="alphatonos" xMin="53" yMin="-10" xMax="498" yMax="785">
      <contour>
        <pt x="210" y="645" on="1"/>
        <pt x="323" y="785" on="1"/>
        <pt x="427" y="785" on="1"/>
        <pt x="308" y="645" on="1"/>
      </contour>
      <contour>
        <pt x="244" y="-10" on="1"/>
        <pt x="155" y="-10" on="0"/>
        <pt x="53" y="100" on="0"/>
        <pt x="53" y="195" on="1"/>
        <pt x="53" y="356" on="1"/>
        <pt x="53" y="451" on="0"/>
        <pt x="156" y="560" on="0"/>
        <pt x="244" y="560" on="1"/>
        <pt x="310" y="560" on="0"/>
        <pt x="394" y="499" on="0"/>
        <pt x="401" y="445" on="1"/>
        <pt x="402" y="445" on="1"/>
        <pt x="402" y="550" on="1"/>
        <pt x="498" y="550" on="1"/>
        <pt x="498" y="0" on="1"/>
        <pt x="402" y="0" on="1"/>
        <pt x="402" y="105" on="1"/>
        <pt x="401" y="105" on="1"/>
        <pt x="394" y="52" on="0"/>
        <pt x="310" y="-10" on="0"/>
      </contour>
      <contour>
        <pt x="276" y="68" on="1"/>
        <pt x="336" y="68" on="0"/>
        <pt x="402" y="138" on="0"/>
        <pt x="402" y="200" on="1"/>
        <pt x="402" y="350" on="1"/>
        <pt x="402" y="412" on="0"/>
        <pt x="336" y="482" on="0"/>
        <pt x="276" y="482" on="1"/>
        <pt x="215" y="482" on="0"/>
        <pt x="150" y="414" on="0"/>
        <pt x="150" y="350" on="1"/>
        <pt x="150" y="200" on="1"/>
        <pt x="150" y="136" on="0"/>
        <pt x="215" y="68" on="0"/>
      </contour>
    </TTGlyph>
    <TTGlyph name="amacron" xMin="54" yMin="-14" xMax="521" yMax="730">
      <contour>
        <pt x="237" y="-14" on="1"/>
        <pt x="186" y="-14" on="0"/>
        <pt x="103" y="25" on="0"/>
        <pt x="54" y="100" on="0"/>
        <pt x="54" y="152" on="1"/>
        <pt x="54" y="220" on="0"/>
        <pt x="143" y="299" on="0"/>
        <pt x="304" y="341" on="0"/>
        <pt x="412" y="354" on="1"/>
        <pt x="414" y="427" on="0"/>
        <pt x="357" y="507" on="0"/>
        <pt x="292" y="507" on="1"/>
        <pt x="244" y="507" on="0"/>
        <pt x="183" y="459" on="0"/>
        <pt x="175" y="417" on="1"/>
        <pt x="88" y="445" on="1"/>
        <pt x="109" y="511" on="0"/>
        <pt x="220" y="584" on="0"/>
        <pt x="291" y="584" on="1"/>
        <pt x="401" y="584" on="0"/>
        <pt x="503" y="472" on="0"/>
        <pt x="503" y="351" on="1"/>
        <pt x="503" y="216" on="1"/>
        <pt x="503" y="145" on="0"/>
        <pt x="514" y="40" on="0"/>
        <pt x="521" y="0" on="1"/>
        <pt x="439" y="0" on="1"/>
        <pt x="418" y="78" on="1"/>
        <pt x="394" y="36" on="0"/>
        <pt x="306" y="-14" on="0"/>
      </contour>
      <contour>
        <pt x="256" y="64" on="1"/>
        <pt x="298" y="64" on="0"/>
        <pt x="373" y="96" on="0"/>
        <pt x="420" y="174" on="0"/>
        <pt x="420" y="241" on="1"/>
        <pt x="420" y="277" on="1"/>
        <pt x="338" y="267" on="0"/>
        <pt x="219" y="241" on="0"/>
        <pt x="153" y="193" on="0"/>
        <pt x="153" y="154" on="1"/>
        <pt x="153" y="113" on="0"/>
        <pt x="208" y="64" on="0"/>
      </contour>
      <contour>
        <pt x="147" y="657" on="1"/>
        <pt x="147" y="730" on="1"/>
        <pt x="442" y="730" on="1"/>
        <pt x="442" y="657" on="1"/>
      </contour>
    </TTGlyph>
    <TTGlyph name="ampersand" xMin="62" yMin="-10" xMax="596" yMax="740">
      <contour>
        <pt x="245" y="-10" on="1"/>
        <pt x="159" y="-10" on="0"/>
        <pt x="62" y="78" on="0"/>
        <pt x="62" y="155" on="1"/>
        <pt x="62" y="280" on="1"/>
        <pt x="62" y="333" on="0"/>
        <pt x="119" y="406" on="0"/>
        <pt x="173" y="421" on="1"/>
        <pt x="165" y="431" on="1"/>
        <pt x="133" y="473" on="0"/>
        <pt x="104" y="545" on="0"/>
        <pt x="104" y="581" on="1"/>
        <pt x="104" y="653" on="0"/>
        <pt x="207" y="740" on="0"/>
        <pt x="292" y="740" on="1"/>
        <pt x="383" y="740" on="0"/>
        <pt x="489" y="648" on="0"/>
        <pt x="489" y="569" on="1"/>
        <pt x="395" y="569" on="1"/>
        <pt x="395" y="613" on="0"/>
        <pt x="340" y="662" on="0"/>
        <pt x="292" y="662" on="1"/>
        <pt x="249" y="662" on="0"/>
        <pt x="198" y="617" on="0"/>
        <pt x="198" y="579" on="1"/>
        <pt x="198" y="554" on="0"/>
        <pt x="220" y="496" on="0"/>
        <pt x="240" y="470" on="1"/>
        <pt x="419" y="233" on="1"/>
        <pt x="494" y="360" on="1"/>
        <pt x="592" y="360" on="1"/>
        <pt x="474" y="161" on="1"/>
        <pt x="596" y="0" on="1"/>
        <pt x="493" y="0" on="1"/>
        <pt x="427" y="87" on="1"/>
        <pt x="349" y="-10" on="0"/>
      </contour>
      <contour>
        <pt x="250" y="70" on="1"/>
        <pt x="286" y="70" on="0"/>
        <pt x="351" y="115" on="0"/>
        <pt x="374" y="155" on="1"/>
        <pt x="221" y="358" on="1"/>
        <pt x="156" y="347" on="0"/>
        <pt x="156" y="280" on="1"/>
        <pt x="156" y="155" on="1"/>
        <pt x="156" y="115" on="0"/>
        <pt x="205" y="70" on="0"/>
      </contour>
    </TTGlyph>
    <TTGlyph name="anoteleia" xMin="0" yMin="265" xMax="162" yMax="431">
      <component glyphName="period" x="-36" y="275" flags="0x4"/>
    </TTGlyph>
    <TTGlyph name="aogonek" xMin="54" yMin="-200" xMax="521" yMax="584">
      <contour>
        <pt x="237" y="-14" on="1"/>
        <pt x="186" y="-14" on="0"/>
        <pt x="103" y="25" on="0"/>
        <pt x="54" y="100" on="0"/>
        <pt x="54" y="152" on="1"/>
        <pt x="54" y="220" on="0"/>
        <pt x="143" y="299" on="0"/>
        <pt x="304" y="341" on="0"/>
        <pt x="412" y="354" on="1"/>
        <pt x="414" y="427" on="0"/>
        <pt x="357" y="507" on="0"/>
        <pt x="292" y="507" on="1"/>
        <pt x="244" y="507" on="0"/>
        <pt x="183" y="459" on="0"/>
        <pt x="175" y="417" on="1"/>
        <pt x="88" y="445" on="1"/>
        <pt x="109" y="511" on="0"/>
        <pt x="220" y="584" on="0"/>
        <pt x="291" y="584" on="1"/>
        <pt x="401" y="584" on="0"/>
        <pt x="503" y="472" on="0"/>
        <pt x="503" y="351" on="1"/>
        <pt x="503" y="216" on="1"/>
        <pt x="503" y="145" on="0"/>
        <pt x="514" y="40" on="0"/>
        <pt x="521" y="0" on="1"/>
        <pt x="439" y="0" on="1"/>
        <pt x="418" y="78" on="1"/>
        <pt x="394" y="36" on="0"/>
        <pt x="306" y="-14" on="0"/>
      </contour>
      <contour>
        <pt x="256" y="64" on="1"/>
        <pt x="298" y="64" on="0"/>
        <pt x="373" y="96" on="0"/>
        <pt x="420" y="174" on="0"/>
        <pt x="420" y="241" on="1"/>
        <pt x="420" y="277" on="1"/>
        <pt x="338" y="267" on="0"/>
        <pt x="219" y="241" on="0"/>
        <pt x="153" y="193" on="0"/>
        <pt x="153" y="154" on="1"/>
        <pt x="153" y="113" on="0"/>
        <pt x="208" y="64" on="0"/>
      </contour>
      <contour>
        <pt x="454" y="-200" on="1"/>
        <pt x="406" y="-200" on="0"/>
        <pt x="353" y="-142" on="0"/>
        <pt x="353" y="-105" on="1"/>
        <pt x="353" y="-70" on="0"/>
        <pt x="399" y="-11" on="0"/>
        <pt x="439" y="0" on="1"/>
        <pt x="521" y="0" on="1"/>
        <pt x="467" y="-22" on="0"/>
        <pt x="428" y="-65" on="0"/>
        <pt x="428" y="-87" on="1"/>
        <pt x="428" y="-110" on="0"/>
        <pt x="458" y="-134" on="0"/>
        <pt x="481" y="-134" on="1"/>
        <pt x="490" y="-134" on="0"/>
        <pt x="511" y="-128" on="0"/>
        <pt x="521" y="-124" on="1"/>
        <pt x="521" y="-187" on="1"/>
        <pt x="485" y="-200" on="0"/>
      </contour>
    </TTGlyph>
    <TTGlyph name="approxequal" xMin="58" yMin="105" xMax="532" yMax="555">
      <component glyphName="asciitilde" x="0" y="100" flags="0x204"/>
      <component glyphName="asciitilde" x="0" y="-145" flags="0x4"/>
    </TTGlyph>
    <TTGlyph name="aring" xMin="54" yMin="-14" xMax="521" yMax="849">
      <contour>
        <pt x="237" y="-14" on="1"/>
        <pt x="186" y="-14" on="0"/>
        <pt x="103" y="25" on="0"/>
        <pt x="54" y="100" on="0"/>
        <pt x="54" y="152" on="1"/>
        <pt x="54" y="220" on="0"/>
        <pt x="143" y="299" on="0"/>
        <pt x="304" y="341" on="0"/>
        <pt x="412" y="354" on="1"/>
        <pt x="414" y="427" on="0"/>
        <pt x="357" y="507" on="0"/>
        <pt x="292" y="507" on="1"/>
        <pt x="244" y="507" on="0"/>
        <pt x="183" y="459" on="0"/>
        <pt x="175" y="417" on="1"/>
        <pt x="88" y="445" on="1"/>
        <pt x="109" y="511" on="0"/>
        <pt x="220" y="584" on="0"/>
        <pt x="291" y="584" on="1"/>
        <pt x="401" y="584" on="0"/>
        <pt x="503" y="472" on="0"/>
        <pt x="503" y="351" on="1"/>
        <pt x="503" y="216" on="1"/>
        <pt x="503" y="145" on="0"/>
        <pt x="514" y="40" on="0"/>
        <pt x="521" y="0" on="1"/>
        <pt x="439" y="0" on="1"/>
        <pt x="418" y="78" on="1"/>
        <pt x="394" y="36" on="0"/>
        <pt x="306" y="-14" on="0"/>
      </contour>
      <contour>
        <pt x="256" y="64" on="1"/>
        <pt x="298" y="64" on="0"/>
        <pt x="373" y="96" on="0"/>
        <pt x="420" y="174" on="0"/>
        <pt x="420" y="241" on="1"/>
        <pt x="420" y="277" on="1"/>
        <pt x="338" y="267" on="0"/>
        <pt x="219" y="241" on="0"/>
        <pt x="153" y="193" on="0"/>
        <pt x="153" y="154" on="1"/>
        <pt x="153" y="113" on="0"/>
        <pt x="208" y="64" on="0"/>
      </contour>
      <contour>
        <pt x="297" y="611" on="1"/>
        <pt x="263" y="611" on="0"/>
        <pt x="210" y="644" on="0"/>
        <pt x="178" y="698" on="0"/>
        <pt x="178" y="730" on="1"/>
        <pt x="178" y="763" on="0"/>
        <pt x="210" y="816" on="0"/>
        <pt x="263" y="849" on="0"/>
        <pt x="297" y="849" on="1"/>
        <pt x="346" y="849" on="0"/>
        <pt x="411" y="778" on="0"/>
        <pt x="411" y="730" on="1"/>
        <pt x="411" y="682" on="0"/>
        <pt x="346" y="611" on="0"/>
      </contour>
      <contour>
        <pt x="294" y="674" on="1"/>
        <pt x="318" y="674" on="0"/>
        <pt x="350" y="707" on="0"/>
        <pt x="350" y="730" on="1"/>
        <pt x="350" y="753" on="0"/>
        <pt x="318" y="786" on="0"/>
        <pt x="294" y="786" on="1"/>
        <pt x="271" y="786" on="0"/>
        <pt x="239" y="753" on="0"/>
        <pt x="239" y="730" on="1"/>
        <pt x="239" y="707" on="0"/>
        <pt x="271" y="674" on="0"/>
      </contour>
    </TTGlyph>
    <TTGlyph name="arrowboth" xMin="0" yMin="35" xMax="782" yMax="625">
      <contour>
        <pt x="239" y="35" on="1"/>
        <pt x="0" y="330" on="1"/>
        <pt x="238" y="625" on="1"/>
        <pt x="347" y="625" on="1"/>
        <pt x="180" y="420" on="1"/>
        <pt x="170" y="407" on="0"/>
        <pt x="143" y="382" on="0"/>
        <pt x="134" y="375" on="1"/>
        <pt x="134" y="366" on="1"/>
        <pt x="147" y="368" on="0"/>
        <pt x="189" y="370" on="0"/>
        <pt x="206" y="370" on="1"/>
        <pt x="576" y="370" on="1"/>
        <pt x="594" y="370" on="0"/>
        <pt x="635" y="367" on="0"/>
        <pt x="649" y="365" on="1"/>
        <pt x="649" y="374" on="1"/>
        <pt x="641" y="380" on="0"/>
        <pt x="616" y="406" on="0"/>
        <pt x="602" y="421" on="1"/>
        <pt x="435" y="625" on="1"/>
        <pt x="543" y="625" on="1"/>
        <pt x="782" y="330" on="1"/>
        <pt x="544" y="35" on="1"/>
        <pt x="435" y="35" on="1"/>
        <pt x="602" y="240" on="1"/>
        <pt x="612" y="253" on="0"/>
        <pt x="639" y="278" on="0"/>
        <pt x="649" y="285" on="1"/>
        <pt x="649" y="294" on="1"/>
        <pt x="635" y="293" on="0"/>
        <pt x="594" y="290" on="0"/>
        <pt x="576" y="290" on="1"/>
        <pt x="206" y="290" on="1"/>
        <pt x="189" y="290" on="0"/>
        <pt x="147" y="294" on="0"/>
        <pt x="134" y="295" on="1"/>
        <pt x="134" y="286" on="1"/>
        <pt x="141" y="280" on="0"/>
        <pt x="166" y="254" on="0"/>
        <pt x="180" y="239" on="1"/>
        <pt x="347" y="35" on="1"/>
      </contour>
    </TTGlyph>
    <TTGlyph name="arrowdblboth" xMin="0" yMin="35" xMax="782" yMax="625">
      <contour>
        <pt x="238" y="35" on="1"/>
        <pt x="0" y="330" on="1"/>
        <pt x="239" y="625" on="1"/>
        <pt x="347" y="625" on="1"/>
        <pt x="238" y="490" on="1"/>
        <pt x="544" y="490" on="1"/>
        <pt x="435" y="625" on="1"/>
        <pt x="543" y="625" on="1"/>
        <pt x="782" y="330" on="1"/>
        <pt x="544" y="35" on="1"/>
        <pt x="435" y="35" on="1"/>
        <pt x="544" y="170" on="1"/>
        <pt x="238" y="170" on="1"/>
        <pt x="347" y="35" on="1"/>
      </contour>
      <contour>
        <pt x="173" y="250" on="1"/>
        <pt x="609" y="250" on="1"/>
        <pt x="674" y="330" on="1"/>
        <pt x="609" y="410" on="1"/>
        <pt x="173" y="410" on="1"/>
        <pt x="108" y="330" on="1"/>
      </contour>
    </TTGlyph>
    <TTGlyph name="arrowdbldown" xMin="24" yMin="-190" xMax="662" yMax="829">
      <component glyphName="arrowdblup" x="19" y="649" scalex="1.0" scaley="-1.0" flags="0x4"/>
    </TTGlyph>
    <TTGlyph name="arrowdblright" xMin="0" yMin="35" xMax="782" yMax="625">
      <contour>
        <pt x="435" y="35" on="1"/>
        <pt x="544" y="170" on="1"/>
        <pt x="0" y="170" on="1"/>
        <pt x="0" y="250" on="1"/>
        <pt x="609" y="250" on="1"/>
        <pt x="674" y="330" on="1"/>
        <pt x="609" y="410" on="1"/>
        <pt x="0" y="410" on="1"/>
        <pt x="0" y="490" on="1"/>
        <pt x="544" y="490" on="1"/>
        <pt x="435" y="625" on="1"/>
        <pt x="543" y="625" on="1"/>
        <pt x="782" y="330" on="1"/>
        <pt x="544" y="35" on="1"/>
      </contour>
    </TTGlyph>
    <TTGlyph name="arrowdblup" xMin="5" yMin="-180" xMax="643" yMax="839">
      <contour>
        <pt x="391" y="-180" on="1"/>
        <pt x="391" y="839" on="1"/>
        <pt x="643" y="601" on="1"/>
        <pt x="643" y="536" on="1"/>
        <pt x="442" y="725" on="1"/>
        <pt x="442" y="-180" on="1"/>
      </contour>
      <contour>
        <pt x="206" y="-180" on="1"/>
        <pt x="206" y="725" on="1"/>
        <pt x="5" y="536" on="1"/>
        <pt x="5" y="601" on="1"/>
        <pt x="257" y="839" on="1"/>
        <pt x="257" y="-180" on="1"/>
      </contour>
    </TTGlyph>
    <TTGlyph name="arrowdown" xMin="21" yMin="-10" xMax="619" yMax="730">
      <contour>
        <pt x="319" y="-10" on="1"/>
        <pt x="21" y="236" on="1"/>
        <pt x="21" y="341" on="1"/>
        <pt x="213" y="183" on="1"/>
        <pt x="236" y="164" on="0"/>
        <pt x="264" y="136" on="0"/>
        <pt x="269" y="130" on="1"/>
        <pt x="279" y="130" on="1"/>
        <pt x="278" y="143" on="0"/>
        <pt x="274" y="188" on="0"/>
        <pt x="274" y="210" on="1"/>
        <pt x="274" y="730" on="1"/>
        <pt x="366" y="730" on="1"/>
        <pt x="366" y="210" on="1"/>
        <pt x="366" y="188" on="0"/>
        <pt x="363" y="143" on="0"/>
        <pt x="361" y="130" on="1"/>
        <pt x="372" y="130" on="1"/>
        <pt x="382" y="145" on="0"/>
        <pt x="428" y="184" on="1"/>
        <pt x="619" y="342" on="1"/>
        <pt x="619" y="237" on="1"/>
      </contour>
    </TTGlyph>
    <TTGlyph name="arrowleft" xMin="42" yMin="35" xMax="588" yMax="625">
      <contour>
        <pt x="281" y="35" on="1"/>
        <pt x="42" y="330" on="1"/>
        <pt x="280" y="625" on="1"/>
        <pt x="389" y="625" on="1"/>
        <pt x="222" y="420" on="1"/>
        <pt x="212" y="407" on="0"/>
        <pt x="185" y="382" on="0"/>
        <pt x="176" y="375" on="1"/>
        <pt x="176" y="366" on="1"/>
        <pt x="189" y="368" on="0"/>
        <pt x="232" y="370" on="0"/>
        <pt x="248" y="370" on="1"/>
        <pt x="588" y="370" on="1"/>
        <pt x="588" y="290" on="1"/>
        <pt x="248" y="290" on="1"/>
        <pt x="232" y="290" on="0"/>
        <pt x="189" y="294" on="0"/>
        <pt x="176" y="295" on="1"/>
        <pt x="176" y="286" on="1"/>
        <pt x="183" y="280" on="0"/>
        <pt x="209" y="254" on="0"/>
        <pt x="222" y="239" on="1"/>
        <pt x="389" y="35" on="1"/>
      </contour>
    </TTGlyph>
    <TTGlyph name="arrowright" xMin="42" yMin="35" xMax="588" yMax="625">
      <contour>
        <pt x="241" y="35" on="1"/>
        <pt x="408" y="240" on="1"/>
        <pt x="418" y="253" on="0"/>
        <pt x="445" y="278" on="0"/>
        <pt x="454" y="285" on="1"/>
        <pt x="454" y="294" on="1"/>
        <pt x="441" y="293" on="0"/>
        <pt x="400" y="290" on="0"/>
        <pt x="382" y="290" on="1"/>
        <pt x="42" y="290" on="1"/>
        <pt x="42" y="370" on="1"/>
        <pt x="382" y="370" on="1"/>
        <pt x="400" y="370" on="0"/>
        <pt x="441" y="367" on="0"/>
        <pt x="454" y="365" on="1"/>
        <pt x="454" y="374" on="1"/>
        <pt x="447" y="380" on="0"/>
        <pt x="421" y="406" on="0"/>
        <pt x="408" y="421" on="1"/>
        <pt x="241" y="625" on="1"/>
        <pt x="349" y="625" on="1"/>
        <pt x="588" y="330" on="1"/>
        <pt x="350" y="35" on="1"/>
      </contour>
    </TTGlyph>
    <TTGlyph name="arrowup" xMin="21" yMin="0" xMax="619" yMax="740">
      <contour>
        <pt x="274" y="0" on="1"/>
        <pt x="274" y="520" on="1"/>
        <pt x="274" y="542" on="0"/>
        <pt x="278" y="587" on="0"/>
        <pt x="279" y="600" on="1"/>
        <pt x="269" y="600" on="1"/>
        <pt x="258" y="585" on="0"/>
        <pt x="212" y="546" on="1"/>
        <pt x="21" y="388" on="1"/>
        <pt x="21" y="493" on="1"/>
        <pt x="321" y="740" on="1"/>
        <pt x="619" y="494" on="1"/>
        <pt x="619" y="389" on="1"/>
        <pt x="427" y="547" on="1"/>
        <pt x="404" y="566" on="0"/>
        <pt x="377" y="594" on="0"/>
        <pt x="372" y="600" on="1"/>
        <pt x="361" y="600" on="1"/>
        <pt x="363" y="587" on="0"/>
        <pt x="366" y="542" on="0"/>
        <pt x="366" y="520" on="1"/>
        <pt x="366" y="0" on="1"/>
      </contour>
    </TTGlyph>
    <TTGlyph name="arrowupdn" xMin="21" yMin="-170" xMax="619" yMax="900">
      <contour>
        <pt x="320" y="-170" on="1"/>
        <pt x="21" y="76" on="1"/>
        <pt x="21" y="181" on="1"/>
        <pt x="213" y="23" on="1"/>
        <pt x="236" y="4" on="0"/>
        <pt x="264" y="-24" on="0"/>
        <pt x="269" y="-30" on="1"/>
        <pt x="279" y="-30" on="1"/>
        <pt x="278" y="-17" on="0"/>
        <pt x="274" y="28" on="0"/>
        <pt x="274" y="50" on="1"/>
        <pt x="274" y="680" on="1"/>
        <pt x="274" y="702" on="0"/>
        <pt x="278" y="747" on="0"/>
        <pt x="279" y="760" on="1"/>
        <pt x="269" y="760" on="1"/>
        <pt x="258" y="745" on="0"/>
        <pt x="212" y="706" on="1"/>
        <pt x="21" y="548" on="1"/>
        <pt x="21" y="653" on="1"/>
        <pt x="320" y="900" on="1"/>
        <pt x="619" y="654" on="1"/>
        <pt x="619" y="549" on="1"/>
        <pt x="427" y="707" on="1"/>
        <pt x="404" y="726" on="0"/>
        <pt x="377" y="754" on="0"/>
        <pt x="372" y="760" on="1"/>
        <pt x="361" y="760" on="1"/>
        <pt x="363" y="747" on="0"/>
        <pt x="366" y="702" on="0"/>
        <pt x="366" y="680" on="1"/>
        <pt x="366" y="50" on="1"/>
        <pt x="366" y="28" on="0"/>
        <pt x="363" y="-17" on="0"/>
        <pt x="361" y="-30" on="1"/>
        <pt x="372" y="-30" on="1"/>
        <pt x="382" y="-15" on="0"/>
        <pt x="428" y="24" on="1"/>
        <pt x="619" y="182" on="1"/>
        <pt x="619" y="77" on="1"/>
      </contour>
    </TTGlyph>
    <TTGlyph name="asciicircum" xMin="57" yMin="340" xMax="511" yMax="730">
      <contour>
        <pt x="57" y="340" on="1"/>
        <pt x="242" y="730" on="1"/>
        <pt x="328" y="730" on="1"/>
        <pt x="511" y="340" on="1"/>
        <pt x="427" y="340" on="1"/>
        <pt x="312" y="598" on="1"/>
        <pt x="304" y="618" on="0"/>
        <pt x="290" y="655" on="0"/>
        <pt x="287" y="665" on="1"/>
        <pt x="283" y="655" on="0"/>
        <pt x="269" y="618" on="0"/>
        <pt x="259" y="598" on="1"/>
        <pt x="141" y="340" on="1"/>
      </contour>
    </TTGlyph>
    <TTGlyph name="asciitilde" xMin="58" yMin="250" xMax="532" yMax="455">
      <contour>
        <pt x="58" y="255" on="1"/>
        <pt x="58" y="325" on="1"/>
        <pt x="58" y="384" on="0"/>
        <pt x="132" y="455" on="0"/>
        <pt x="192" y="455" on="1"/>
        <pt x="230" y="455" on="0"/>
        <pt x="282" y="429" on="0"/>
        <pt x="317" y="390" on="0"/>
        <pt x="344" y="351" on="0"/>
        <pt x="375" y="325" on="0"/>
        <pt x="396" y="325" on="1"/>
        <pt x="444" y="325" on="0"/>
        <pt x="444" y="380" on="1"/>
        <pt x="444" y="450" on="1"/>
        <pt x="532" y="450" on="1"/>
        <pt x="532" y="380" on="1"/>
        <pt x="532" y="322" on="0"/>
        <pt x="459" y="250" on="0"/>
        <pt x="398" y="250" on="1"/>
        <pt x="360" y="250" on="0"/>
        <pt x="308" y="276" on="0"/>
        <pt x="273" y="315" on="0"/>
        <pt x="246" y="354" on="0"/>
        <pt x="215" y="380" on="0"/>
        <pt x="194" y="380" on="1"/>
        <pt x="146" y="380" on="0"/>
        <pt x="146" y="325" on="1"/>
        <pt x="146" y="255" on="1"/>
      </contour>
    </TTGlyph>
    <TTGlyph name="asterisk" xMin="0" yMin="94" xMax="546" yMax="610">
      <contour>
        <pt x="150" y="94" on="1"/>
        <pt x="76" y="144" on="1"/>
        <pt x="132" y="222" on="1"/>
        <pt x="152" y="250" on="0"/>
        <pt x="212" y="305" on="0"/>
        <pt x="235" y="323" on="1"/>
        <pt x="232" y="330" on="1"/>
        <pt x="203" y="332" on="0"/>
        <pt x="123" y="344" on="0"/>
        <pt x="91" y="355" on="1"/>
        <pt x="0" y="387" on="1"/>
        <pt x="31" y="470" on="1"/>
        <pt x="122" y="438" on="1"/>
        <pt x="155" y="427" on="0"/>
        <pt x="225" y="384" on="0"/>
        <pt x="248" y="367" on="1"/>
        <pt x="253" y="371" on="1"/>
        <pt x="246" y="399" on="0"/>
        <pt x="228" y="481" on="0"/>
        <pt x="228" y="515" on="1"/>
        <pt x="228" y="610" on="1"/>
        <pt x="318" y="610" on="1"/>
        <pt x="318" y="515" on="1"/>
        <pt x="318" y="481" on="0"/>
        <pt x="300" y="399" on="0"/>
        <pt x="292" y="371" on="1"/>
        <pt x="297" y="367" on="1"/>
        <pt x="320" y="384" on="0"/>
        <pt x="391" y="427" on="0"/>
        <pt x="423" y="438" on="1"/>
        <pt x="515" y="470" on="1"/>
        <pt x="546" y="387" on="1"/>
        <pt x="454" y="355" on="1"/>
        <pt x="422" y="344" on="0"/>
        <pt x="344" y="332" on="0"/>
        <pt x="314" y="330" on="1"/>
        <pt x="310" y="322" on="1"/>
        <pt x="334" y="304" on="0"/>
        <pt x="392" y="249" on="0"/>
        <pt x="412" y="222" on="1"/>
        <pt x="469" y="144" on="1"/>
        <pt x="395" y="94" on="1"/>
        <pt x="338" y="172" on="1"/>
        <pt x="318" y="199" on="0"/>
        <pt x="285" y="273" on="0"/>
        <pt x="276" y="300" on="1"/>
        <pt x="269" y="300" on="1"/>
        <pt x="259" y="273" on="0"/>
        <pt x="227" y="199" on="0"/>
        <pt x="206" y="172" on="1"/>
      </contour>
    </TTGlyph>
    <TTGlyph name="at" xMin="61" yMin="-180" xMax="599" yMax="740">
      <contour>
        <pt x="353" y="-180" on="1"/>
        <pt x="264" y="-180" on="0"/>
        <pt x="133" y="-109" on="0"/>
        <pt x="61" y="22" on="0"/>
        <pt x="61" y="110" on="1"/>
        <pt x="61" y="450" on="1"/>
        <pt x="61" y="585" on="0"/>
        <pt x="211" y="740" on="0"/>
        <pt x="343" y="740" on="1"/>
        <pt x="462" y="740" on="0"/>
        <pt x="599" y="609" on="0"/>
        <pt x="599" y="495" on="1"/>
        <pt x="599" y="65" on="1"/>
        <pt x="517" y="65" on="1"/>
        <pt x="517" y="130" on="1"/>
        <pt x="514" y="130" on="1"/>
        <pt x="510" y="96" on="0"/>
        <pt x="451" y="55" on="0"/>
        <pt x="404" y="55" on="1"/>
        <pt x="336" y="55" on="0"/>
        <pt x="264" y="134" on="0"/>
        <pt x="264" y="210" on="1"/>
        <pt x="264" y="330" on="1"/>
        <pt x="264" y="406" on="0"/>
        <pt x="336" y="485" on="0"/>
        <pt x="404" y="485" on="1"/>
        <pt x="450" y="485" on="0"/>
        <pt x="510" y="444" on="0"/>
        <pt x="514" y="410" on="1"/>
        <pt x="518" y="410" on="1"/>
        <pt x="515" y="490" on="1"/>
        <pt x="515" y="495" on="1"/>
        <pt x="515" y="580" on="0"/>
        <pt x="426" y="670" on="0"/>
        <pt x="343" y="670" on="1"/>
        <pt x="249" y="670" on="0"/>
        <pt x="144" y="554" on="0"/>
        <pt x="144" y="450" on="1"/>
        <pt x="144" y="110" on="1"/>
        <pt x="144" y="10" on="0"/>
        <pt x="256" y="-105" on="0"/>
        <pt x="353" y="-105" on="1"/>
        <pt x="426" y="-105" on="1"/>
        <pt x="426" y="-180" on="1"/>
      </contour>
      <contour>
        <pt x="432" y="118" on="1"/>
        <pt x="515" y="118" on="0"/>
        <pt x="515" y="220" on="1"/>
        <pt x="515" y="331" on="1"/>
        <pt x="515" y="378" on="0"/>
        <pt x="474" y="422" on="0"/>
        <pt x="432" y="422" on="1"/>
        <pt x="348" y="422" on="0"/>
        <pt x="348" y="330" on="1"/>
        <pt x="348" y="210" on="1"/>
        <pt x="348" y="118" on="0"/>
      </contour>
    </TTGlyph>
    <TTGlyph name="atilde" xMin="54" yMin="-14" xMax="521" yMax="744">
      <contour>
        <pt x="237" y="-14" on="1"/>
        <pt x="186" y="-14" on="0"/>
        <pt x="103" y="25" on="0"/>
        <pt x="54" y="100" on="0"/>
        <pt x="54" y="152" on="1"/>
        <pt x="54" y="220" on="0"/>
        <pt x="143" y="299" on="0"/>
        <pt x="304" y="341" on="0"/>
        <pt x="412" y="354" on="1"/>
        <pt x="414" y="427" on="0"/>
        <pt x="357" y="507" on="0"/>
        <pt x="292" y="507" on="1"/>
        <pt x="244" y="507" on="0"/>
        <pt x="183" y="459" on="0"/>
        <pt x="175" y="417" on="1"/>
        <pt x="88" y="445" on="1"/>
        <pt x="109" y="511" on="0"/>
        <pt x="220" y="584" on="0"/>
        <pt x="291" y="584" on="1"/>
        <pt x="401" y="584" on="0"/>
        <pt x="503" y="472" on="0"/>
        <pt x="503" y="351" on="1"/>
        <pt x="503" y="216" on="1"/>
        <pt x="503" y="145" on="0"/>
        <pt x="514" y="40" on="0"/>
        <pt x="521" y="0" on="1"/>
        <pt x="439" y="0" on="1"/>
        <pt x="418" y="78" on="1"/>
        <pt x="394" y="36" on="0"/>
        <pt x="306" y="-14" on="0"/>
      </contour>
      <contour>
        <pt x="256" y="64" on="1"/>
        <pt x="298" y="64" on="0"/>
        <pt x="373" y="96" on="0"/>
        <pt x="420" y="174" on="0"/>
        <pt x="420" y="241" on="1"/>
        <pt x="420" y="277" on="1"/>
        <pt x="338" y="267" on="0"/>
        <pt x="219" y="241" on="0"/>
        <pt x="153" y="193" on="0"/>
        <pt x="153" y="154" on="1"/>
        <pt x="153" y="113" on="0"/>
        <pt x="208" y="64" on="0"/>
      </contour>
      <contour>
        <pt x="366" y="628" on="1"/>
        <pt x="349" y="628" on="0"/>
        <pt x="315" y="640" on="0"/>
        <pt x="293" y="651" on="1"/>
        <pt x="277" y="660" on="0"/>
        <pt x="248" y="675" on="0"/>
        <pt x="232" y="675" on="1"/>
        <pt x="193" y="675" on="0"/>
        <pt x="187" y="631" on="1"/>
        <pt x="118" y="631" on="1"/>
        <pt x="128" y="688" on="0"/>
        <pt x="189" y="744" on="0"/>
        <pt x="231" y="744" on="1"/>
        <pt x="261" y="744" on="0"/>
        <pt x="304" y="721" on="0"/>
        <pt x="342" y="697" on="0"/>
        <pt x="364" y="697" on="1"/>
        <pt x="380" y="697" on="0"/>
        <pt x="398" y="710" on="0"/>
        <pt x="406" y="722" on="1"/>
        <pt x="412" y="734" on="0"/>
        <pt x="429" y="743" on="0"/>
        <pt x="437" y="743" on="1"/>
        <pt x="452" y="743" on="0"/>
        <pt x="470" y="722" on="0"/>
        <pt x="470" y="709" on="1"/>
        <pt x="470" y="693" on="0"/>
        <pt x="442" y="656" on="0"/>
        <pt x="395" y="628" on="0"/>
      </contour>
    </TTGlyph>
    <TTGlyph name="b" xMin="54" yMin="-13" xMax="544" yMax="730">
      <contour>
        <pt x="316" y="-13" on="1"/>
        <pt x="254" y="-13" on="0"/>
        <pt x="168" y="38" on="0"/>
        <pt x="144" y="82" on="1"/>
        <pt x="120" y="0" on="1"/>
        <pt x="54" y="0" on="1"/>
        <pt x="54" y="730" on="1"/>
        <pt x="144" y="730" on="1"/>
        <pt x="144" y="457" on="1"/>
        <pt x="168" y="499" on="0"/>
        <pt x="254" y="551" on="0"/>
        <pt x="316" y="551" on="1"/>
        <pt x="377" y="551" on="0"/>
        <pt x="481" y="484" on="0"/>
        <pt x="544" y="358" on="0"/>
        <pt x="544" y="269" on="1"/>
        <pt x="544" y="179" on="0"/>
        <pt x="481" y="54" on="0"/>
        <pt x="377" y="-13" on="0"/>
      </contour>
      <contour>
        <pt x="293" y="66" on="1"/>
        <pt x="361" y="66" on="0"/>
        <pt x="443" y="173" on="0"/>
        <pt x="443" y="269" on="1"/>
        <pt x="443" y="366" on="0"/>
        <pt x="361" y="472" on="0"/>
        <pt x="293" y="472" on="1"/>
        <pt x="224" y="472" on="0"/>
        <pt x="142" y="366" on="0"/>
        <pt x="142" y="269" on="1"/>
        <pt x="142" y="173" on="0"/>
        <pt x="224" y="66" on="0"/>
      </contour>
    </TTGlyph>
    <TTGlyph name="backslash" xMin="14" yMin="-110" xMax="478" yMax="830">
      <contour>
        <pt x="380" y="-110" on="1"/>
        <pt x="14" y="830" on="1"/>
        <pt x="112" y="830" on="1"/>
        <pt x="478" y="-110" on="1"/>
      </contour>
    </TTGlyph>
    <TTGlyph name="backspacecontrol" xMin="57" yMin="241" xMax="443" yMax="493">
      <component glyphName="B" x="37" y="245" scale="0.33" flags="0x4"/>
      <component glyphName="S" x="240" y="245" scale="0.33" flags="0x4"/>
    </TTGlyph>
    <TTGlyph name="bar" xMin="125" yMin="-110" xMax="225" yMax="830">
      <contour>
        <pt x="165" y="-110" on="1"/>
        <pt x="185" y="-110" on="1"/>
        <pt x="225" y="-110" on="0"/>
        <pt x="225" y="-70" on="1"/>
        <pt x="225" y="790" on="1"/>
        <pt x="225" y="830" on="0"/>
        <pt x="185" y="830" on="1"/>
        <pt x="165" y="830" on="1"/>
        <pt x="125" y="830" on="0"/>
        <pt x="125" y="790" on="1"/>
        <pt x="125" y="-70" on="1"/>
        <pt x="125" y="-110" on="0"/>
      </contour>
    </TTGlyph>
    <TTGlyph name="bellcontrol" xMin="36" yMin="245" xMax="605" yMax="489">
      <component glyphName="B" x="16" y="245" scale="0.33" flags="0x4"/>
      <component glyphName="E" x="221" y="245" scale="0.33" flags="0x4"/>
      <component glyphName="L" x="426" y="245" scale="0.33" flags="0x4"/>
    </TTGlyph>
    <TTGlyph name="beta" xMin="54" yMin="-180" xMax="523" yMax="740">
      <contour>
        <pt x="54" y="-180" on="1"/>
        <pt x="54" y="534" on="1"/>
        <pt x="54" y="596" on="0"/>
        <pt x="111" y="689" on="0"/>
        <pt x="215" y="740" on="0"/>
        <pt x="283" y="740" on="1"/>
        <pt x="351" y="740" on="0"/>
        <pt x="452" y="694" on="0"/>
        <pt x="508" y="612" on="0"/>
        <pt x="508" y="556" on="1"/>
        <pt x="508" y="494" on="0"/>
        <pt x="442" y="407" on="0"/>
        <pt x="383" y="391" on="1"/>
        <pt x="448" y="375" on="0"/>
        <pt x="523" y="280" on="0"/>
        <pt x="523" y="208" on="1"/>
        <pt x="523" y="147" on="0"/>
        <pt x="465" y="53" on="0"/>
        <pt x="363" y="0" on="0"/>
        <pt x="293" y="0" on="1"/>
        <pt x="151" y="0" on="1"/>
        <pt x="151" y="-180" on="1"/>
      </contour>
      <contour>
        <pt x="151" y="82" on="1"/>
        <pt x="282" y="82" on="1"/>
        <pt x="347" y="82" on="0"/>
        <pt x="421" y="153" on="0"/>
        <pt x="421" y="211" on="1"/>
        <pt x="421" y="269" on="0"/>
        <pt x="348" y="335" on="0"/>
        <pt x="282" y="335" on="1"/>
        <pt x="235" y="335" on="1"/>
        <pt x="235" y="413" on="1"/>
        <pt x="279" y="413" on="1"/>
        <pt x="339" y="413" on="0"/>
        <pt x="408" y="483" on="0"/>
        <pt x="408" y="538" on="1"/>
        <pt x="408" y="593" on="0"/>
        <pt x="339" y="658" on="0"/>
        <pt x="279" y="658" on="1"/>
        <pt x="220" y="658" on="0"/>
        <pt x="151" y="592" on="0"/>
        <pt x="151" y="534" on="1"/>
      </contour>
    </TTGlyph>
    <TTGlyph name="block" xMin="13" yMin="-300" xMax="631" yMax="1020">
      <contour>
        <pt x="13" y="-300" on="1"/>
        <pt x="13" y="1020" on="1"/>
        <pt x="631" y="1020" on="1"/>
        <pt x="631" y="-300" on="1"/>
      </contour>
    </TTGlyph>
    <TTGlyph name="braceleft" xMin="97" yMin="-110" xMax="546" yMax="830">
      <contour>
        <pt x="499" y="-110" on="1"/>
        <pt x="407" y="-110" on="0"/>
        <pt x="299" y="-23" on="0"/>
        <pt x="306" y="56" on="1"/>
        <pt x="322" y="220" on="1"/>
        <pt x="327" y="273" on="0"/>
        <pt x="285" y="320" on="0"/>
        <pt x="217" y="320" on="1"/>
        <pt x="97" y="320" on="1"/>
        <pt x="97" y="400" on="1"/>
        <pt x="217" y="400" on="1"/>
        <pt x="285" y="400" on="0"/>
        <pt x="327" y="447" on="0"/>
        <pt x="322" y="500" on="1"/>
        <pt x="306" y="664" on="1"/>
        <pt x="299" y="743" on="0"/>
        <pt x="407" y="830" on="0"/>
        <pt x="499" y="830" on="1"/>
        <pt x="546" y="830" on="1"/>
        <pt x="546" y="750" on="1"/>
        <pt x="499" y="750" on="1"/>
        <pt x="450" y="750" on="0"/>
        <pt x="396" y="707" on="0"/>
        <pt x="400" y="664" on="1"/>
        <pt x="416" y="500" on="1"/>
        <pt x="421" y="443" on="0"/>
        <pt x="363" y="372" on="0"/>
        <pt x="311" y="364" on="1"/>
        <pt x="363" y="355" on="0"/>
        <pt x="421" y="277" on="0"/>
        <pt x="416" y="220" on="1"/>
        <pt x="400" y="56" on="1"/>
        <pt x="396" y="13" on="0"/>
        <pt x="450" y="-30" on="0"/>
        <pt x="499" y="-30" on="1"/>
        <pt x="546" y="-30" on="1"/>
        <pt x="546" y="-110" on="1"/>
      </contour>
    </TTGlyph>
    <TTGlyph name="braceright" xMin="97" yMin="-110" xMax="546" yMax="830">
      <contour>
        <pt x="97" y="-110" on="1"/>
        <pt x="97" y="-30" on="1"/>
        <pt x="144" y="-30" on="1"/>
        <pt x="193" y="-30" on="0"/>
        <pt x="247" y="13" on="0"/>
        <pt x="243" y="56" on="1"/>
        <pt x="227" y="220" on="1"/>
        <pt x="222" y="277" on="0"/>
        <pt x="280" y="356" on="0"/>
        <pt x="332" y="365" on="1"/>
        <pt x="280" y="373" on="0"/>
        <pt x="222" y="443" on="0"/>
        <pt x="227" y="500" on="1"/>
        <pt x="243" y="664" on="1"/>
        <pt x="247" y="707" on="0"/>
        <pt x="193" y="750" on="0"/>
        <pt x="144" y="750" on="1"/>
        <pt x="97" y="750" on="1"/>
        <pt x="97" y="830" on="1"/>
        <pt x="144" y="830" on="1"/>
        <pt x="237" y="830" on="0"/>
        <pt x="345" y="743" on="0"/>
        <pt x="337" y="664" on="1"/>
        <pt x="321" y="500" on="1"/>
        <pt x="317" y="447" on="0"/>
        <pt x="358" y="400" on="0"/>
        <pt x="426" y="400" on="1"/>
        <pt x="546" y="400" on="1"/>
        <pt x="546" y="320" on="1"/>
        <pt x="426" y="320" on="1"/>
        <pt x="359" y="320" on="0"/>
        <pt x="317" y="273" on="0"/>
        <pt x="321" y="220" on="1"/>
        <pt x="337" y="56" on="1"/>
        <pt x="345" y="-23" on="0"/>
        <pt x="237" y="-110" on="0"/>
        <pt x="144" y="-110" on="1"/>
      </contour>
    </TTGlyph>
    <TTGlyph name="bracketleft" xMin="35" yMin="-110" xMax="288" yMax="830">
      <contour>
        <pt x="35" y="-110" on="1"/>
        <pt x="35" y="830" on="1"/>
        <pt x="288" y="830" on="1"/>
        <pt x="288" y="750" on="1"/>
        <pt x="128" y="750" on="1"/>
        <pt x="128" y="-30" on="1"/>
        <pt x="288" y="-30" on="1"/>
        <pt x="288" y="-110" on="1"/>
      </contour>
    </TTGlyph>
    <TTGlyph name="bracketright" xMin="35" yMin="-110" xMax="287" yMax="830">
      <contour>
        <pt x="35" y="-110" on="1"/>
        <pt x="35" y="-30" on="1"/>
        <pt x="194" y="-30" on="1"/>
        <pt x="194" y="750" on="1"/>
        <pt x="35" y="750" on="1"/>
        <pt x="35" y="830" on="1"/>
        <pt x="287" y="830" on="1"/>
        <pt x="287" y="-110" on="1"/>
      </contour>
    </TTGlyph>
    <TTGlyph name="breve" xMin="459" yMin="640" xMax="785" yMax="785">
      <component glyphName="uni0306" x="409" y="0" flags="0x4"/>
    </TTGlyph>
    <TTGlyph name="breve.case" xMin="457" yMin="805" xMax="783" yMax="950">
      <component glyphName="uni0306.case" x="407" y="0" flags="0x4"/>
    </TTGlyph>
    <TTGlyph name="brevecombcy" xMin="50" yMin="640" xMax="376" yMax="785">
      <contour>
        <pt x="213" y="640" on="1"/>
        <pt x="140" y="640" on="0"/>
        <pt x="50" y="720" on="0"/>
        <pt x="50" y="785" on="1"/>
        <pt x="122" y="785" on="1"/>
        <pt x="122" y="746" on="0"/>
        <pt x="171" y="698" on="0"/>
        <pt x="212" y="698" on="1"/>
        <pt x="254" y="698" on="0"/>
        <pt x="304" y="746" on="0"/>
        <pt x="304" y="785" on="1"/>
        <pt x="376" y="785" on="1"/>
        <pt x="376" y="720" on="0"/>
        <pt x="286" y="640" on="0"/>
      </contour>
    </TTGlyph>
    <TTGlyph name="brokenbar" xMin="128" yMin="-110" xMax="220" yMax="830">
      <contour>
        <pt x="128" y="450" on="1"/>
        <pt x="128" y="830" on="1"/>
        <pt x="220" y="830" on="1"/>
        <pt x="220" y="450" on="1"/>
      </contour>
      <contour>
        <pt x="128" y="-110" on="1"/>
        <pt x="128" y="270" on="1"/>
        <pt x="220" y="270" on="1"/>
        <pt x="220" y="-110" on="1"/>
      </contour>
    </TTGlyph>
    <TTGlyph name="bullet" xMin="34" yMin="245" xMax="282" yMax="485">
      <contour>
        <pt x="158" y="245" on="1"/>
        <pt x="104" y="245" on="0"/>
        <pt x="34" y="313" on="0"/>
        <pt x="34" y="365" on="1"/>
        <pt x="34" y="418" on="0"/>
        <pt x="104" y="485" on="0"/>
        <pt x="158" y="485" on="1"/>
        <pt x="213" y="485" on="0"/>
        <pt x="282" y="418" on="0"/>
        <pt x="282" y="365" on="1"/>
        <pt x="282" y="313" on="0"/>
        <pt x="213" y="245" on="0"/>
      </contour>
    </TTGlyph>
    <TTGlyph name="c" xMin="53" yMin="-14" xMax="512" yMax="584">
      <contour>
        <pt x="300" y="-14" on="1"/>
        <pt x="224" y="-14" on="0"/>
        <pt x="113" y="64" on="0"/>
        <pt x="53" y="198" on="0"/>
        <pt x="53" y="285" on="1"/>
        <pt x="53" y="371" on="0"/>
        <pt x="116" y="507" on="0"/>
        <pt x="232" y="584" on="0"/>
        <pt x="310" y="584" on="1"/>
        <pt x="382" y="584" on="0"/>
        <pt x="484" y="508" on="0"/>
        <pt x="510" y="454" on="1"/>
        <pt x="428" y="422" on="1"/>
        <pt x="410" y="457" on="0"/>
        <pt x="344" y="498" on="0"/>
        <pt x="303" y="498" on="1"/>
        <pt x="264" y="498" on="0"/>
        <pt x="193" y="453" on="0"/>
        <pt x="150" y="359" on="0"/>
        <pt x="150" y="286" on="1"/>
        <pt x="150" y="214" on="0"/>
        <pt x="194" y="118" on="0"/>
        <pt x="264" y="72" on="0"/>
        <pt x="303" y="72" on="1"/>
        <pt x="347" y="72" on="0"/>
        <pt x="413" y="114" on="0"/>
        <pt x="430" y="147" on="1"/>
        <pt x="512" y="114" on="1"/>
        <pt x="482" y="59" on="0"/>
        <pt x="371" y="-14" on="0"/>
      </contour>
    </TTGlyph>
    <TTGlyph name="cacute" xMin="53" yMin="-14" xMax="512" yMax="773">
      <contour>
        <pt x="300" y="-14" on="1"/>
        <pt x="224" y="-14" on="0"/>
        <pt x="113" y="64" on="0"/>
        <pt x="53" y="198" on="0"/>
        <pt x="53" y="285" on="1"/>
        <pt x="53" y="371" on="0"/>
        <pt x="116" y="507" on="0"/>
        <pt x="232" y="584" on="0"/>
        <pt x="310" y="584" on="1"/>
        <pt x="382" y="584" on="0"/>
        <pt x="484" y="508" on="0"/>
        <pt x="510" y="454" on="1"/>
        <pt x="428" y="422" on="1"/>
        <pt x="410" y="457" on="0"/>
        <pt x="344" y="498" on="0"/>
        <pt x="303" y="498" on="1"/>
        <pt x="264" y="498" on="0"/>
        <pt x="193" y="453" on="0"/>
        <pt x="150" y="359" on="0"/>
        <pt x="150" y="286" on="1"/>
        <pt x="150" y="214" on="0"/>
        <pt x="194" y="118" on="0"/>
        <pt x="264" y="72" on="0"/>
        <pt x="303" y="72" on="1"/>
        <pt x="347" y="72" on="0"/>
        <pt x="413" y="114" on="0"/>
        <pt x="430" y="147" on="1"/>
        <pt x="512" y="114" on="1"/>
        <pt x="482" y="59" on="0"/>
        <pt x="371" y="-14" on="0"/>
      </contour>
      <contour>
        <pt x="256" y="624" on="1"/>
        <pt x="260" y="628" on="0"/>
        <pt x="286" y="664" on="0"/>
        <pt x="321" y="710" on="0"/>
        <pt x="352" y="751" on="0"/>
        <pt x="359" y="758" on="1"/>
        <pt x="370" y="773" on="0"/>
        <pt x="389" y="773" on="1"/>
        <pt x="406" y="773" on="0"/>
        <pt x="430" y="750" on="0"/>
        <pt x="430" y="731" on="1"/>
        <pt x="430" y="723" on="0"/>
        <pt x="424" y="709" on="0"/>
        <pt x="416" y="700" on="1"/>
        <pt x="408" y="692" on="0"/>
        <pt x="370" y="657" on="0"/>
        <pt x="334" y="627" on="0"/>
        <pt x="331" y="624" on="1"/>
      </contour>
    </TTGlyph>
    <TTGlyph name="cancelcontrol" xMin="32" yMin="241" xMax="632" yMax="493">
      <component glyphName="C" x="13" y="245" scale="0.33" flags="0x4"/>
      <component glyphName="A" x="212" y="245" scale="0.33" flags="0x4"/>
      <component glyphName="N" x="423" y="245" scale="0.33" flags="0x4"/>
    </TTGlyph>
    <TTGlyph name="caron" xMin="476" yMin="645" xMax="846" yMax="785">
      <component glyphName="uni030C" x="425" y="0" flags="0x4"/>
    </TTGlyph>
    <TTGlyph name="caron.case" xMin="476" yMin="810" xMax="846" yMax="950">
      <component glyphName="uni030C.case" x="425" y="0" flags="0x4"/>
    </TTGlyph>
    <TTGlyph name="carriageReturncontrol" xMin="60" yMin="241" xMax="445" yMax="493">
      <component glyphName="C" x="41" y="245" scale="0.33" flags="0x4"/>
      <component glyphName="R" x="244" y="245" scale="0.33" flags="0x4"/>
    </TTGlyph>
    <TTGlyph name="ccaron" xMin="53" yMin="-14" xMax="512" yMax="753">
      <contour>
        <pt x="300" y="-14" on="1"/>
        <pt x="224" y="-14" on="0"/>
        <pt x="113" y="64" on="0"/>
        <pt x="53" y="198" on="0"/>
        <pt x="53" y="285" on="1"/>
        <pt x="53" y="371" on="0"/>
        <pt x="116" y="507" on="0"/>
        <pt x="232" y="584" on="0"/>
        <pt x="310" y="584" on="1"/>
        <pt x="382" y="584" on="0"/>
        <pt x="484" y="508" on="0"/>
        <pt x="510" y="454" on="1"/>
        <pt x="428" y="422" on="1"/>
        <pt x="410" y="457" on="0"/>
        <pt x="344" y="498" on="0"/>
        <pt x="303" y="498" on="1"/>
        <pt x="264" y="498" on="0"/>
        <pt x="193" y="453" on="0"/>
        <pt x="150" y="359" on="0"/>
        <pt x="150" y="286" on="1"/>
        <pt x="150" y="214" on="0"/>
        <pt x="194" y="118" on="0"/>
        <pt x="264" y="72" on="0"/>
        <pt x="303" y="72" on="1"/>
        <pt x="347" y="72" on="0"/>
        <pt x="413" y="114" on="0"/>
        <pt x="430" y="147" on="1"/>
        <pt x="512" y="114" on="1"/>
        <pt x="482" y="59" on="0"/>
        <pt x="371" y="-14" on="0"/>
      </contour>
      <contour>
        <pt x="307" y="622" on="1"/>
        <pt x="275" y="622" on="0"/>
        <pt x="253" y="643" on="1"/>
        <pt x="133" y="753" on="1"/>
        <pt x="234" y="753" on="1"/>
        <pt x="306" y="686" on="1"/>
        <pt x="378" y="753" on="1"/>
        <pt x="479" y="753" on="1"/>
        <pt x="359" y="643" on="1"/>
        <pt x="338" y="622" on="0"/>
      </contour>
    </TTGlyph>
</ttFont>
